SplineFontDB: 3.0
FontName: Microweber
FullName: Microweber
FamilyName: Microweber
Weight: Book
Version: 001.000
ItalicAngle: 0
UnderlinePosition: -100
UnderlineWidth: 50
Ascent: 750
Descent: 250
InvalidEm: 0
sfntRevision: 0x00010000
LayerCount: 2
Layer: 0 1 "Back" 1
Layer: 1 1 "Fore" 0
XUID: [1021 252 -213895742 16099]
StyleMap: 0x0000
FSType: 0
OS2Version: 3
OS2_WeightWidthSlopeOnly: 0
OS2_UseTypoMetrics: 0
CreationTime: 1397540511
ModificationTime: 1451136291
PfmFamily: 17
TTFWeight: 400
TTFWidth: 5
LineGap: 0
VLineGap: 0
Panose: 2 0 0 0 0 0 0 0 0 0
OS2TypoAscent: 750
OS2TypoAOffset: 0
OS2TypoDescent: -250
OS2TypoDOffset: 0
OS2TypoLinegap: 0
OS2WinAscent: 734
OS2WinAOffset: 0
OS2WinDescent: 0
OS2WinDOffset: 0
HheadAscent: 750
HheadAOffset: 0
HheadDescent: -250
HheadDOffset: 0
OS2SubXSize: 700
OS2SubYSize: 650
OS2SubXOff: 0
OS2SubYOff: 140
OS2SupXSize: 700
OS2SupYSize: 650
OS2SupXOff: 0
OS2SupYOff: 477
OS2StrikeYSize: 50
OS2StrikeYPos: 250
OS2CapHeight: 700
OS2XHeight: 500
OS2Vendor: 'PYRS'
OS2CodePages: 00000001.00000000
OS2UnicodeRanges: 00000007.10000000.00000000.00000000
DEI: 91125
TtTable: prep
PUSHW_1
 0
CALL
EndTTInstrs
TtTable: fpgm
PUSHW_1
 0
FDEF
MPPEM
PUSHW_1
 9
LT
IF
PUSHB_2
 1
 1
INSTCTRL
EIF
PUSHW_1
 511
SCANCTRL
PUSHW_1
 68
SCVTCI
PUSHW_2
 9
 3
SDS
SDB
ENDF
PUSHW_1
 1
FDEF
DUP
DUP
RCVT
ROUND[Black]
WCVTP
PUSHB_1
 1
ADD
ENDF
PUSHW_1
 2
FDEF
PUSHW_1
 1
LOOPCALL
POP
ENDF
PUSHW_1
 3
FDEF
DUP
GC[cur]
PUSHB_1
 3
CINDEX
GC[cur]
GT
IF
SWAP
EIF
DUP
ROLL
DUP
ROLL
MD[grid]
ABS
ROLL
DUP
GC[cur]
DUP
ROUND[Grey]
SUB
ABS
PUSHB_1
 4
CINDEX
GC[cur]
DUP
ROUND[Grey]
SUB
ABS
GT
IF
SWAP
NEG
ROLL
EIF
MDAP[rnd]
DUP
PUSHB_1
 0
GTEQ
IF
ROUND[Black]
DUP
PUSHB_1
 0
EQ
IF
POP
PUSHB_1
 64
EIF
ELSE
ROUND[Black]
DUP
PUSHB_1
 0
EQ
IF
POP
PUSHB_1
 64
NEG
EIF
EIF
MSIRP[no-rp0]
ENDF
PUSHW_1
 4
FDEF
DUP
GC[cur]
PUSHB_1
 4
CINDEX
GC[cur]
GT
IF
SWAP
ROLL
EIF
DUP
GC[cur]
DUP
ROUND[White]
SUB
ABS
PUSHB_1
 4
CINDEX
GC[cur]
DUP
ROUND[White]
SUB
ABS
GT
IF
SWAP
ROLL
EIF
MDAP[rnd]

StartChar: n
Encoding: 110 110 4
Width: 833
Flags: W
LayerCount: 2
Fore
SplineSet
482 291 m 0,0,1
 482 227 482 227 535 201 c 0,2,3
 557 193 557 193 579 199 c 128,-1,4
 601 205 601 205 615 218 c 0,5,6
 623 226 623 226 628.5 231 c 128,-1,7
 634 236 634 236 639 229 c 1,8,9
 650 229 650 229 652 218 c 128,-1,10
 654 207 654 207 654 201 c 2,11,-1
 654 58 l 2,12,13
 654 44 654 44 645 32.5 c 128,-1,14
 636 21 636 21 625 21 c 2,15,-1
 169 21 l 2,16,17
 155 21 155 21 142.5 32.5 c 128,-1,18
 130 44 130 44 130 58 c 2,19,-1
 130 514 l 2,20,21
 130 529 130 529 142.5 536 c 128,-1,22
 155 543 155 543 169 543 c 2,23,-1
 310 543 l 2,24,25
 327 543 327 543 337.5 550.5 c 128,-1,26
 348 558 348 558 351.5 568.5 c 128,-1,27
 355 579 355 579 351.5 591 c 128,-1,28
 348 603 348 603 337 612 c 0,29,30
 324 630 324 630 320.5 650.5 c 128,-1,31
 317 671 317 671 324 689 c 128,-1,32
 331 707 331 707 348 719 c 128,-1,33
 365 731 365 731 392 731 c 256,34,35
 419 731 419 731 437.5 719 c 128,-1,36
 456 707 456 707 463.5 689 c 128,-1,37
 471 671 471 671 467 650.5 c 128,-1,38
 463 630 463 630 447 612 c 0,39,40
 440 603 440 603 438 591 c 128,-1,41
 436 579 436 579 440 568.5 c 128,-1,42
 444 558 444 558 454 550.5 c 128,-1,43
 464 543 464 543 482 543 c 2,44,-1
 625 543 l 2,45,46
 636 543 636 543 645 536 c 128,-1,47
 654 529 654 529 654 514 c 2,48,-1
 654 372 l 2,49,50
 654 366 654 366 652 356 c 128,-1,51
 650 346 650 346 639 346 c 0,52,53
 637 346 637 346 635 347 c 0,54,55
 630 348 630 348 625 354 c 0,56,57
 604 374 604 374 580.5 376 c 128,-1,58
 557 378 557 378 535 372 c 1,59,60
 482 345 482 345 482 291 c 0,0,1
EndSplineSet
Validated: 33
EndChar

StartChar: l
Encoding: 108 108 5
Width: 833
Flags: W
LayerCount: 2
Fore
SplineSet
11 325 m 1,0,1
 123 461 123 461 254 517 c 0,2,3
 309 541 309 541 374.5 550 c 128,-1,4
 440 559 440 559 512 541 c 128,-1,5
 584 523 584 523 662 472 c 128,-1,6
 740 421 740 421 821 325 c 1,7,8
 708 186 708 186 578 129 c 0,9,10
 522 105 522 105 457 95.5 c 128,-1,11
 392 86 392 86 320 104.5 c 128,-1,12
 248 123 248 123 170 175 c 128,-1,13
 92 227 92 227 11 325 c 1,0,1
416 172 m 0,14,15
 450 172 450 172 478 183 c 128,-1,16
 506 194 506 194 526 214.5 c 128,-1,17
 546 235 546 235 557.5 263 c 128,-1,18
 569 291 569 291 569 325 c 0,19,20
 569 355 569 355 557.5 383 c 128,-1,21
 546 411 546 411 526 432 c 128,-1,22
 506 453 506 453 478 465.5 c 128,-1,23
 450 478 450 478 416 478 c 0,24,25
 386 478 386 478 358 465.5 c 128,-1,26
 330 453 330 453 309 432 c 128,-1,27
 288 411 288 411 275.5 383 c 128,-1,28
 263 355 263 355 263 325 c 0,29,30
 263 291 263 291 275.5 263 c 128,-1,31
 288 235 288 235 309 214.5 c 128,-1,32
 330 194 330 194 358 183 c 128,-1,33
 386 172 386 172 416 172 c 0,14,15
EndSplineSet
Validated: 33
EndChar

StartChar: w
Encoding: 119 119 6
Width: 833
Flags: W
LayerCount: 2
Fore
SplineSet
534 141 m 1,0,1
 523 100 523 100 512.5 70 c 128,-1,2
 502 40 502 40 488 20 c 1,3,4
 467 20 467 20 450.5 16.5 c 128,-1,5
 434 13 434 13 420 13 c 0,6,7
 345 13 345 13 280 41 c 128,-1,8
 215 69 215 69 167 117.5 c 128,-1,9
 119 166 119 166 91.5 230.5 c 128,-1,10
 64 295 64 295 64 369 c 0,11,12
 64 455 64 455 96.5 525 c 128,-1,13
 129 595 129 595 186 651 c 1,14,15
 189 647 189 647 191 639 c 0,16,17
 192 635 192 635 192 633 c 1,18,19
 190 633 190 633 188 632 c 0,20,21
 185 630 185 630 180 624 c 1,22,-1
 180 609 l 1,23,-1
 192 609 l 1,24,25
 187 604 187 604 186 599.5 c 128,-1,26
 185 595 185 595 180 590 c 1,27,-1
 180 570 l 1,28,-1
 192 570 l 1,29,30
 187 560 187 560 182.5 553.5 c 128,-1,31
 178 547 178 547 173 536 c 1,32,33
 183 547 183 547 189 557.5 c 128,-1,34
 195 568 195 568 205 577 c 0,35,36
 210 582 210 582 218 587 c 128,-1,37
 226 592 226 592 232 597 c 1,38,39
 241 592 241 592 253.5 588 c 128,-1,40
 266 584 266 584 280 584 c 1,41,42
 285 570 285 570 293 557.5 c 128,-1,43
 301 545 301 545 306 526 c 1,44,-1
 306 463 l 1,45,46
 311 449 311 449 316 437.5 c 128,-1,47
 321 426 321 426 326 409 c 1,48,49
 340 389 340 389 351.5 372.5 c 128,-1,50
 363 356 363 356 380 336 c 1,51,52
 396 331 396 331 407.5 325 c 128,-1,53
 419 319 419 319 434 307 c 0,54,55
 438 307 438 307 446.5 304 c 128,-1,56
 455 301 455 301 460 301 c 1,57,58
 465 291 465 291 475 281.5 c 128,-1,59
 485 272 485 272 495 262 c 1,60,61
 500 267 500 267 501 268 c 128,-1,62
 502 269 502 269 507 269 c 1,63,64
 502 258 502 258 497.5 252 c 128,-1,65
 493 246 493 246 488 236 c 1,66,67
 493 217 493 217 497 196.5 c 128,-1,68
 501 176 501 176 501 161 c 1,69,70
 511 156 511 156 520 151 c 128,-1,71
 529 146 529 146 534 141 c 1,0,1
420 725 m 0,72,73
 493 725 493 725 558 697.5 c 128,-1,74
 623 670 623 670 671.5 622 c 128,-1,75
 720 574 720 574 748 509 c 128,-1,76
 776 444 776 444 776 369 c 0,77,78
 776 314 776 314 758 262 c 128,-1,79
 740 210 740 210 708.5 166.5 c 128,-1,80
 677 123 677 123 634 90.5 c 128,-1,81
 591 58 591 58 540 40 c 1,82,-1
 547 40 l 1,83,84
 562 55 562 55 581.5 70.5 c 128,-1,85
 601 86 601 86 616 104 c 1,86,87
 616 111 616 111 618.5 118 c 128,-1,88
 621 125 621 125 621 135 c 1,89,90
 626 135 626 135 631 139 c 128,-1,91
 636 143 636 143 641 148 c 0,92,93
 646 163 646 163 650.5 181.5 c 128,-1,94
 655 200 655 200 660 222 c 1,95,96
 655 222 655 222 650 226.5 c 128,-1,97
 645 231 645 231 635 236 c 1,98,99
 635 241 635 241 631.5 246.5 c 128,-1,100
 628 252 628 252 628 262 c 1,101,102
 623 267 623 267 614 275 c 128,-1,103
 605 283 605 283 596 288 c 1,104,105
 582 288 582 288 562 291 c 128,-1,106
 542 294 542 294 527 294 c 1,107,108
 522 289 522 289 520.5 284.5 c 128,-1,109
 519 280 519 280 514 275 c 0,110,111
 509 275 509 275 507.5 278.5 c 128,-1,112
 506 282 506 282 501 282 c 0,113,114
 496 287 496 287 495.5 294.5 c 128,-1,115
 495 302 495 302 495 307 c 1,116,-1
 460 307 l 1,117,118
 465 324 465 324 467.5 331 c 128,-1,119
 470 338 470 338 482 343 c 1,120,121
 470 348 470 348 464 349 c 128,-1,122
 458 350 458 350 453 350 c 0,123,124
 448 345 448 345 443 339.5 c 128,-1,125
 438 334 438 334 434 329 c 1,126,127
 428 334 428 334 426.5 339.5 c 128,-1,128
 425 345 425 345 420 350 c 1,129,130
 420 360 420 360 424 368.5 c 128,-1,131
 428 377 428 377 434 383 c 0,132,133
 443 387 443 387 457 387.5 c 128,-1,134
 471 388 471 388 488 388 c 1,135,136
 493 384 493 384 494.5 378 c 128,-1,137
 496 372 496 372 501 363 c 0,138,139
 503 364 503 364 505 366 c 0,140,141
 507 367 507 367 509 368 c 128,-1,142
 511 369 511 369 514 369 c 2,143,-1
 514 388 l 1,144,145
 519 404 519 404 528 419 c 128,-1,146
 537 434 537 434 547 444 c 0,147,148
 557 449 557 449 564.5 453.5 c 128,-1,149
 572 458 572 458 587 463 c 0,150,151
 598 468 598 468 608.5 472 c 128,-1,152
 619 476 619 476 628 476 c 1,153,154
 619 496 619 496 612 523 c 128,-1,155
 605 550 605 550 596 565 c 1,156,-1
 577 565 l 1,157,158
 569 569 569 569 563.5 578 c 128,-1,159
 558 587 558 587 553 597 c 1,160,-1
 527 597 l 1,161,-1
 527 545 l 1,162,-1
 514 545 l 1,163,164
 500 554 500 554 481.5 567 c 128,-1,165
 463 580 463 580 453 590 c 0,166,167
 453 595 453 595 456.5 599.5 c 128,-1,168
 460 604 460 604 460 609 c 1,169,170
 481 609 481 609 492.5 612.5 c 128,-1,171
 504 616 504 616 514 616 c 1,172,173
 514 629 514 629 513 641 c 128,-1,174
 512 653 512 653 507 658 c 1,175,-1
 387 658 l 1,176,177
 365 663 365 663 350.5 664.5 c 128,-1,178
 336 666 336 666 326 671 c 1,179,180
 316 666 316 666 309.5 664.5 c 128,-1,181
 303 663 303 663 293 658 c 1,182,183
 278 658 278 658 258.5 663 c 128,-1,184
 239 668 239 668 224 678 c 1,185,186
 272 702 272 702 317.5 713.5 c 128,-1,187
 363 725 363 725 420 725 c 0,72,73
EndSplineSet
Validated: 5
EndChar

StartChar: c
Encoding: 99 99 7
Width: 832
Flags: W
LayerCount: 2
Fore
SplineSet
86 717 m 1,0,-1
 383 717 l 1,1,-1
 383 690 l 1,2,-1
 410 690 l 1,3,-1
 410 672 l 1,4,-1
 428 672 l 1,5,-1
 428 650 l 1,6,-1
 455 650 l 1,7,-1
 455 618 l 1,8,-1
 752 618 l 1,9,-1
 752 600 l 1,10,-1
 779 600 l 1,11,-1
 779 69 l 1,12,-1
 752 69 l 1,13,-1
 752 51 l 1,14,-1
 86 51 l 1,15,-1
 86 69 l 1,16,-1
 56 69 l 1,17,-1
 56 690 l 1,18,-1
 86 690 l 1,19,-1
 86 717 l 1,20,-1
 86 717 l 1,0,-1
EndSplineSet
Validated: 5
EndChar

StartChar: t
Encoding: 116 116 8
Width: 833
Flags: W
LayerCount: 2
Fore
SplineSet
649 304 m 1,0,1
 649 294 649 294 647.5 285 c 128,-1,2
 646 276 646 276 638 268 c 1,3,-1
 696 187 l 1,4,-1
 614 105 l 1,5,-1
 533 163 l 1,6,7
 524 154 524 154 515 152.5 c 128,-1,8
 506 151 506 151 498 151 c 1,9,-1
 485 46 l 1,10,-1
 357 46 l 1,11,-1
 347 151 l 1,12,13
 337 151 337 151 328 152.5 c 128,-1,14
 319 154 319 154 311 163 c 1,15,-1
 230 105 l 1,16,-1
 148 187 l 1,17,-1
 206 268 l 1,18,19
 197 276 197 276 194 285 c 128,-1,20
 191 294 191 294 183 304 c 1,21,-1
 89 314 l 1,22,-1
 89 442 l 1,23,-1
 183 455 l 1,24,25
 191 463 191 463 194 472 c 128,-1,26
 197 481 197 481 206 490 c 1,27,-1
 148 571 l 1,28,-1
 230 653 l 1,29,-1
 311 595 l 1,30,31
 319 603 319 603 328 604.5 c 128,-1,32
 337 606 337 606 347 606 c 1,33,-1
 357 700 l 1,34,-1
 485 700 l 1,35,-1
 498 606 l 1,36,37
 506 606 506 606 515 604.5 c 128,-1,38
 524 603 524 603 533 595 c 1,39,-1
 614 653 l 1,40,-1
 696 571 l 1,41,-1
 638 490 l 1,42,43
 646 481 646 481 647.5 472 c 128,-1,44
 649 463 649 463 649 455 c 1,45,-1
 743 442 l 1,46,-1
 743 314 l 1,47,-1
 649 304 l 1,0,1
416 291 m 0,48,49
 434 291 434 291 449 299 c 128,-1,50
 464 307 464 307 475 319 c 128,-1,51
 486 331 486 331 492 345.5 c 128,-1,52
 498 360 498 360 498 373 c 0,53,54
 498 408 498 408 474.5 431.5 c 128,-1,55
 451 455 451 455 416 455 c 0,56,57
 403 455 403 455 388.5 449 c 128,-1,58
 374 443 374 443 362 432 c 128,-1,59
 350 421 350 421 342 406 c 128,-1,60
 334 391 334 391 334 373 c 0,61,62
 334 360 334 360 342 345.5 c 128,-1,63
 350 331 350 331 362 319 c 128,-1,64
 374 307 374 307 388.5 299 c 128,-1,65
 403 291 403 291 416 291 c 0,48,49
EndSplineSet
Validated: 1
EndChar

StartChar: o
Encoding: 111 111 9
Width: 697
Flags: W
LayerCount: 2
Fore
SplineSet
36 667 m 2,0,-1
 36 702 l 2,1,2
 37 706 37 706 39 710 c 0,3,4
 43 718 43 718 52 719 c 2,5,-1
 641 719 l 2,6,7
 645 719 645 719 649 717 c 0,8,9
 657 713 657 713 658 701 c 2,10,-1
 658 115 l 2,11,12
 657 111 657 111 654 107 c 0,13,14
 648 99 648 99 640 99 c 2,15,-1
 433 99 l 1,16,-1
 347 26 l 1,17,-1
 261 101 l 1,18,-1
 56 101 l 2,19,20
 51 100 51 100 47 102 c 256,21,22
 43 104 43 104 40.5 107 c 128,-1,23
 38 110 38 110 38 118 c 0,24,25
 38 121 38 121 38 146.5 c 128,-1,26
 38 172 38 172 37.5 211 c 128,-1,27
 37 250 37 250 37 299 c 128,-1,28
 37 348 37 348 37 399 c 0,29,30
 36 518 36 518 36 667 c 2,0,-1
575 434 m 2,31,-1
 138 434 l 2,32,33
 127 434 127 434 119.5 426 c 128,-1,34
 112 418 112 418 112 407 c 0,35,36
 112 397 112 397 119.5 389 c 128,-1,37
 127 381 127 381 138 381 c 2,38,-1
 575 381 l 2,39,40
 586 381 586 381 593.5 389 c 128,-1,41
 601 397 601 397 601 407 c 0,42,43
 601 418 601 418 593.5 426 c 128,-1,44
 586 434 586 434 575 434 c 2,31,-1
575 270 m 2,45,-1
 138 270 l 2,46,47
 127 270 127 270 119.5 262.5 c 128,-1,48
 112 255 112 255 112 244 c 256,49,50
 112 233 112 233 119.5 225.5 c 128,-1,51
 127 218 127 218 138 218 c 2,52,-1
 575 218 l 2,53,54
 586 218 586 218 593.5 225.5 c 128,-1,55
 601 233 601 233 601 244 c 256,56,57
 601 255 601 255 593.5 262.5 c 128,-1,58
 586 270 586 270 575 270 c 2,45,-1
138 545 m 2,59,-1
 575 545 l 2,60,61
 586 545 586 545 593.5 552 c 128,-1,62
 601 559 601 559 601 570 c 0,63,64
 601 582 601 582 593.5 589.5 c 128,-1,65
 586 597 586 597 575 597 c 2,66,-1
 138 597 l 2,67,68
 127 597 127 597 119.5 589.5 c 128,-1,69
 112 582 112 582 112 570 c 0,70,71
 112 559 112 559 119.5 552 c 128,-1,72
 127 545 127 545 138 545 c 2,59,-1
EndSplineSet
Validated: 1
EndChar

StartChar: q
Encoding: 113 113 10
Width: 833
Flags: W
LayerCount: 2
Fore
SplineSet
679 490 m 1,0,-1
 679 15 l 1,1,-1
 143 15 l 1,2,-1
 143 723 l 1,3,-1
 440 723 l 1,4,-1
 440 723 l 1,5,-1
 440 507 l 1,6,-1
 679 507 l 1,7,-1
 679 490 l 1,0,-1
501 723 m 1,8,-1
 685 562 l 1,9,-1
 501 562 l 1,10,-1
 501 723 l 1,8,-1
EndSplineSet
Validated: 5
EndChar

StartChar: r
Encoding: 114 114 11
Width: 833
Flags: W
LayerCount: 2
Fore
SplineSet
690 608 m 2,0,1
 693 608 693 608 697.5 605 c 128,-1,2
 702 602 702 602 706.5 597.5 c 128,-1,3
 711 593 711 593 714.5 588 c 128,-1,4
 718 583 718 583 718 579 c 0,5,6
 718 565 718 565 707 558.5 c 128,-1,7
 696 552 696 552 690 552 c 2,8,-1
 645 552 l 1,9,-1
 645 92 l 2,10,11
 645 63 645 63 627 44 c 128,-1,12
 609 25 609 25 580 25 c 2,13,-1
 211 25 l 2,14,15
 182 25 182 25 164 44 c 128,-1,16
 146 63 146 63 146 92 c 2,17,-1
 146 552 l 1,18,-1
 101 552 l 2,19,20
 74 552 74 552 74 579 c 0,21,22
 74 587 74 587 80.5 597.5 c 128,-1,23
 87 608 87 608 101 608 c 2,24,-1
 229 608 l 1,25,-1
 229 660 l 2,26,27
 229 689 229 689 250.5 708 c 128,-1,28
 272 727 272 727 301 727 c 2,29,-1
 491 727 l 2,30,31
 519 727 519 727 541 708 c 128,-1,32
 563 689 563 689 563 660 c 2,33,-1
 563 608 l 1,34,-1
 690 608 l 2,0,1
273 608 m 1,35,-1
 519 608 l 1,36,-1
 519 660 l 2,37,38
 519 689 519 689 491 689 c 2,39,-1
 301 689 l 2,40,41
 273 689 273 689 273 660 c 2,42,-1
 273 608 l 1,35,-1
599 552 m 1,43,-1
 183 552 l 1,44,-1
 183 92 l 2,45,46
 183 63 183 63 211 63 c 2,47,-1
 580 63 l 2,48,49
 588 63 588 63 593.5 70.5 c 128,-1,50
 599 78 599 78 599 92 c 2,51,-1
 599 552 l 1,43,-1
273 153 m 0,52,53
 265 153 265 153 259.5 159 c 128,-1,54
 254 165 254 165 254 172 c 2,55,-1
 254 471 l 2,56,57
 254 485 254 485 259.5 492 c 128,-1,58
 265 499 265 499 273 499 c 0,59,60
 301 499 301 499 301 471 c 2,61,-1
 301 172 l 2,62,63
 301 165 301 165 294 159 c 128,-1,64
 287 153 287 153 273 153 c 0,52,53
519 153 m 256,65,66
 512 153 512 153 506 159 c 128,-1,67
 500 165 500 165 500 172 c 2,68,-1
 500 471 l 2,69,70
 500 485 500 485 506 492 c 128,-1,71
 512 499 512 499 519 499 c 256,72,73
 526 499 526 499 532 492 c 128,-1,74
 538 485 538 485 538 471 c 2,75,-1
 538 172 l 2,76,77
 538 165 538 165 532 159 c 128,-1,78
 526 153 526 153 519 153 c 256,65,66
400 153 m 0,79,80
 373 153 373 153 373 181 c 2,81,-1
 373 471 l 2,82,83
 373 499 373 499 400 499 c 0,84,85
 408 499 408 499 413.5 492 c 128,-1,86
 419 485 419 485 419 471 c 2,87,-1
 419 181 l 2,88,89
 419 167 419 167 413.5 160 c 128,-1,90
 408 153 408 153 400 153 c 0,79,80
EndSplineSet
Validated: 1
EndChar

StartChar: plus
Encoding: 43 43 12
Width: 610
Flags: W
LayerCount: 2
Fore
SplineSet
372 87 m 1,0,-1
 244 87 l 1,1,-1
 244 656 l 1,2,-1
 372 656 l 1,3,-1
 372 87 l 1,4,-1
 372 87 l 1,0,-1
592 435 m 1,5,-1
 592 308 l 1,6,-1
 21 308 l 1,7,-1
 21 435 l 1,8,-1
 592 435 l 1,9,-1
 592 435 l 1,5,-1
EndSplineSet
Validated: 5
EndChar

StartChar: bin
Encoding: 256 256 13
Width: 717
Flags: W
LayerCount: 2
Fore
SplineSet
382 612 m 1,0,-1
 382 142 l 1,1,-1
 483 142 l 1,2,-1
 364 22 l 1,3,-1
 243 142 l 1,4,-1
 342 142 l 1,5,-1
 342 612 l 1,6,-1
 243 612 l 1,7,-1
 364 725 l 1,8,-1
 483 612 l 1,9,-1
 382 612 l 1,0,-1
128 396 m 1,10,-1
 598 396 l 1,11,-1
 598 497 l 1,12,-1
 711 378 l 1,13,-1
 598 257 l 1,14,-1
 598 356 l 1,15,-1
 128 356 l 1,16,-1
 128 257 l 1,17,-1
 8 378 l 1,18,-1
 128 497 l 1,19,-1
 128 396 l 1,10,-1
EndSplineSet
Validated: 5
EndChar

StartChar: m
Encoding: 109 109 14
Width: 752
Flags: W
LayerCount: 2
Fore
SplineSet
710 190 m 0,0,1
 706 181 706 181 700.5 173 c 128,-1,2
 695 165 695 165 688 157 c 0,3,4
 675 143 675 143 659.5 134 c 128,-1,5
 644 125 644 125 626 118 c 2,6,-1
 378 38 l 2,7,8
 361 35 361 35 344 43 c 0,9,10
 330 54 330 54 330 71 c 2,11,-1
 285 559 l 1,12,-1
 295 557 l 1,13,-1
 318 556 l 1,14,-1
 360 551 l 2,15,16
 369 550 369 550 378 543.5 c 128,-1,17
 387 537 387 537 387 528 c 2,18,-1
 431 171 l 1,19,-1
 527 194 l 1,20,-1
 474 543 l 1,21,-1
 485 542 l 1,22,-1
 502 541 l 1,23,-1
 530 539 l 2,24,25
 538 538 538 538 544.5 532 c 128,-1,26
 551 526 551 526 552 521 c 2,27,-1
 610 212 l 1,28,-1
 680 228 l 1,29,-1
 618 532 l 2,30,31
 614 562 614 562 589.5 585 c 128,-1,32
 565 608 565 608 536 613 c 2,33,-1
 208 657 l 2,34,35
 200 657 200 657 191 654.5 c 128,-1,36
 182 652 182 652 174 644 c 0,37,38
 168 639 168 639 164 631.5 c 128,-1,39
 160 624 160 624 161 616 c 2,40,-1
 194 63 l 1,41,-1
 197 32 l 1,42,-1
 197 21 l 1,43,44
 161 28 161 28 130 46 c 128,-1,45
 99 64 99 64 77 90 c 128,-1,46
 55 116 55 116 42.5 149.5 c 128,-1,47
 30 183 30 183 30 221 c 2,48,-1
 26 578 l 2,49,50
 25 643 25 643 70 685 c 0,51,52
 109 720 109 720 170 729 c 0,53,54
 193 734 193 734 217 733.5 c 128,-1,55
 241 733 241 733 267 728 c 2,56,-1
 526 680 l 2,57,58
 553 675 553 675 578 660.5 c 128,-1,59
 603 646 603 646 623.5 625.5 c 128,-1,60
 644 605 644 605 658 579.5 c 128,-1,61
 672 554 672 554 678 527 c 2,62,-1
 724 318 l 2,63,64
 732 283 732 283 728 251 c 128,-1,65
 724 219 724 219 710 190 c 0,0,1
EndSplineSet
Validated: 33
EndChar

StartChar: Igrave
Encoding: 204 204 15
Width: 833
Flags: W
LayerCount: 2
Fore
SplineSet
694 725 m 1,0,-1
 773 646 l 1,1,-1
 569 450 l 1,2,-1
 264 136 l 1,3,-1
 264 136 l 1,4,-1
 174 54 l 1,5,-1
 93 35 l 1,6,-1
 83 35 l 1,7,-1
 83 35 l 1,8,-1
 83 35 l 1,9,-1
 93 126 l 1,10,-1
 113 146 l 1,11,-1
 113 146 l 1,12,-1
 226 255 l 1,13,-1
 342 372 l 1,14,-1
 452 482 l 1,15,-1
 560 592 l 1,16,-1
 560 592 l 1,17,-1
 568 603 l 1,18,-1
 568 603 l 1,19,-1
 694 725 l 1,20,-1
 694 725 l 1,0,-1
EndSplineSet
Validated: 5
EndChar

StartChar: s
Encoding: 115 115 16
Width: 833
Flags: W
LayerCount: 2
Fore
SplineSet
722 477 m 1,0,-1
 722 8 l 1,1,-1
 106 8 l 1,2,-1
 106 477 l 1,3,-1
 204 477 l 1,4,5
 204 528 204 528 221 572.5 c 128,-1,6
 238 617 238 617 266.5 649.5 c 128,-1,7
 295 682 295 682 332.5 701 c 128,-1,8
 370 720 370 720 410 720 c 0,9,10
 453 720 453 720 490.5 701 c 128,-1,11
 528 682 528 682 555.5 649.5 c 128,-1,12
 583 617 583 617 599 572.5 c 128,-1,13
 615 528 615 528 615 477 c 1,14,-1
 722 477 l 1,0,-1
238 392 m 0,15,16
 244 392 244 392 253 397 c 128,-1,17
 262 402 262 402 262 413 c 0,18,19
 262 419 262 419 253 427 c 128,-1,20
 244 435 244 435 238 435 c 0,21,22
 225 435 225 435 214.5 427 c 128,-1,23
 204 419 204 419 204 413 c 0,24,25
 204 402 204 402 214.5 397 c 128,-1,26
 225 392 225 392 238 392 c 0,15,16
410 677 m 0,27,28
 379 677 379 677 352 662 c 128,-1,29
 325 647 325 647 305 620 c 128,-1,30
 285 593 285 593 273.5 556.5 c 128,-1,31
 262 520 262 520 262 477 c 1,32,-1
 566 477 l 1,33,34
 566 520 566 520 554.5 556.5 c 128,-1,35
 543 593 543 593 522 620 c 128,-1,36
 501 647 501 647 472.5 662 c 128,-1,37
 444 677 444 677 410 677 c 0,27,28
590 392 m 0,38,39
 615 392 615 392 615 413 c 0,40,41
 615 419 615 419 609 427 c 128,-1,42
 603 435 603 435 590 435 c 0,43,44
 585 435 585 435 575.5 427 c 128,-1,45
 566 419 566 419 566 413 c 0,46,47
 566 402 566 402 575.5 397 c 128,-1,48
 585 392 585 392 590 392 c 0,38,39
EndSplineSet
Validated: 1
EndChar

StartChar: Iacute
Encoding: 205 205 17
Width: 833
Flags: W
LayerCount: 2
Fore
SplineSet
677 637 m 1,0,1
 724 595 724 595 747.5 542 c 128,-1,2
 771 489 771 489 771 433 c 128,-1,3
 771 377 771 377 747.5 322.5 c 128,-1,4
 724 268 724 268 677 223 c 1,5,6
 644 185 644 185 600 164.5 c 128,-1,7
 556 144 556 144 508 139 c 128,-1,8
 460 134 460 134 412 144 c 128,-1,9
 364 154 364 154 323 179 c 1,10,-1
 183 48 l 2,11,12
 173 38 173 38 159.5 33 c 128,-1,13
 146 28 146 28 132 28 c 128,-1,14
 118 28 118 28 104.5 33 c 128,-1,15
 91 38 91 38 81 48 c 0,16,17
 52 69 52 69 52 100 c 128,-1,18
 52 131 52 131 81 157 c 2,19,-1
 212 290 l 1,20,21
 191 331 191 331 184 376.5 c 128,-1,22
 177 422 177 422 184.5 468 c 128,-1,23
 192 514 192 514 214 557.5 c 128,-1,24
 236 601 236 601 272 637 c 0,25,26
 313 682 313 682 365.5 705 c 128,-1,27
 418 728 418 728 473.5 728 c 128,-1,28
 529 728 529 728 582 705 c 128,-1,29
 635 682 635 682 677 637 c 1,0,1
603 304 m 0,30,31
 628 332 628 332 640.5 366 c 128,-1,32
 653 400 653 400 653 434.5 c 128,-1,33
 653 469 653 469 640.5 502 c 128,-1,34
 628 535 628 535 603 563 c 0,35,36
 576 588 576 588 542.5 600 c 128,-1,37
 509 612 509 612 474 612 c 128,-1,38
 439 612 439 612 405.5 600 c 128,-1,39
 372 588 372 588 345 563 c 0,40,41
 306 524 306 524 295 473.5 c 128,-1,42
 284 423 284 423 301 380 c 0,43,44
 307 363 307 363 317.5 339 c 128,-1,45
 328 315 328 315 345 304 c 0,46,47
 356 293 356 293 371.5 283.5 c 128,-1,48
 387 274 387 274 404 268 c 0,49,50
 426 257 426 257 452 254 c 128,-1,51
 478 251 478 251 504 256 c 128,-1,52
 530 261 530 261 555.5 273 c 128,-1,53
 581 285 581 285 603 304 c 0,30,31
EndSplineSet
Validated: 33
EndChar

StartChar: test.002
Encoding: 65540 -1 19
Width: 833
Flags: W
LayerCount: 2
Fore
SplineSet
534 141 m 1,0,1
 523 100 523 100 512.5 70 c 128,-1,2
 502 40 502 40 488 20 c 1,3,4
 467 20 467 20 450.5 16.5 c 128,-1,5
 434 13 434 13 420 13 c 0,6,7
 345 13 345 13 280 41 c 128,-1,8
 215 69 215 69 167 117.5 c 128,-1,9
 119 166 119 166 91.5 230.5 c 128,-1,10
 64 295 64 295 64 369 c 0,11,12
 64 455 64 455 96.5 525 c 128,-1,13
 129 595 129 595 186 651 c 1,14,15
 189 647 189 647 191 639 c 0,16,17
 192 635 192 635 192 633 c 1,18,19
 190 633 190 633 188 632 c 0,20,21
 185 630 185 630 180 624 c 1,22,-1
 180 609 l 1,23,-1
 192 609 l 1,24,25
 187 604 187 604 186 599.5 c 128,-1,26
 185 595 185 595 180 590 c 1,27,-1
 180 570 l 1,28,-1
 192 570 l 1,29,30
 187 560 187 560 182.5 553.5 c 128,-1,31
 178 547 178 547 173 536 c 1,32,33
 183 547 183 547 189 557.5 c 128,-1,34
 195 568 195 568 205 577 c 0,35,36
 210 582 210 582 218 587 c 128,-1,37
 226 592 226 592 232 597 c 1,38,39
 241 592 241 592 253.5 588 c 128,-1,40
 266 584 266 584 280 584 c 1,41,42
 285 570 285 570 293 557.5 c 128,-1,43
 301 545 301 545 306 526 c 1,44,-1
 306 463 l 1,45,46
 311 449 311 449 316 437.5 c 128,-1,47
 321 426 321 426 326 409 c 1,48,49
 340 389 340 389 351.5 372.5 c 128,-1,50
 363 356 363 356 380 336 c 1,51,52
 396 331 396 331 407.5 325 c 128,-1,53
 419 319 419 319 434 307 c 0,54,55
 438 307 438 307 446.5 304 c 128,-1,56
 455 301 455 301 460 301 c 1,57,58
 465 291 465 291 475 281.5 c 128,-1,59
 485 272 485 272 495 262 c 1,60,61
 500 267 500 267 501 268 c 128,-1,62
 502 269 502 269 507 269 c 1,63,64
 502 258 502 258 497.5 252 c 128,-1,65
 493 246 493 246 488 236 c 1,66,67
 493 217 493 217 497 196.5 c 128,-1,68
 501 176 501 176 501 161 c 1,69,70
 511 156 511 156 520 151 c 128,-1,71
 529 146 529 146 534 141 c 1,0,1
420 725 m 0,72,73
 493 725 493 725 558 697.5 c 128,-1,74
 623 670 623 670 671.5 622 c 128,-1,75
 720 574 720 574 748 509 c 128,-1,76
 776 444 776 444 776 369 c 0,77,78
 776 314 776 314 758 262 c 128,-1,79
 740 210 740 210 708.5 166.5 c 128,-1,80
 677 123 677 123 634 90.5 c 128,-1,81
 591 58 591 58 540 40 c 1,82,-1
 547 40 l 1,83,84
 562 55 562 55 581.5 70.5 c 128,-1,85
 601 86 601 86 616 104 c 1,86,87
 616 111 616 111 618.5 118 c 128,-1,88
 621 125 621 125 621 135 c 1,89,90
 626 135 626 135 631 139 c 128,-1,91
 636 143 636 143 641 148 c 0,92,93
 646 163 646 163 650.5 181.5 c 128,-1,94
 655 200 655 200 660 222 c 1,95,96
 655 222 655 222 650 226.5 c 128,-1,97
 645 231 645 231 635 236 c 1,98,99
 635 241 635 241 631.5 246.5 c 128,-1,100
 628 252 628 252 628 262 c 1,101,102
 623 267 623 267 614 275 c 128,-1,103
 605 283 605 283 596 288 c 1,104,105
 582 288 582 288 562 291 c 128,-1,106
 542 294 542 294 527 294 c 1,107,108
 522 289 522 289 520.5 284.5 c 128,-1,109
 519 280 519 280 514 275 c 0,110,111
 509 275 509 275 507.5 278.5 c 128,-1,112
 506 282 506 282 501 282 c 0,113,114
 496 287 496 287 495.5 294.5 c 128,-1,115
 495 302 495 302 495 307 c 1,116,-1
 460 307 l 1,117,118
 465 324 465 324 467.5 331 c 128,-1,119
 470 338 470 338 482 343 c 1,120,121
 470 348 470 348 464 349 c 128,-1,122
 458 350 458 350 453 350 c 0,123,124
 448 345 448 345 443 339.5 c 128,-1,125
 438 334 438 334 434 329 c 1,126,127
 428 334 428 334 426.5 339.5 c 128,-1,128
 425 345 425 345 420 350 c 1,129,130
 420 360 420 360 424 368.5 c 128,-1,131
 428 377 428 377 434 383 c 0,132,133
 443 387 443 387 457 387.5 c 128,-1,134
 471 388 471 388 488 388 c 1,135,136
 493 384 493 384 494.5 378 c 128,-1,137
 496 372 496 372 501 363 c 0,138,139
 503 364 503 364 505 366 c 0,140,141
 507 367 507 367 509 368 c 128,-1,142
 511 369 511 369 514 369 c 2,143,-1
 514 388 l 1,144,145
 519 404 519 404 528 419 c 128,-1,146
 537 434 537 434 547 444 c 0,147,148
 557 449 557 449 564.5 453.5 c 128,-1,149
 572 458 572 458 587 463 c 0,150,151
 598 468 598 468 608.5 472 c 128,-1,152
 619 476 619 476 628 476 c 1,153,154
 619 496 619 496 612 523 c 128,-1,155
 605 550 605 550 596 565 c 1,156,-1
 577 565 l 1,157,158
 569 569 569 569 563.5 578 c 128,-1,159
 558 587 558 587 553 597 c 1,160,-1
 527 597 l 1,161,-1
 527 545 l 1,162,-1
 514 545 l 1,163,164
 500 554 500 554 481.5 567 c 128,-1,165
 463 580 463 580 453 590 c 0,166,167
 453 595 453 595 456.5 599.5 c 128,-1,168
 460 604 460 604 460 609 c 1,169,170
 481 609 481 609 492.5 612.5 c 128,-1,171
 504 616 504 616 514 616 c 1,172,173
 514 629 514 629 513 641 c 128,-1,174
 512 653 512 653 507 658 c 1,175,-1
 387 658 l 1,176,177
 365 663 365 663 350.5 664.5 c 128,-1,178
 336 666 336 666 326 671 c 1,179,180
 316 666 316 666 309.5 664.5 c 128,-1,181
 303 663 303 663 293 658 c 1,182,183
 278 658 278 658 258.5 663 c 128,-1,184
 239 668 239 668 224 678 c 1,185,186
 272 702 272 702 317.5 713.5 c 128,-1,187
 363 725 363 725 420 725 c 0,72,73
EndSplineSet
Validated: 5
EndChar

StartChar: test
Encoding: 257 257 20
Width: 1027
Flags: W
LayerCount: 2
Fore
SplineSet
930 651 m 1,0,1
 949 602 949 602 930 570 c 1,2,-1
 421 54 l 1,3,4
 409 54 409 54 398 48 c 128,-1,5
 387 42 387 42 379 42 c 0,6,7
 373 42 373 42 362.5 48 c 128,-1,8
 352 54 352 54 341 54 c 1,9,-1
 117 296 l 1,10,11
 99 308 99 308 99 330 c 128,-1,12
 99 352 99 352 117 376 c 1,13,14
 164 402 164 402 201 376 c 1,15,-1
 379 183 l 1,16,-1
 846 651 l 1,17,18
 889 670 889 670 930 651 c 1,0,1
EndSplineSet
Validated: 33
EndChar

StartChar: truck
Encoding: 259 259 21
Width: 1086
Flags: W
LayerCount: 2
Fore
SplineSet
259 488 m 1,0,-1
 387 488 l 1,1,-1
 387 349 l 1,2,-1
 387 142 l 1,3,-1
 364 142 l 1,4,-1
 364 156 l 2,5,6
 364 196 364 196 337.5 223 c 128,-1,7
 311 250 311 250 274 250 c 0,8,9
 234 250 234 250 207 223 c 128,-1,10
 180 196 180 196 180 156 c 0,11,12
 180 152 180 152 181.5 149 c 128,-1,13
 183 146 183 146 183 142 c 1,14,-1
 90 142 l 1,15,-1
 90 156 l 1,16,-1
 69 156 l 2,17,18
 67 156 67 156 63.5 158 c 128,-1,19
 60 160 60 160 60 165 c 2,20,-1
 60 182 l 2,21,22
 60 187 60 187 63.5 189 c 128,-1,23
 67 191 67 191 69 191 c 2,24,-1
 90 191 l 1,25,-1
 90 325 l 1,26,-1
 165 363 l 1,27,-1
 259 488 l 1,0,-1
270 471 m 1,28,-1
 188 355 l 1,29,-1
 364 355 l 1,30,-1
 364 471 l 1,31,-1
 270 471 l 1,28,-1
990 596 m 2,32,33
 997 596 997 596 1001 591 c 128,-1,34
 1005 586 1005 586 1005 579 c 2,35,-1
 1005 282 l 1,36,-1
 405 282 l 1,37,-1
 405 579 l 2,38,39
 405 586 405 586 409 591 c 128,-1,40
 413 596 413 596 420 596 c 2,41,-1
 990 596 l 2,32,33
405 260 m 1,42,-1
 1005 260 l 1,43,-1
 1005 165 l 1,44,-1
 1005 147 l 1,45,-1
 990 147 l 1,46,-1
 950 147 l 1,47,-1
 950 156 l 2,48,49
 950 196 950 196 923.5 223 c 128,-1,50
 897 250 897 250 860 250 c 0,51,52
 820 250 820 250 793 223 c 128,-1,53
 766 196 766 196 766 156 c 2,54,-1
 766 147 l 1,55,-1
 420 147 l 1,56,-1
 405 147 l 1,57,-1
 405 165 l 1,58,-1
 405 260 l 1,42,-1
274 235 m 256,59,60
 307 235 307 235 329.5 212 c 128,-1,61
 352 189 352 189 352 156 c 0,62,63
 352 124 352 124 329.5 101 c 128,-1,64
 307 78 307 78 274 78 c 256,65,66
 241 78 241 78 218 101 c 128,-1,67
 195 124 195 124 195 156 c 0,68,69
 195 189 195 189 218 212 c 128,-1,70
 241 235 241 235 274 235 c 256,59,60
274 133 m 0,71,72
 282 133 282 133 289 140 c 128,-1,73
 296 147 296 147 296 156 c 0,74,75
 296 167 296 167 289 173 c 128,-1,76
 282 179 282 179 274 179 c 0,77,78
 250 179 250 179 250 156 c 0,79,80
 250 147 250 147 256.5 140 c 128,-1,81
 263 133 263 133 274 133 c 0,71,72
860 235 m 0,82,83
 892 235 892 235 915 212 c 128,-1,84
 938 189 938 189 938 156 c 0,85,86
 938 124 938 124 915 101 c 128,-1,87
 892 78 892 78 860 78 c 0,88,89
 827 78 827 78 803.5 101 c 128,-1,90
 780 124 780 124 780 156 c 0,91,92
 780 189 780 189 803.5 212 c 128,-1,93
 827 235 827 235 860 235 c 0,82,83
860 133 m 0,94,95
 868 133 868 133 875.5 140 c 128,-1,96
 883 147 883 147 883 156 c 0,97,98
 883 167 883 167 875.5 173 c 128,-1,99
 868 179 868 179 860 179 c 0,100,101
 836 179 836 179 836 156 c 0,102,103
 836 147 836 147 842 140 c 128,-1,104
 848 133 848 133 860 133 c 0,94,95
EndSplineSet
Validated: 1
EndChar

StartChar: clients
Encoding: 260 260 22
Width: 965
Flags: W
LayerCount: 2
Fore
SplineSet
414 344 m 1,0,-1
 419 344 l 2,1,2
 418 345 418 345 417 345.5 c 128,-1,3
 416 346 416 346 415 347 c 0,4,5
 398 363 398 363 383 385.5 c 128,-1,6
 368 408 368 408 357 433.5 c 128,-1,7
 346 459 346 459 339.5 486 c 128,-1,8
 333 513 333 513 333 538 c 0,9,10
 333 573 333 573 346 601.5 c 128,-1,11
 359 630 359 630 380.5 650.5 c 128,-1,12
 402 671 402 671 428.5 682 c 128,-1,13
 455 693 455 693 482 693 c 256,14,15
 509 693 509 693 535 681 c 128,-1,16
 561 669 561 669 582 648 c 128,-1,17
 603 627 603 627 615.5 597.5 c 128,-1,18
 628 568 628 568 628 534 c 0,19,20
 628 509 628 509 621 482.5 c 128,-1,21
 614 456 614 456 602 431 c 128,-1,22
 590 406 590 406 573.5 384 c 128,-1,23
 557 362 557 362 539 346 c 1,24,25
 543 332 543 332 555.5 322 c 128,-1,26
 568 312 568 312 590 303.5 c 128,-1,27
 612 295 612 295 643.5 286 c 128,-1,28
 675 277 675 277 717 265 c 0,29,30
 764 252 764 252 787.5 226.5 c 128,-1,31
 811 201 811 201 819.5 173.5 c 128,-1,32
 828 146 828 146 826 122 c 128,-1,33
 824 98 824 98 820 89 c 0,34,35
 817 81 817 81 787 75.5 c 128,-1,36
 757 70 757 70 710 65.5 c 128,-1,37
 663 61 663 61 603 58.5 c 128,-1,38
 543 56 543 56 481 55.5 c 128,-1,39
 419 55 419 55 359 57 c 128,-1,40
 299 59 299 59 252 63 c 128,-1,41
 205 67 205 67 175.5 73.5 c 128,-1,42
 146 80 146 80 144 89 c 0,43,44
 143 96 143 96 139.5 119.5 c 128,-1,45
 136 143 136 143 142 171 c 128,-1,46
 148 199 148 199 168.5 225.5 c 128,-1,47
 189 252 189 252 236 265 c 0,48,49
 319 288 319 288 362 303 c 128,-1,50
 405 318 405 318 414 344 c 1,0,-1
419 344 m 2,51,-1
 414 344 l 2,52,53
 414 346 414 346 415 347 c 1,54,55
 416 346 416 346 417 345.5 c 128,-1,56
 418 345 418 345 419 344 c 2,51,-1
233 280 m 2,57,-1
 255 286 l 2,58,59
 285 294 285 294 308.5 300.5 c 128,-1,60
 332 307 332 307 350 315 c 1,61,62
 322 325 322 325 317 344 c 1,63,64
 329 355 329 355 339.5 367 c 128,-1,65
 350 379 350 379 358 396 c 1,66,67
 340 430 340 430 329.5 466.5 c 128,-1,68
 319 503 319 503 319 538 c 0,69,70
 319 551 319 551 320.5 563 c 128,-1,71
 322 575 322 575 327 589 c 1,72,73
 303 603 303 603 274 603 c 0,74,75
 254 603 254 603 234 594.5 c 128,-1,76
 214 586 214 586 198.5 571 c 128,-1,77
 183 556 183 556 173.5 534.5 c 128,-1,78
 164 513 164 513 164 487 c 0,79,80
 164 468 164 468 168.5 447.5 c 128,-1,81
 173 427 173 427 181 408 c 128,-1,82
 189 389 189 389 200 372.5 c 128,-1,83
 211 356 211 356 224 345 c 0,84,85
 225 344 225 344 225 343.5 c 128,-1,86
 225 343 225 343 227 342 c 2,87,-1
 223 342 l 1,88,89
 216 322 216 322 184.5 311 c 128,-1,90
 153 300 153 300 90 283 c 0,91,92
 55 274 55 274 39.5 254 c 128,-1,93
 24 234 24 234 19.5 213 c 128,-1,94
 15 192 15 192 17.5 174 c 128,-1,95
 20 156 20 156 20 151 c 0,96,97
 22 143 22 143 50.5 137.5 c 128,-1,98
 79 132 79 132 124 130 c 1,99,100
 123 166 123 166 132.5 192 c 128,-1,101
 142 218 142 218 158 235.5 c 128,-1,102
 174 253 174 253 193.5 263.5 c 128,-1,103
 213 274 213 274 233 280 c 2,57,-1
729 280 m 2,104,-1
 708 286 l 2,105,106
 677 294 677 294 653.5 300.5 c 128,-1,107
 630 307 630 307 612 315 c 1,108,109
 640 325 640 325 645 344 c 1,110,111
 633 355 633 355 622.5 367 c 128,-1,112
 612 379 612 379 604 396 c 1,113,114
 622 430 622 430 633 466.5 c 128,-1,115
 644 503 644 503 644 538 c 0,116,117
 644 562 644 562 635 589 c 1,118,119
 659 603 659 603 687 603 c 0,120,121
 708 603 708 603 728 594.5 c 128,-1,122
 748 586 748 586 763.5 571 c 128,-1,123
 779 556 779 556 789 534.5 c 128,-1,124
 799 513 799 513 799 487 c 0,125,126
 799 468 799 468 794.5 447.5 c 128,-1,127
 790 427 790 427 781.5 408 c 128,-1,128
 773 389 773 389 762 372.5 c 128,-1,129
 751 356 751 356 738 345 c 0,130,131
 738 344 738 344 734 342 c 2,132,-1
 739 342 l 1,133,134
 745 322 745 322 777 311 c 128,-1,135
 809 300 809 300 872 283 c 0,136,137
 907 274 907 274 922.5 254 c 128,-1,138
 938 234 938 234 942.5 213 c 128,-1,139
 947 192 947 192 944.5 174 c 128,-1,140
 942 156 942 156 942 151 c 0,141,142
 940 143 940 143 911.5 137.5 c 128,-1,143
 883 132 883 132 838 130 c 1,144,145
 839 166 839 166 829.5 192 c 128,-1,146
 820 218 820 218 804.5 235.5 c 128,-1,147
 789 253 789 253 769 263.5 c 128,-1,148
 749 274 749 274 729 280 c 2,104,-1
EndSplineSet
Validated: 37
EndChar

StartChar: home
Encoding: 261 261 23
Width: 973
Flags: W
LayerCount: 2
Fore
SplineSet
482 718 m 1,0,-1
 874 321 l 1,1,-1
 790 321 l 1,2,-1
 790 37 l 1,3,-1
 174 37 l 1,4,-1
 174 321 l 1,5,-1
 89 321 l 1,6,-1
 482 718 l 1,0,-1
722 114 m 1,7,-1
 722 360 l 1,8,-1
 483 607 l 1,9,-1
 242 360 l 1,10,-1
 242 114 l 1,11,-1
 432 114 l 1,12,-1
 432 276 l 1,13,-1
 531 276 l 1,14,-1
 531 114 l 1,15,-1
 722 114 l 1,7,-1
EndSplineSet
Validated: 1
EndChar

StartChar: microweber
Encoding: 262 262 24
Width: 664
Flags: W
LayerCount: 2
Fore
SplineSet
41 434 m 1,0,-1
 64 434 l 1,1,-1
 70 379 l 1,2,-1
 100 434 l 1,3,-1
 123 434 l 1,4,-1
 107 358 l 1,5,-1
 91 358 l 1,6,-1
 105 419 l 1,7,-1
 73 358 l 1,8,-1
 60 358 l 1,9,-1
 52 419 l 1,10,-1
 41 358 l 1,11,-1
 25 358 l 1,12,-1
 41 434 l 1,0,-1
133 413 m 1,13,-1
 148 413 l 1,14,-1
 137 358 l 1,15,-1
 121 358 l 1,16,-1
 133 413 l 1,13,-1
150 422 m 1,17,-1
 135 422 l 1,18,-1
 138 434 l 1,19,-1
 153 434 l 1,20,-1
 150 422 l 1,17,-1
192 394 m 1,21,22
 192 403 192 403 182 403 c 0,23,24
 174 403 174 403 170.5 395 c 128,-1,25
 167 387 167 387 167 380 c 0,26,27
 167 368 167 368 177 368 c 256,28,29
 187 368 187 368 189 378 c 1,30,-1
 205 378 l 1,31,32
 197 356 197 356 176 356 c 0,33,34
 151 356 151 356 151 380 c 0,35,36
 151 394 151 394 159.5 404.5 c 128,-1,37
 168 415 168 415 183 415 c 0,38,39
 193 415 193 415 200 410 c 128,-1,40
 207 405 207 405 208 394 c 1,41,-1
 192 394 l 1,21,22
220 413 m 1,42,-1
 235 413 l 1,43,-1
 233 403 l 2,44,45
 235 409 235 409 240.5 412 c 128,-1,46
 246 415 246 415 252 415 c 0,47,48
 255 415 255 415 257 414 c 2,49,-1
 253 400 l 2,50,51
 251 400 251 400 250 400.5 c 128,-1,52
 249 401 249 401 247 401 c 0,53,54
 238 401 238 401 234.5 395.5 c 128,-1,55
 231 390 231 390 229 382 c 2,56,-1
 224 358 l 1,57,-1
 209 358 l 1,58,-1
 220 413 l 1,42,-1
285 415 m 0,59,60
 296 415 296 415 303.5 409 c 128,-1,61
 311 403 311 403 311 391 c 0,62,63
 311 377 311 377 302 366.5 c 128,-1,64
 293 356 293 356 278 356 c 0,65,66
 253 356 253 356 253 380 c 0,67,68
 253 394 253 394 261.5 404.5 c 128,-1,69
 270 415 270 415 285 415 c 0,59,60
279 368 m 0,70,71
 287 368 287 368 291 376 c 128,-1,72
 295 384 295 384 295 391 c 0,73,74
 295 403 295 403 284 403 c 0,75,76
 276 403 276 403 272 395.5 c 128,-1,77
 268 388 268 388 268 380 c 0,78,79
 268 375 268 375 271 371.5 c 128,-1,80
 274 368 274 368 279 368 c 0,70,71
376 358 m 1,81,-1
 360 358 l 1,82,-1
 358 397 l 1,83,-1
 341 358 l 1,84,-1
 325 358 l 1,85,-1
 319 413 l 1,86,-1
 334 413 l 1,87,-1
 336 374 l 1,88,-1
 337 374 l 1,89,-1
 354 413 l 1,90,-1
 369 413 l 1,91,-1
 371 375 l 1,92,-1
 389 413 l 1,93,-1
 405 413 l 1,94,-1
 376 358 l 1,81,-1
419 382 m 1,95,-1
 419 379 l 2,96,97
 419 368 419 368 431 368 c 0,98,99
 436 368 436 368 438 370.5 c 128,-1,100
 440 373 440 373 442 375 c 2,101,-1
 457 375 l 1,102,103
 451 356 451 356 429 356 c 0,104,105
 404 356 404 356 404 381 c 0,106,107
 404 394 404 394 412.5 404.5 c 128,-1,108
 421 415 421 415 435 415 c 0,109,110
 460 415 460 415 460 391 c 2,111,-1
 460 382 l 1,112,-1
 419 382 l 1,95,-1
446 392 m 1,113,114
 446 396 446 396 444 399.5 c 128,-1,115
 442 403 442 403 435 403 c 0,116,117
 425 403 425 403 420 392 c 1,118,-1
 446 392 l 1,113,114
479 434 m 1,119,-1
 495 434 l 1,120,-1
 489 407 l 1,121,122
 496 415 496 415 505 415 c 0,123,124
 516 415 516 415 520.5 408 c 128,-1,125
 525 401 525 401 525 391 c 0,126,127
 525 378 525 378 518 367 c 128,-1,128
 511 356 511 356 497 356 c 256,129,130
 483 356 483 356 479 367 c 1,131,-1
 477 358 l 1,132,-1
 463 358 l 1,133,-1
 479 434 l 1,119,-1
483 379 m 0,134,135
 483 368 483 368 494 368 c 0,136,137
 502 368 502 368 506 375.5 c 128,-1,138
 510 383 510 383 510 391 c 0,139,140
 510 403 510 403 499 403 c 0,141,142
 490 403 490 403 486.5 395 c 128,-1,143
 483 387 483 387 483 379 c 0,134,135
546 382 m 1,144,-1
 546 379 l 2,145,146
 546 368 546 368 558 368 c 0,147,148
 563 368 563 368 565 370.5 c 128,-1,149
 567 373 567 373 569 375 c 2,150,-1
 585 375 l 1,151,152
 581 366 581 366 574.5 361 c 128,-1,153
 568 356 568 356 556 356 c 0,154,155
 531 356 531 356 531 381 c 0,156,157
 531 394 531 394 539.5 404.5 c 128,-1,158
 548 415 548 415 562 415 c 0,159,160
 573 415 573 415 580.5 409 c 128,-1,161
 588 403 588 403 588 391 c 0,162,163
 588 389 588 389 587.5 386.5 c 128,-1,164
 587 384 587 384 587 382 c 2,165,-1
 546 382 l 1,144,-1
573 392 m 1,166,167
 573 396 573 396 571.5 399.5 c 128,-1,168
 570 403 570 403 563 403 c 0,169,170
 552 403 552 403 547 392 c 1,171,-1
 573 392 l 1,166,167
602 413 m 1,172,-1
 616 413 l 1,173,-1
 614 403 l 2,174,175
 620 415 620 415 634 415 c 0,176,177
 637 415 637 415 638 414 c 2,178,-1
 635 400 l 2,179,180
 633 400 633 400 632 400.5 c 128,-1,181
 631 401 631 401 629 401 c 0,182,183
 620 401 620 401 616.5 395.5 c 128,-1,184
 613 390 613 390 611 382 c 2,185,-1
 606 358 l 1,186,-1
 590 358 l 1,187,-1
 602 413 l 1,172,-1
EndSplineSet
Validated: 1
EndChar

StartChar: b
Encoding: 98 98 25
Width: 833
Flags: W
LayerCount: 2
Fore
SplineSet
345 408 m 1,0,1
 412 495 412 495 483 495 c 0,2,3
 518 495 518 495 548.5 480.5 c 128,-1,4
 579 466 579 466 604 437 c 0,5,6
 655 380 655 380 655 278 c 0,7,8
 655 159 655 159 574 87 c 0,9,10
 542 55 542 55 504.5 40 c 128,-1,11
 467 25 467 25 426 25 c 0,12,13
 406 25 406 25 386.5 28 c 128,-1,14
 367 31 367 31 347 39 c 0,15,16
 327 46 327 46 306 56 c 128,-1,17
 285 66 285 66 264 81 c 1,18,-1
 264 541 l 2,19,20
 264 579 264 579 263.5 602 c 128,-1,21
 263 625 263 625 260 634 c 0,22,23
 260 645 260 645 256.5 650 c 128,-1,24
 253 655 253 655 250 657 c 0,25,26
 245 662 245 662 240.5 663 c 128,-1,27
 236 664 236 664 231 664 c 0,28,29
 223 664 223 664 215 661.5 c 128,-1,30
 207 659 207 659 195 657 c 1,31,-1
 189 673 l 1,32,-1
 321 729 l 1,33,-1
 345 729 l 1,34,-1
 345 408 l 1,0,1
345 375 m 1,35,-1
 345 110 l 1,36,37
 357 97 357 97 370.5 88 c 128,-1,38
 384 79 384 79 396 71 c 0,39,40
 411 66 411 66 424 63.5 c 128,-1,41
 437 61 437 61 451 61 c 0,42,43
 495 61 495 61 532 110 c 0,44,45
 571 158 571 158 571 249 c 0,46,47
 571 294 571 294 561.5 325.5 c 128,-1,48
 552 357 552 357 532 381 c 0,49,50
 494 427 494 427 444 427 c 0,51,52
 432 427 432 427 420 424.5 c 128,-1,53
 408 422 408 422 396 414 c 0,54,55
 386 409 386 409 372.5 399.5 c 128,-1,56
 359 390 359 390 345 375 c 1,35,-1
EndSplineSet
Validated: 1
EndChar

StartChar: back
Encoding: 263 263 26
Width: 697
Flags: W
LayerCount: 2
Fore
SplineSet
348 26 m 0,0,1
 282 26 282 26 222 52.5 c 128,-1,2
 162 79 162 79 117 124 c 128,-1,3
 72 169 72 169 45.5 229 c 128,-1,4
 19 289 19 289 19 355 c 0,5,6
 19 424 19 424 45.5 484 c 128,-1,7
 72 544 72 544 117 588.5 c 128,-1,8
 162 633 162 633 222 658.5 c 128,-1,9
 282 684 282 684 348 684 c 0,10,11
 417 684 417 684 477 658.5 c 128,-1,12
 537 633 537 633 581.5 588.5 c 128,-1,13
 626 544 626 544 651.5 484 c 128,-1,14
 677 424 677 424 677 355 c 0,15,16
 677 289 677 289 651.5 229 c 128,-1,17
 626 169 626 169 581.5 124 c 128,-1,18
 537 79 537 79 477 52.5 c 128,-1,19
 417 26 417 26 348 26 c 0,0,1
348 651 m 0,20,21
 289 651 289 651 236.5 628 c 128,-1,22
 184 605 184 605 145 564.5 c 128,-1,23
 106 524 106 524 83 470 c 128,-1,24
 60 416 60 416 60 355 c 0,25,26
 60 296 60 296 83 243.5 c 128,-1,27
 106 191 106 191 145 152 c 128,-1,28
 184 113 184 113 236.5 90 c 128,-1,29
 289 67 289 67 348 67 c 0,30,31
 409 67 409 67 463 90 c 128,-1,32
 517 113 517 113 557.5 152 c 128,-1,33
 598 191 598 191 621 243.5 c 128,-1,34
 644 296 644 296 644 355 c 0,35,36
 644 416 644 416 621 470 c 128,-1,37
 598 524 598 524 557.5 564.5 c 128,-1,38
 517 605 517 605 463 628 c 128,-1,39
 409 651 409 651 348 651 c 0,20,21
230 341 m 1,40,41
 225 352 225 352 225 357 c 128,-1,42
 225 362 225 362 230 369 c 2,43,-1
 387 525 l 2,44,45
 387 530 387 530 391 530.5 c 128,-1,46
 395 531 395 531 401 531 c 0,47,48
 402 531 402 531 404 530 c 256,49,50
 406 529 406 529 408 528 c 128,-1,51
 410 527 410 527 413 525 c 0,52,53
 418 520 418 520 418 512 c 128,-1,54
 418 504 418 504 413 499 c 2,55,-1
 271 355 l 1,56,-1
 413 218 l 2,57,58
 418 213 418 213 418 204.5 c 128,-1,59
 418 196 418 196 413 191 c 256,60,61
 408 186 408 186 400 186 c 128,-1,62
 392 186 392 186 387 191 c 2,63,-1
 230 341 l 1,40,41
EndSplineSet
Validated: 1
EndChar

StartChar: menu
Encoding: 264 264 27
Width: 770
Flags: W
LayerCount: 2
Fore
SplineSet
680 408 m 2,0,1
 695 408 695 408 706 397 c 128,-1,2
 717 386 717 386 717 371 c 0,3,4
 717 357 717 357 706 346 c 128,-1,5
 695 335 695 335 680 335 c 2,6,-1
 87 335 l 2,7,8
 72 335 72 335 61 346 c 128,-1,9
 50 357 50 357 50 371 c 0,10,11
 50 386 50 386 61 397 c 128,-1,12
 72 408 72 408 87 408 c 2,13,-1
 680 408 l 2,0,1
680 185 m 2,14,15
 695 185 695 185 706 174.5 c 128,-1,16
 717 164 717 164 717 148 c 0,17,18
 717 134 717 134 706 123.5 c 128,-1,19
 695 113 695 113 680 113 c 2,20,-1
 87 113 l 2,21,22
 72 113 72 113 61 123.5 c 128,-1,23
 50 134 50 134 50 148 c 0,24,25
 50 164 50 164 61 174.5 c 128,-1,26
 72 185 72 185 87 185 c 2,27,-1
 680 185 l 2,14,15
87 558 m 2,28,29
 72 558 72 558 61 568 c 128,-1,30
 50 578 50 578 50 594 c 0,31,32
 50 608 50 608 61 619 c 128,-1,33
 72 630 72 630 87 630 c 2,34,-1
 680 630 l 2,35,36
 695 630 695 630 706 619 c 128,-1,37
 717 608 717 608 717 594 c 0,38,39
 717 578 717 578 706 568 c 128,-1,40
 695 558 695 558 680 558 c 2,41,-1
 87 558 l 2,28,29
EndSplineSet
Validated: 1
EndChar

StartChar: image
Encoding: 265 265 28
Width: 1021
Flags: W
LayerCount: 2
Fore
SplineSet
983 45 m 1,0,-1
 46 45 l 1,1,-1
 281 357 l 1,2,-1
 515 202 l 1,3,-1
 748 512 l 1,4,-1
 983 45 l 1,0,-1
281 474 m 256,5,6
 257 474 257 474 235.5 483 c 128,-1,7
 214 492 214 492 198 508 c 128,-1,8
 182 524 182 524 173 545.5 c 128,-1,9
 164 567 164 567 164 592 c 0,10,11
 164 616 164 616 173 637 c 128,-1,12
 182 658 182 658 198 673.5 c 128,-1,13
 214 689 214 689 235.5 698.5 c 128,-1,14
 257 708 257 708 281 708 c 256,15,16
 305 708 305 708 326 698.5 c 128,-1,17
 347 689 347 689 363 673.5 c 128,-1,18
 379 658 379 658 388 637 c 128,-1,19
 397 616 397 616 397 592 c 0,20,21
 397 567 397 567 388 545.5 c 128,-1,22
 379 524 379 524 363 508 c 128,-1,23
 347 492 347 492 326 483 c 128,-1,24
 305 474 305 474 281 474 c 256,5,6
EndSplineSet
Validated: 1
EndChar

StartChar: comment
Encoding: 272 272 29
Width: 870
Flags: W
LayerCount: 2
Fore
SplineSet
42 556 m 1,0,1
 42 579 42 579 50.5 599 c 128,-1,2
 59 619 59 619 73 633.5 c 128,-1,3
 87 648 87 648 106 656.5 c 128,-1,4
 125 665 125 665 146 665 c 2,5,-1
 721 665 l 2,6,7
 742 665 742 665 760.5 656.5 c 128,-1,8
 779 648 779 648 793.5 633.5 c 128,-1,9
 808 619 808 619 816.5 599 c 128,-1,10
 825 579 825 579 825 556 c 2,11,-1
 825 268 l 2,12,13
 825 246 825 246 816.5 226.5 c 128,-1,14
 808 207 808 207 793.5 192 c 128,-1,15
 779 177 779 177 760.5 168 c 128,-1,16
 742 159 742 159 721 159 c 2,17,-1
 548 159 l 1,18,-1
 548 32 l 2,19,20
 548 27 548 27 543 24 c 128,-1,21
 538 21 538 21 534 26 c 0,22,23
 507 58 507 58 477.5 92.5 c 128,-1,24
 448 127 448 127 421 159 c 1,25,-1
 146 159 l 2,26,27
 125 159 125 159 106 168 c 128,-1,28
 87 177 87 177 73 192 c 128,-1,29
 59 207 59 207 50.5 226.5 c 128,-1,30
 42 246 42 246 42 268 c 2,31,-1
 42 556 l 1,32,-1
 42 556 l 1,0,1
EndSplineSet
Validated: 5
EndChar

StartChar: close
Encoding: 273 273 30
Width: 902
Flags: W
LayerCount: 2
Fore
SplineSet
785 157 m 1,0,-1
 659 35 l 1,1,-1
 102 594 l 1,2,-1
 226 716 l 1,3,-1
 785 157 l 1,4,-1
 785 157 l 1,0,-1
659 716 m 1,5,-1
 785 594 l 1,6,-1
 226 35 l 1,7,-1
 102 157 l 1,8,-1
 659 716 l 1,9,-1
 659 716 l 1,5,-1
EndSplineSet
Validated: 5
EndChar

StartChar: product
Encoding: 274 274 31
Width: 730
Flags: W
LayerCount: 2
Fore
SplineSet
55 572 m 2,0,1
 58 574 58 574 61 575.5 c 128,-1,2
 64 577 64 577 66 579 c 2,3,-1
 322 696 l 2,4,5
 342 707 342 707 369 707 c 128,-1,6
 396 707 396 707 414 696 c 2,7,-1
 670 579 l 2,8,9
 677 576 677 576 681 572 c 1,10,-1
 506 489 l 1,11,-1
 399 439 l 2,12,13
 386 433 386 433 368 433 c 128,-1,14
 350 433 350 433 337 439 c 2,15,-1
 211 497 l 1,16,-1
 55 572 l 2,0,1
339 203 m 1,17,-1
 337 45 l 1,18,19
 333 47 333 47 330 48 c 2,20,-1
 73 167 l 2,21,22
 54 175 54 175 41.5 196.5 c 128,-1,23
 29 218 29 218 29 238 c 2,24,-1
 29 539 l 1,25,-1
 115 499 l 1,26,-1
 115 498 l 1,27,-1
 309 409 l 2,28,29
 322 404 322 404 330.5 390 c 128,-1,30
 339 376 339 376 339 362 c 2,31,-1
 339 203 l 1,17,-1
699 239 m 2,32,33
 699 218 699 218 686 197 c 128,-1,34
 673 176 673 176 655 168 c 2,35,-1
 398 49 l 2,36,37
 395 47 395 47 393 46.5 c 128,-1,38
 391 46 391 46 389 45 c 2,39,-1
 390 232 l 1,40,-1
 389 232 l 1,41,-1
 389 363 l 2,42,43
 389 377 389 377 397.5 390.5 c 128,-1,44
 406 404 406 404 419 409 c 2,45,-1
 612 499 l 1,46,47
 612 499 612 499 613 500 c 2,48,-1
 699 540 l 1,49,-1
 699 239 l 2,32,33
606 225 m 0,50,51
 619 241 619 241 619 259 c 0,52,53
 620 270 620 270 616.5 277.5 c 128,-1,54
 613 285 613 285 608 292 c 0,55,56
 596 306 596 306 571 314 c 0,57,58
 562 316 562 316 555.5 319.5 c 128,-1,59
 549 323 549 323 544 326 c 0,60,61
 536 332 536 332 536 338 c 0,62,63
 536 345 536 345 542 350 c 0,64,65
 546 354 546 354 561 354 c 0,66,67
 569 354 569 354 576 353 c 128,-1,68
 583 352 583 352 588 351 c 0,69,70
 598 348 598 348 603 345 c 1,71,-1
 612 377 l 1,72,73
 608 379 608 379 604 380.5 c 128,-1,74
 600 382 600 382 595 384 c 0,75,76
 584 387 584 387 571 387 c 1,77,-1
 571 411 l 1,78,-1
 543 411 l 1,79,-1
 543 386 l 1,80,81
 530 383 530 383 521 378 c 128,-1,82
 512 373 512 373 506 368 c 0,83,84
 500 360 500 360 496.5 352 c 128,-1,85
 493 344 493 344 493 333 c 256,86,87
 493 322 493 322 497 314.5 c 128,-1,88
 501 307 501 307 507 300 c 0,89,90
 515 294 515 294 523.5 289 c 128,-1,91
 532 284 532 284 544 280 c 0,92,93
 560 275 560 275 568 269 c 0,94,95
 577 263 577 263 577 255 c 256,96,97
 577 247 577 247 568 242 c 0,98,99
 558 237 558 237 546 237 c 0,100,101
 530 237 530 237 521 241 c 0,102,103
 515 243 515 243 510 245.5 c 128,-1,104
 505 248 505 248 500 250 c 1,105,-1
 492 216 l 1,106,107
 496 214 496 214 501 212 c 128,-1,108
 506 210 506 210 512 208 c 256,109,110
 518 206 518 206 524.5 205.5 c 128,-1,111
 531 205 531 205 539 204 c 1,112,-1
 539 178 l 1,113,-1
 567 178 l 1,114,-1
 567 206 l 1,115,116
 593 212 593 212 606 225 c 0,50,51
EndSplineSet
Validated: 1
EndChar

StartChar: checkbox
Encoding: 275 275 32
Width: 761
Flags: W
LayerCount: 2
Fore
SplineSet
736 24 m 1,0,-1
 25 24 l 1,1,-1
 25 735 l 1,2,-1
 736 735 l 1,3,-1
 736 24 l 1,0,-1
701 700 m 1,4,-1
 62 700 l 1,5,-1
 62 61 l 1,6,-1
 701 61 l 1,7,-1
 701 700 l 1,4,-1
EndSplineSet
Validated: 1
EndChar

StartChar: checkboxchecked
Encoding: 276 276 34
Width: 761
Flags: W
LayerCount: 2
Fore
SplineSet
736 24 m 1,0,-1
 25 24 l 1,1,-1
 25 735 l 1,2,-1
 736 735 l 1,3,-1
 736 24 l 1,0,-1
579 525 m 0,4,5
 570 530 570 530 559 530 c 128,-1,6
 548 530 548 530 542 525 c 2,7,-1
 312 297 l 1,8,-1
 219 385 l 2,9,10
 213 396 213 396 201.5 396 c 128,-1,11
 190 396 190 396 181 385 c 0,12,13
 174 380 174 380 174 368.5 c 128,-1,14
 174 357 174 357 181 347 c 2,15,-1
 295 239 l 2,16,17
 297 235 297 235 302 232.5 c 128,-1,18
 307 230 307 230 312 230 c 0,19,20
 325 230 325 230 332 239 c 2,21,-1
 579 486 l 2,22,23
 587 493 587 493 587 504 c 128,-1,24
 587 515 587 515 579 525 c 0,4,5
EndSplineSet
Validated: 1
EndChar

StartChar: radio
Encoding: 277 277 35
Width: 762
Flags: W
LayerCount: 2
Fore
SplineSet
25 378 m 256,0,1
 25 451 25 451 53 516 c 128,-1,2
 81 581 81 581 129.5 629.5 c 128,-1,3
 178 678 178 678 243 706.5 c 128,-1,4
 308 735 308 735 381 735 c 256,5,6
 454 735 454 735 518.5 706.5 c 128,-1,7
 583 678 583 678 631 629.5 c 128,-1,8
 679 581 679 581 707 516 c 128,-1,9
 735 451 735 451 735 378 c 256,10,11
 735 305 735 305 707 240.5 c 128,-1,12
 679 176 679 176 630.5 128 c 128,-1,13
 582 80 582 80 517 52 c 128,-1,14
 452 24 452 24 379 24 c 256,15,16
 306 24 306 24 241.5 52 c 128,-1,17
 177 80 177 80 129 128 c 128,-1,18
 81 176 81 176 53 240.5 c 128,-1,19
 25 305 25 305 25 378 c 256,0,1
60 378 m 256,20,21
 60 312 60 312 85 254.5 c 128,-1,22
 110 197 110 197 153.5 153.5 c 128,-1,23
 197 110 197 110 255 85 c 128,-1,24
 313 60 313 60 379 60 c 256,25,26
 445 60 445 60 503 85 c 128,-1,27
 561 110 561 110 604.5 153.5 c 128,-1,28
 648 197 648 197 673.5 254.5 c 128,-1,29
 699 312 699 312 699 378 c 256,30,31
 699 444 699 444 674 502.5 c 128,-1,32
 649 561 649 561 605.5 604.5 c 128,-1,33
 562 648 562 648 504.5 673.5 c 128,-1,34
 447 699 447 699 381 699 c 256,35,36
 315 699 315 699 256.5 673.5 c 128,-1,37
 198 648 198 648 154.5 604.5 c 128,-1,38
 111 561 111 561 85.5 502.5 c 128,-1,39
 60 444 60 444 60 378 c 256,20,21
EndSplineSet
Validated: 1
EndChar

StartChar: radiochecked
Encoding: 278 278 37
Width: 760
Flags: W
LayerCount: 2
Fore
SplineSet
25 378 m 256,0,1
 25 451 25 451 53 516 c 128,-1,2
 81 581 81 581 129.5 629.5 c 128,-1,3
 178 678 178 678 243 706.5 c 128,-1,4
 308 735 308 735 381 735 c 256,5,6
 454 735 454 735 518.5 706.5 c 128,-1,7
 583 678 583 678 631 629.5 c 128,-1,8
 679 581 679 581 707 516 c 128,-1,9
 735 451 735 451 735 378 c 256,10,11
 735 305 735 305 707 240.5 c 128,-1,12
 679 176 679 176 630.5 128 c 128,-1,13
 582 80 582 80 517 52 c 128,-1,14
 452 24 452 24 379 24 c 256,15,16
 306 24 306 24 241.5 52 c 128,-1,17
 177 80 177 80 129 128 c 128,-1,18
 81 176 81 176 53 240.5 c 128,-1,19
 25 305 25 305 25 378 c 256,0,1
244 379 m 256,20,21
 244 442 244 442 280.5 478.5 c 128,-1,22
 317 515 317 515 380 515 c 256,23,24
 443 515 443 515 479 478.5 c 128,-1,25
 515 442 515 442 515 379 c 256,26,27
 515 316 515 316 478.5 280 c 128,-1,28
 442 244 442 244 379 244 c 0,29,30
 317 244 317 244 280.5 280 c 128,-1,31
 244 316 244 316 244 379 c 256,20,21
57 378 m 256,32,33
 57 312 57 312 82.5 253.5 c 128,-1,34
 108 195 108 195 152 151 c 128,-1,35
 196 107 196 107 254.5 81.5 c 128,-1,36
 313 56 313 56 379 56 c 256,37,38
 445 56 445 56 503.5 81.5 c 128,-1,39
 562 107 562 107 606.5 151 c 128,-1,40
 651 195 651 195 677 253.5 c 128,-1,41
 703 312 703 312 703 378 c 256,42,43
 703 444 703 444 677.5 503 c 128,-1,44
 652 562 652 562 608 606.5 c 128,-1,45
 564 651 564 651 505.5 677 c 128,-1,46
 447 703 447 703 381 703 c 256,47,48
 315 703 315 703 256.5 677 c 128,-1,49
 198 651 198 651 153.5 606.5 c 128,-1,50
 109 562 109 562 83 503 c 128,-1,51
 57 444 57 444 57 378 c 256,32,33
EndSplineSet
Validated: 1
EndChar

StartChar: upload
Encoding: 279 279 38
Width: 807
Flags: W
LayerCount: 2
Fore
SplineSet
745 660 m 2,0,1
 745 640 745 640 737 632.5 c 128,-1,2
 729 625 729 625 709 625 c 2,3,-1
 99 625 l 2,4,5
 78 625 78 625 70.5 632.5 c 128,-1,6
 63 640 63 640 63 660 c 2,7,-1
 63 678 l 2,8,9
 63 698 63 698 70.5 706 c 128,-1,10
 78 714 78 714 99 714 c 2,11,-1
 709 714 l 2,12,13
 736 714 736 714 740.5 706 c 128,-1,14
 745 698 745 698 745 678 c 2,15,-1
 745 660 l 2,0,1
331 32 m 2,16,17
 299 32 299 32 288.5 41.5 c 128,-1,18
 278 51 278 51 278 85 c 2,19,-1
 278 283 l 1,20,-1
 99 283 l 1,21,-1
 404 589 l 1,22,-1
 709 283 l 1,23,-1
 530 283 l 1,24,-1
 530 85 l 2,25,26
 530 51 530 51 519.5 41.5 c 128,-1,27
 509 32 509 32 476 32 c 2,28,-1
 331 32 l 2,16,17
EndSplineSet
Validated: 1
EndChar

StartChar: p
Encoding: 112 112 39
Width: 833
Flags: W
LayerCount: 2
Fore
SplineSet
679 490 m 1,0,-1
 679 15 l 1,1,-1
 143 15 l 1,2,-1
 143 723 l 1,3,-1
 440 723 l 1,4,-1
 440 723 l 1,5,-1
 440 507 l 1,6,-1
 679 507 l 1,7,-1
 679 490 l 1,0,-1
501 723 m 1,8,-1
 685 562 l 1,9,-1
 501 562 l 1,10,-1
 501 723 l 1,8,-1
EndSplineSet
Validated: 5
EndChar

StartChar: arrowdown
Encoding: 280 280 40
Width: 823
Flags: W
LayerCount: 2
Fore
SplineSet
149 540 m 1,0,-1
 680 540 l 1,1,-1
 414 179 l 1,2,-1
 149 540 l 1,3,-1
 149 540 l 1,0,-1
EndSplineSet
Validated: 5
EndChar

StartChar: pricefields
Encoding: 281 281 41
Width: 1023
Flags: W
LayerCount: 2
Fore
SplineSet
574 403 m 1,0,-1
 802 403 l 1,1,-1
 687 254 l 1,2,-1
 574 403 l 1,0,-1
995 658 m 1,3,-1
 995 31 l 1,4,-1
 46 31 l 1,5,-1
 46 76 l 1,6,-1
 90 76 l 1,7,-1
 949 75 l 1,8,-1
 949 613 l 1,9,-1
 457 614 l 1,10,-1
 457 657 l 1,11,-1
 995 658 l 1,3,-1
143 140 m 1,12,-1
 143 208 l 1,13,14
 108 209 108 209 74 219 c 0,15,16
 60 224 60 224 47.5 227 c 128,-1,17
 35 230 35 230 26 236 c 1,18,-1
 47 321 l 1,19,20
 58 314 58 314 69.5 308.5 c 128,-1,21
 81 303 81 303 97 298 c 0,22,23
 127 289 127 289 162 289 c 0,24,25
 190 289 190 289 213 301 c 0,26,27
 233 313 233 313 235 331 c 0,28,29
 235 352 235 352 214 367 c 0,30,31
 203 375 203 375 188 381.5 c 128,-1,32
 173 388 173 388 155 395 c 0,33,34
 94 415 94 415 65 443 c 0,35,36
 32 474 32 474 30 524 c 0,37,38
 30 573 30 573 62 608 c 0,39,40
 90 639 90 639 151 651 c 1,41,-1
 151 718 l 1,42,-1
 219 718 l 1,43,-1
 219 656 l 1,44,45
 254 655 254 655 277 648 c 0,46,47
 290 644 290 644 301 640.5 c 128,-1,48
 312 637 312 637 321 632 c 1,49,-1
 299 553 l 1,50,51
 293 556 293 556 283.5 560 c 128,-1,52
 274 564 274 564 263 569 c 0,53,54
 237 578 237 578 195 578 c 0,55,56
 177 578 177 578 166.5 574.5 c 128,-1,57
 156 571 156 571 149 565 c 0,58,59
 135 554 135 554 135 536 c 0,60,61
 135 521 135 521 156 508 c 0,62,63
 173 494 173 494 222 477 c 0,64,65
 254 466 254 466 276 452 c 128,-1,66
 298 438 298 438 312 424 c 0,67,68
 340 392 340 392 340 341 c 0,69,70
 340 294 340 294 307 258 c 0,71,72
 276 224 276 224 212 214 c 1,73,-1
 212 140 l 1,74,-1
 143 140 l 1,12,-1
EndSplineSet
Validated: 1
EndChar

StartChar: unpublish
Encoding: 288 288 42
Width: 757
Flags: W
LayerCount: 2
Fore
SplineSet
378 709 m 256,0,1
 447 709 447 709 508 682.5 c 128,-1,2
 569 656 569 656 614 611 c 128,-1,3
 659 566 659 566 685.5 505 c 128,-1,4
 712 444 712 444 712 375 c 256,5,6
 712 306 712 306 685.5 245 c 128,-1,7
 659 184 659 184 614 138.5 c 128,-1,8
 569 93 569 93 508 67 c 128,-1,9
 447 41 447 41 378 41 c 256,10,11
 309 41 309 41 248 67 c 128,-1,12
 187 93 187 93 141.5 138.5 c 128,-1,13
 96 184 96 184 69.5 245 c 128,-1,14
 43 306 43 306 43 375 c 256,15,16
 43 444 43 444 69.5 505 c 128,-1,17
 96 566 96 566 141.5 611 c 128,-1,18
 187 656 187 656 248 682.5 c 128,-1,19
 309 709 309 709 378 709 c 256,0,1
544 416 m 1,20,-1
 211 416 l 1,21,-1
 211 334 l 1,22,-1
 544 334 l 1,23,-1
 544 416 l 1,20,-1
EndSplineSet
Validated: 1
EndChar

StartChar: download
Encoding: 289 289 43
Width: 815
Flags: W
LayerCount: 2
Fore
SplineSet
63 86 m 2,0,1
 63 106 63 106 71 113.5 c 128,-1,2
 79 121 79 121 99 121 c 2,3,-1
 709 121 l 2,4,5
 730 121 730 121 737.5 113.5 c 128,-1,6
 745 106 745 106 745 86 c 2,7,-1
 745 68 l 2,8,9
 745 48 745 48 737.5 40 c 128,-1,10
 730 32 730 32 709 32 c 2,11,-1
 99 32 l 2,12,13
 72 32 72 32 67.5 40 c 128,-1,14
 63 48 63 48 63 68 c 2,15,-1
 63 86 l 2,0,1
477 714 m 2,16,17
 509 714 509 714 519.5 704.5 c 128,-1,18
 530 695 530 695 530 661 c 2,19,-1
 530 463 l 1,20,-1
 709 463 l 1,21,-1
 404 157 l 1,22,-1
 99 463 l 1,23,-1
 278 463 l 1,24,-1
 278 661 l 2,25,26
 278 695 278 695 288.5 704.5 c 128,-1,27
 299 714 299 714 332 714 c 2,28,-1
 477 714 l 2,16,17
EndSplineSet
Validated: 1
EndChar

StartChar: reload
Encoding: 290 290 44
Width: 859
Flags: W
LayerCount: 2
Fore
SplineSet
489 696 m 256,0,1
 555 696 555 696 614.5 670.5 c 128,-1,2
 674 645 674 645 719 601 c 128,-1,3
 764 557 764 557 790.5 497 c 128,-1,4
 817 437 817 437 817 368 c 0,5,6
 817 302 817 302 790.5 243.5 c 128,-1,7
 764 185 764 185 719 141.5 c 128,-1,8
 674 98 674 98 614.5 73 c 128,-1,9
 555 48 555 48 489 48 c 2,10,-1
 361 48 l 1,11,-1
 361 144 l 1,12,-1
 489 144 l 2,13,14
 534 144 534 144 574.5 162 c 128,-1,15
 615 180 615 180 646 211 c 128,-1,16
 677 242 677 242 695 282.5 c 128,-1,17
 713 323 713 323 713 368 c 0,18,19
 713 416 713 416 695 458 c 128,-1,20
 677 500 677 500 646 531.5 c 128,-1,21
 615 563 615 563 574.5 581.5 c 128,-1,22
 534 600 534 600 489 600 c 256,23,24
 444 600 444 600 405.5 583 c 128,-1,25
 367 566 367 566 338 537.5 c 128,-1,26
 309 509 309 509 290 471.5 c 128,-1,27
 271 434 271 434 265 392 c 1,28,-1
 313 440 l 1,29,-1
 385 368 l 1,30,-1
 217 200 l 1,31,-1
 41 368 l 1,32,-1
 113 440 l 1,33,-1
 169 392 l 1,34,35
 172 455 172 455 197.5 510.5 c 128,-1,36
 223 566 223 566 266 607 c 128,-1,37
 309 648 309 648 366 672 c 128,-1,38
 423 696 423 696 489 696 c 256,0,1
EndSplineSet
Validated: 1
EndChar

StartChar: facebook
Encoding: 291 291 45
Width: 436
Flags: W
LayerCount: 2
Fore
SplineSet
151 53 m 1,0,-1
 151 340 l 1,1,-1
 54 340 l 1,2,-1
 54 451 l 1,3,-1
 151 451 l 1,4,-1
 151 534 l 2,5,6
 151 606 151 606 190.5 643.5 c 128,-1,7
 230 681 230 681 295 681 c 0,8,9
 326 681 326 681 349.5 679.5 c 128,-1,10
 373 678 373 678 381 677 c 1,11,-1
 381 577 l 1,12,-1
 322 577 l 2,13,14
 287 577 287 577 276.5 562 c 128,-1,15
 266 547 266 547 266 523 c 2,16,-1
 266 451 l 1,17,-1
 377 451 l 1,18,-1
 363 340 l 1,19,-1
 266 340 l 1,20,-1
 266 53 l 1,21,-1
 151 53 l 1,0,-1
EndSplineSet
Validated: 1
EndChar

StartChar: twitter
Encoding: 292 292 46
Width: 752
Flags: W
LayerCount: 2
Fore
SplineSet
517 667 m 0,0,1
 550 667 550 667 578 654.5 c 128,-1,2
 606 642 606 642 623 616 c 1,3,4
 652 621 652 621 675 631.5 c 128,-1,5
 698 642 698 642 718 658 c 1,6,7
 710 627 710 627 694.5 608 c 128,-1,8
 679 589 679 589 657 577 c 1,9,10
 678 580 678 580 698.5 584.5 c 128,-1,11
 719 589 719 589 740 597 c 1,12,13
 723 577 723 577 705.5 555 c 128,-1,14
 688 533 688 533 668 516 c 1,15,-1
 668 504 l 2,16,17
 668 431 668 431 640 355 c 128,-1,18
 612 279 612 279 558 217 c 128,-1,19
 504 155 504 155 424.5 115.5 c 128,-1,20
 345 76 345 76 242 76 c 0,21,22
 179 76 179 76 121.5 94 c 128,-1,23
 64 112 64 112 16 144 c 1,24,25
 27 143 27 143 35 142.5 c 128,-1,26
 43 142 43 142 52 142 c 0,27,28
 106 142 106 142 150.5 158 c 128,-1,29
 195 174 195 174 237 209 c 1,30,31
 184 210 184 210 148 235.5 c 128,-1,32
 112 261 112 261 94 315 c 1,33,34
 112 312 112 312 129 312 c 0,35,36
 147 312 147 312 162 319 c 1,37,38
 136 320 136 320 115 332 c 128,-1,39
 94 344 94 344 78.5 363 c 128,-1,40
 63 382 63 382 54.5 406 c 128,-1,41
 46 430 46 430 46 456 c 2,42,-1
 46 458 l 1,43,44
 74 436 74 436 113 435 c 1,45,46
 82 460 82 460 64.5 492.5 c 128,-1,47
 47 525 47 525 47 567 c 0,48,49
 47 587 47 587 52 603.5 c 128,-1,50
 57 620 57 620 66 638 c 1,51,52
 180 501 180 501 371 489 c 1,53,54
 367 504 367 504 367 515 c 0,55,56
 367 546 367 546 378 574 c 128,-1,57
 389 602 389 602 408.5 622.5 c 128,-1,58
 428 643 428 643 455.5 655 c 128,-1,59
 483 667 483 667 517 667 c 0,0,1
EndSplineSet
Validated: 1
EndChar

StartChar: googleplus
Encoding: 293 293 47
Width: 707
Flags: W
LayerCount: 2
Fore
SplineSet
305 387 m 0,0,1
 305 372 305 372 324.5 355 c 128,-1,2
 344 338 344 338 366 323 c 128,-1,3
 388 308 388 308 403 282 c 128,-1,4
 418 256 418 256 418 214 c 0,5,6
 418 154 418 154 365 107 c 0,7,8
 307 59 307 59 208 59 c 0,9,10
 182 59 182 59 152.5 65 c 128,-1,11
 123 71 123 71 96 84.5 c 128,-1,12
 69 98 69 98 52.5 121 c 128,-1,13
 36 144 36 144 36 177 c 0,14,15
 36 203 36 203 49 227 c 0,16,17
 62 254 62 254 86 269.5 c 128,-1,18
 110 285 110 285 139 300 c 1,19,20
 197 315 197 315 254 316 c 1,21,22
 233 350 233 350 233 372 c 0,23,24
 233 380 233 380 236 386 c 0,25,26
 237 388 237 388 238 392.5 c 128,-1,27
 239 397 239 397 240 399 c 1,28,29
 234 399 234 399 228 398.5 c 128,-1,30
 222 398 222 398 214 398 c 0,31,32
 155 398 155 398 118 438 c 0,33,34
 76 478 76 478 76 534 c 0,35,36
 76 587 76 587 113 627 c 1,37,38
 147 670 147 670 199 681 c 0,39,40
 222 684 222 684 237 686.5 c 128,-1,41
 252 689 252 689 276 689 c 2,42,-1
 439 689 l 1,43,-1
 390 659 l 1,44,-1
 338 659 l 1,45,46
 362 641 362 641 373 611 c 1,47,48
 394 582 394 582 394 546 c 0,49,50
 394 521 394 521 382.5 499 c 128,-1,51
 371 477 371 477 360 464 c 0,52,53
 344 440 344 440 324.5 426.5 c 128,-1,54
 305 413 305 413 305 387 c 0,0,1
249 423 m 0,55,56
 289 423 289 423 302.5 446.5 c 128,-1,57
 316 470 316 470 316 503 c 0,58,59
 316 551 316 551 296 602 c 0,60,61
 286 627 286 627 264.5 642.5 c 128,-1,62
 243 658 243 658 220 658 c 0,63,64
 184 658 184 658 166 632 c 0,65,66
 144 605 144 605 144 570 c 0,67,68
 144 547 144 547 151.5 520.5 c 128,-1,69
 159 494 159 494 172.5 471 c 128,-1,70
 186 448 186 448 207 435.5 c 128,-1,71
 228 423 228 423 249 423 c 0,55,56
245 90 m 0,72,73
 268 90 268 90 288 94.5 c 128,-1,74
 308 99 308 99 327 109 c 128,-1,75
 346 119 346 119 354.5 136 c 128,-1,76
 363 153 363 153 363 178 c 0,77,78
 363 187 363 187 362 195 c 128,-1,79
 361 203 361 203 359 208 c 256,80,81
 357 213 357 213 353 219 c 256,82,83
 349 225 349 225 346.5 231 c 128,-1,84
 344 237 344 237 338 246 c 0,85,86
 334 250 334 250 329 255 c 0,87,88
 327 256 327 256 320.5 258 c 128,-1,89
 314 260 314 260 310 263 c 2,90,-1
 300 270 l 2,91,92
 297 272 297 272 290 277 c 2,93,-1
 280 287 l 2,94,95
 278 287 278 287 270 288 c 128,-1,96
 262 289 262 289 255 289 c 0,97,98
 219 289 219 289 179 275 c 0,99,100
 146 267 146 267 125 245.5 c 128,-1,101
 104 224 104 224 104 191 c 0,102,103
 104 162 104 162 117 143 c 128,-1,104
 130 124 130 124 152 112 c 0,105,106
 193 90 193 90 245 90 c 0,72,73
666 396 m 1,107,-1
 666 355 l 1,108,-1
 569 355 l 1,109,-1
 569 256 l 1,110,-1
 520 256 l 1,111,-1
 520 355 l 1,112,-1
 421 355 l 1,113,-1
 421 396 l 1,114,-1
 520 396 l 1,115,-1
 520 495 l 1,116,-1
 569 495 l 1,117,-1
 569 396 l 1,118,-1
 666 396 l 1,107,-1
EndSplineSet
Validated: 1
EndChar

StartChar: user
Encoding: 294 294 48
Width: 579
Flags: W
LayerCount: 2
Fore
SplineSet
236 357 m 1,0,-1
 241 357 l 2,1,2
 240 358 240 358 240 358.5 c 128,-1,3
 240 359 240 359 238 360 c 0,4,5
 210 384 210 384 192 426 c 128,-1,6
 174 468 174 468 174 508 c 0,7,8
 174 535 174 535 184.5 557 c 128,-1,9
 195 579 195 579 211.5 594.5 c 128,-1,10
 228 610 228 610 249 618.5 c 128,-1,11
 270 627 270 627 291 627 c 256,12,13
 312 627 312 627 331.5 618 c 128,-1,14
 351 609 351 609 367 592.5 c 128,-1,15
 383 576 383 576 392.5 553 c 128,-1,16
 402 530 402 530 402 503 c 0,17,18
 402 484 402 484 397 463.5 c 128,-1,19
 392 443 392 443 383 423.5 c 128,-1,20
 374 404 374 404 361.5 387.5 c 128,-1,21
 349 371 349 371 334 359 c 1,22,23
 340 336 340 336 373 324.5 c 128,-1,24
 406 313 406 313 473 295 c 0,25,26
 509 285 509 285 527 265 c 128,-1,27
 545 245 545 245 551.5 223.5 c 128,-1,28
 558 202 558 202 556.5 183 c 128,-1,29
 555 164 555 164 553 157 c 0,30,31
 551 151 551 151 527.5 146.5 c 128,-1,32
 504 142 504 142 467 139 c 128,-1,33
 430 136 430 136 384 134.5 c 128,-1,34
 338 133 338 133 289.5 132.5 c 128,-1,35
 241 132 241 132 194.5 133.5 c 128,-1,36
 148 135 148 135 111.5 138 c 128,-1,37
 75 141 75 141 52 145.5 c 128,-1,38
 29 150 29 150 27 157 c 0,39,40
 26 163 26 163 23.5 181.5 c 128,-1,41
 21 200 21 200 26 222 c 128,-1,42
 31 244 31 244 47 264.5 c 128,-1,43
 63 285 63 285 99 295 c 0,44,45
 164 313 164 313 196.5 324 c 128,-1,46
 229 335 229 335 236 357 c 1,0,-1
241 357 m 2,47,-1
 236 357 l 2,48,49
 237 358 237 358 237 358.5 c 128,-1,50
 237 359 237 359 238 360 c 0,51,52
 240 359 240 359 240 358.5 c 128,-1,53
 240 358 240 358 241 357 c 2,47,-1
281 220 m 1,54,-1
 341 290 l 1,55,-1
 226 290 l 1,56,-1
 281 220 l 1,54,-1
EndSplineSet
Validated: 37
EndChar

StartChar: logout
Encoding: 295 295 49
Width: 693
Flags: W
LayerCount: 2
Fore
SplineSet
345 36 m 256,0,1
 279 36 279 36 221 61 c 128,-1,2
 163 86 163 86 119.5 128.5 c 128,-1,3
 76 171 76 171 51 229 c 128,-1,4
 26 287 26 287 26 353 c 0,5,6
 26 422 26 422 54 483 c 128,-1,7
 82 544 82 544 133 589 c 0,8,9
 148 603 148 603 166 601.5 c 128,-1,10
 184 600 184 600 198 588 c 0,11,12
 210 573 210 573 209 554.5 c 128,-1,13
 208 536 208 536 194 523 c 0,14,15
 157 490 157 490 137 446 c 128,-1,16
 117 402 117 402 117 353 c 0,17,18
 117 306 117 306 135 264.5 c 128,-1,19
 153 223 153 223 184 192.5 c 128,-1,20
 215 162 215 162 256.5 144 c 128,-1,21
 298 126 298 126 345 126 c 256,22,23
 392 126 392 126 433.5 144 c 128,-1,24
 475 162 475 162 506 192.5 c 128,-1,25
 537 223 537 223 555 264.5 c 128,-1,26
 573 306 573 306 573 353 c 0,27,28
 573 402 573 402 553 446 c 128,-1,29
 533 490 533 490 496 523 c 0,30,31
 482 536 482 536 481 554.5 c 128,-1,32
 480 573 480 573 492 588 c 0,33,34
 505 600 505 600 523.5 601.5 c 128,-1,35
 542 603 542 603 557 589 c 0,36,37
 608 544 608 544 636 483 c 128,-1,38
 664 422 664 422 664 353 c 0,39,40
 664 287 664 287 639 229 c 128,-1,41
 614 171 614 171 570.5 128.5 c 128,-1,42
 527 86 527 86 469 61 c 128,-1,43
 411 36 411 36 345 36 c 256,0,1
391 444 m 2,44,45
 391 425 391 425 377.5 411.5 c 128,-1,46
 364 398 364 398 345 398 c 256,47,48
 326 398 326 398 312.5 411.5 c 128,-1,49
 299 425 299 425 299 444 c 2,50,-1
 299 672 l 2,51,52
 299 690 299 690 312.5 702.5 c 128,-1,53
 326 715 326 715 345 715 c 256,54,55
 364 715 364 715 377.5 702.5 c 128,-1,56
 391 690 391 690 391 672 c 2,57,-1
 391 444 l 2,44,45
EndSplineSet
Validated: 33
EndChar

StartChar: lock
Encoding: 296 296 51
Width: 570
Flags: W
LayerCount: 2
Fore
SplineSet
500 458 m 2,0,1
 511 458 511 458 519.5 451.5 c 128,-1,2
 528 445 528 445 528 435 c 2,3,-1
 528 59 l 2,4,5
 528 50 528 50 519.5 44 c 128,-1,6
 511 38 511 38 500 38 c 2,7,-1
 73 38 l 2,8,9
 62 38 62 38 53.5 44 c 128,-1,10
 45 50 45 50 45 59 c 2,11,-1
 45 435 l 2,12,13
 45 445 45 445 53.5 451.5 c 128,-1,14
 62 458 62 458 73 458 c 2,15,-1
 107 458 l 1,16,-1
 107 540 l 1,17,18
 111 576 111 576 126 609 c 128,-1,19
 141 642 141 642 164.5 666.5 c 128,-1,20
 188 691 188 691 219.5 705.5 c 128,-1,21
 251 720 251 720 287 720 c 256,22,23
 323 720 323 720 355.5 705.5 c 128,-1,24
 388 691 388 691 412.5 667 c 128,-1,25
 437 643 437 643 451.5 611 c 128,-1,26
 466 579 466 579 466 543 c 2,27,-1
 466 458 l 1,28,-1
 500 458 l 2,0,1
169 458 m 1,29,-1
 404 458 l 1,30,-1
 404 543 l 2,31,32
 404 567 404 567 394.5 589 c 128,-1,33
 385 611 385 611 369.5 628 c 128,-1,34
 354 645 354 645 332.5 655.5 c 128,-1,35
 311 666 311 666 287 666 c 256,36,37
 263 666 263 666 241.5 656 c 128,-1,38
 220 646 220 646 204 628.5 c 128,-1,39
 188 611 188 611 178.5 589 c 128,-1,40
 169 567 169 567 169 543 c 2,41,-1
 169 458 l 1,29,-1
EndSplineSet
Validated: 1
EndChar

StartChar: menuadd
Encoding: 297 297 52
Width: 1015
Flags: W
LayerCount: 2
Fore
SplineSet
922 732 m 2,0,1
 950 732 950 732 970 712.5 c 128,-1,2
 990 693 990 693 990 664 c 256,3,4
 990 635 990 635 970 614.5 c 128,-1,5
 950 594 950 594 922 594 c 2,6,-1
 97 594 l 2,7,8
 68 594 68 594 48.5 614.5 c 128,-1,9
 29 635 29 635 29 664 c 256,10,11
 29 693 29 693 48.5 712.5 c 128,-1,12
 68 732 68 732 97 732 c 2,13,-1
 922 732 l 2,0,1
394 447 m 2,14,15
 422 447 422 447 442 427 c 128,-1,16
 462 407 462 407 462 379 c 0,17,18
 462 350 462 350 442 330 c 128,-1,19
 422 310 422 310 394 310 c 2,20,-1
 97 310 l 2,21,22
 69 310 69 310 49 330 c 128,-1,23
 29 350 29 350 29 379 c 0,24,25
 29 407 29 407 49 427 c 128,-1,26
 69 447 69 447 97 447 c 2,27,-1
 394 447 l 2,14,15
462 93 m 256,28,29
 462 64 462 64 442 44 c 128,-1,30
 422 24 422 24 394 24 c 2,31,-1
 97 24 l 2,32,33
 69 24 69 24 49 44 c 128,-1,34
 29 64 29 64 29 93 c 256,35,36
 29 122 29 122 49 142.5 c 128,-1,37
 69 163 69 163 97 163 c 2,38,-1
 394 163 l 2,39,40
 422 163 422 163 442 142.5 c 128,-1,41
 462 122 462 122 462 93 c 256,28,29
777 446 m 256,42,43
 821 446 821 446 859.5 429.5 c 128,-1,44
 898 413 898 413 927 384 c 128,-1,45
 956 355 956 355 972.5 316 c 128,-1,46
 989 277 989 277 989 233 c 256,47,48
 989 189 989 189 972.5 151 c 128,-1,49
 956 113 956 113 927 84 c 128,-1,50
 898 55 898 55 859.5 38.5 c 128,-1,51
 821 22 821 22 777 22 c 256,52,53
 733 22 733 22 694.5 38.5 c 128,-1,54
 656 55 656 55 627 84 c 128,-1,55
 598 113 598 113 581.5 151 c 128,-1,56
 565 189 565 189 565 233 c 256,57,58
 565 277 565 277 581.5 316 c 128,-1,59
 598 355 598 355 627 384 c 128,-1,60
 656 413 656 413 694.5 429.5 c 128,-1,61
 733 446 733 446 777 446 c 256,42,43
911 237 m 2,62,63
 911 249 911 249 902.5 257.5 c 128,-1,64
 894 266 894 266 881 266 c 2,65,-1
 810 266 l 1,66,-1
 810 338 l 2,67,68
 810 350 810 350 801 359.5 c 128,-1,69
 792 369 792 369 780 369 c 2,70,-1
 774 369 l 2,71,72
 763 369 763 369 754.5 359.5 c 128,-1,73
 746 350 746 350 746 338 c 2,74,-1
 746 266 l 1,75,-1
 673 266 l 2,76,77
 660 266 660 266 651.5 257.5 c 128,-1,78
 643 249 643 249 643 237 c 2,79,-1
 643 231 l 2,80,81
 643 218 643 218 651.5 209.5 c 128,-1,82
 660 201 660 201 673 201 c 2,83,-1
 746 201 l 1,84,-1
 746 130 l 2,85,86
 746 117 746 117 754.5 109 c 128,-1,87
 763 101 763 101 774 101 c 2,88,-1
 780 101 l 2,89,90
 792 101 792 101 801 109 c 128,-1,91
 810 117 810 117 810 130 c 2,92,-1
 810 201 l 1,93,-1
 881 201 l 2,94,95
 894 201 894 201 902.5 209.5 c 128,-1,96
 911 218 911 218 911 231 c 2,97,-1
 911 237 l 2,62,63
EndSplineSet
Validated: 1
EndChar

StartChar: template
Encoding: 304 304 53
Width: 754
Flags: W
LayerCount: 2
Fore
SplineSet
23 732 m 1,0,-1
 732 732 l 1,1,-1
 732 555 l 1,2,-1
 23 555 l 1,3,-1
 23 732 l 1,4,-1
 23 732 l 1,0,-1
23 466 m 1,5,-1
 289 466 l 1,6,-1
 289 23 l 1,7,-1
 23 23 l 1,8,-1
 23 466 l 1,9,-1
 23 466 l 1,5,-1
377 466 m 1,10,-1
 732 466 l 1,11,-1
 732 23 l 1,12,-1
 377 23 l 1,13,-1
 377 466 l 1,14,-1
 377 466 l 1,10,-1
EndSplineSet
Validated: 5
EndChar

StartChar: upgrade
Encoding: 305 305 54
Width: 752
Flags: W
LayerCount: 2
Fore
SplineSet
376 743 m 256,0,1
 452 743 452 743 519 714 c 128,-1,2
 586 685 586 685 635.5 635 c 128,-1,3
 685 585 685 585 714 518.5 c 128,-1,4
 743 452 743 452 743 376 c 256,5,6
 743 300 743 300 714 233 c 128,-1,7
 685 166 685 166 635.5 116.5 c 128,-1,8
 586 67 586 67 519 38 c 128,-1,9
 452 9 452 9 376 9 c 256,10,11
 300 9 300 9 233 38 c 128,-1,12
 166 67 166 67 116.5 116.5 c 128,-1,13
 67 166 67 166 38 233 c 128,-1,14
 9 300 9 300 9 376 c 256,15,16
 9 452 9 452 38 518.5 c 128,-1,17
 67 585 67 585 116.5 635 c 128,-1,18
 166 685 166 685 233 714 c 128,-1,19
 300 743 300 743 376 743 c 256,0,1
558 575 m 2,20,21
 560 580 560 580 557 583 c 0,22,23
 555 585 555 585 553 585 c 256,24,25
 551 585 551 585 549 583 c 2,26,-1
 393 412 l 1,27,28
 384 415 384 415 375 415 c 0,29,30
 350 415 350 415 334 397 c 0,31,32
 320 380 320 380 321.5 356.5 c 128,-1,33
 323 333 323 333 340 318 c 0,34,35
 359 304 359 304 379 304 c 0,36,37
 390 304 390 304 401 308 c 128,-1,38
 412 312 412 312 420 322 c 0,39,40
 430 333 430 333 432 349.5 c 128,-1,41
 434 366 434 366 426 380 c 1,42,-1
 558 575 l 2,20,21
EndSplineSet
Validated: 33
EndChar

StartChar: suggest
Encoding: 306 306 55
Width: 625
Flags: W
LayerCount: 2
Fore
SplineSet
277 631 m 1,0,-1
 277 669 l 2,1,2
 277 683 277 683 286.5 692.5 c 128,-1,3
 296 702 296 702 310 702 c 256,4,5
 324 702 324 702 334 692.5 c 128,-1,6
 344 683 344 683 344 669 c 2,7,-1
 344 631 l 1,8,-1
 277 631 l 1,0,-1
537 409 m 1,9,-1
 575 409 l 2,10,11
 589 409 589 409 598.5 399.5 c 128,-1,12
 608 390 608 390 608 376 c 256,13,14
 608 362 608 362 598.5 352.5 c 128,-1,15
 589 343 589 343 575 343 c 2,16,-1
 537 343 l 1,17,-1
 537 409 l 1,9,-1
87 343 m 1,18,-1
 49 343 l 2,19,20
 35 343 35 343 25.5 352.5 c 128,-1,21
 16 362 16 362 16 376 c 256,22,23
 16 390 16 390 25.5 399.5 c 128,-1,24
 35 409 35 409 49 409 c 2,25,-1
 87 409 l 1,26,-1
 87 343 l 1,18,-1
475 571 m 1,27,-1
 502 598 l 2,28,29
 512 608 512 608 525.5 608 c 128,-1,30
 539 608 539 608 549 598 c 256,31,32
 559 588 559 588 559 574.5 c 128,-1,33
 559 561 559 561 549 551 c 2,34,-1
 522 524 l 1,35,-1
 475 571 l 1,27,-1
99 524 m 1,36,-1
 72 551 l 2,37,38
 62 561 62 561 62 574.5 c 128,-1,39
 62 588 62 588 72 598 c 256,40,41
 82 608 82 608 95.5 608 c 128,-1,42
 109 608 109 608 119 598 c 2,43,-1
 146 571 l 1,44,-1
 99 524 l 1,36,-1
222 263 m 0,45,46
 200 279 200 279 182 302 c 0,47,48
 167 322 167 322 155 349.5 c 128,-1,49
 143 377 143 377 143 413 c 0,50,51
 143 448 143 448 156 478.5 c 128,-1,52
 169 509 169 509 192 532 c 128,-1,53
 215 555 215 555 245 568 c 128,-1,54
 275 581 275 581 310 581 c 256,55,56
 345 581 345 581 375.5 568 c 128,-1,57
 406 555 406 555 429 532 c 128,-1,58
 452 509 452 509 465 478.5 c 128,-1,59
 478 448 478 448 478 413 c 0,60,61
 478 377 478 377 465.5 349.5 c 128,-1,62
 453 322 453 322 438 302 c 0,63,64
 420 279 420 279 398 263 c 0,65,66
 392 257 392 257 392 249 c 2,67,-1
 392 230 l 1,68,69
 346 217 346 217 303 219.5 c 128,-1,70
 260 222 260 222 228 230 c 1,71,-1
 228 249 l 2,72,73
 228 257 228 257 222 263 c 0,45,46
312 194 m 0,74,75
 335 194 335 194 358.5 197 c 128,-1,76
 382 200 382 200 406 208 c 1,77,78
 406 207 406 207 406.5 206.5 c 128,-1,79
 407 206 407 206 407 205 c 2,80,-1
 407 136 l 2,81,82
 407 125 407 125 400 116 c 2,83,-1
 343 63 l 2,84,85
 340 60 340 60 335 57.5 c 128,-1,86
 330 55 330 55 325 55 c 2,87,-1
 295 55 l 2,88,89
 286 55 286 55 278 63 c 2,90,-1
 221 116 l 2,91,92
 218 120 218 120 215.5 125.5 c 128,-1,93
 213 131 213 131 213 136 c 2,94,-1
 213 205 l 2,95,96
 213 206 213 206 214 207 c 0,97,98
 234 202 234 202 258.5 198 c 128,-1,99
 283 194 283 194 312 194 c 0,74,75
EndSplineSet
Validated: 33
EndChar

StartChar: nofication
Encoding: 307 307 56
Width: 439
Flags: W
LayerCount: 2
Fore
SplineSet
426 31 m 2,0,1
 426 18 426 18 418.5 14 c 128,-1,2
 411 10 411 10 401 18 c 2,3,-1
 244 121 l 2,4,5
 234 128 234 128 219 128 c 128,-1,6
 204 128 204 128 193 121 c 2,7,-1
 37 18 l 2,8,9
 27 10 27 10 19.5 14 c 128,-1,10
 12 18 12 18 12 31 c 2,11,-1
 12 711 l 2,12,13
 12 723 12 723 20.5 732 c 128,-1,14
 29 741 29 741 43 741 c 2,15,-1
 395 741 l 2,16,17
 408 741 408 741 417 732 c 128,-1,18
 426 723 426 723 426 711 c 2,19,-1
 426 31 l 2,0,1
EndSplineSet
Validated: 1
EndChar

StartChar: updates
Encoding: 308 308 57
Width: 759
Flags: W
LayerCount: 2
Fore
SplineSet
379 736 m 256,0,1
 454 736 454 736 519.5 707.5 c 128,-1,2
 585 679 585 679 633.5 630.5 c 128,-1,3
 682 582 682 582 710.5 516.5 c 128,-1,4
 739 451 739 451 739 376 c 256,5,6
 739 301 739 301 710.5 235.5 c 128,-1,7
 682 170 682 170 633.5 121.5 c 128,-1,8
 585 73 585 73 519.5 44.5 c 128,-1,9
 454 16 454 16 379 16 c 256,10,11
 304 16 304 16 238.5 44.5 c 128,-1,12
 173 73 173 73 124.5 121.5 c 128,-1,13
 76 170 76 170 47.5 235.5 c 128,-1,14
 19 301 19 301 19 376 c 256,15,16
 19 451 19 451 47.5 516.5 c 128,-1,17
 76 582 76 582 124.5 630.5 c 128,-1,18
 173 679 173 679 238.5 707.5 c 128,-1,19
 304 736 304 736 379 736 c 256,0,1
496 315 m 1,20,-1
 262 315 l 1,21,-1
 384 205 l 1,22,-1
 496 315 l 1,20,-1
496 513 m 1,23,-1
 262 513 l 1,24,-1
 384 403 l 1,25,-1
 496 513 l 1,23,-1
EndSplineSet
Validated: 1
EndChar

StartChar: comments
Encoding: 309 309 58
Width: 754
Flags: W
LayerCount: 2
Fore
SplineSet
723 105 m 0,0,1
 741 82 741 82 738 61.5 c 128,-1,2
 735 41 735 41 703 36 c 0,3,4
 631 25 631 25 568 22 c 128,-1,5
 505 19 505 19 454 21 c 128,-1,6
 403 23 403 23 363.5 28 c 128,-1,7
 324 33 324 33 298 38 c 0,8,9
 265 43 265 43 240 51 c 0,10,11
 239 52 239 52 238 52 c 0,12,13
 190 73 190 73 149 105.5 c 128,-1,14
 108 138 108 138 78 180.5 c 128,-1,15
 48 223 48 223 31.5 274.5 c 128,-1,16
 15 326 15 326 15 385 c 0,17,18
 15 458 15 458 42 521.5 c 128,-1,19
 69 585 69 585 116.5 632 c 128,-1,20
 164 679 164 679 227.5 706 c 128,-1,21
 291 733 291 733 364 733 c 256,22,23
 437 733 437 733 501 706 c 128,-1,24
 565 679 565 679 613 632 c 128,-1,25
 661 585 661 585 688.5 521.5 c 128,-1,26
 716 458 716 458 716 385 c 0,27,28
 716 353 716 353 712.5 327 c 128,-1,29
 709 301 709 301 701 272 c 0,30,31
 697 253 697 253 694 233 c 0,32,33
 692 216 692 216 692 193.5 c 128,-1,34
 692 171 692 171 699 148 c 0,35,36
 704 134 704 134 709.5 125.5 c 128,-1,37
 715 117 715 117 723 105 c 0,0,1
430 307 m 2,38,39
 436 307 436 307 442.5 313 c 128,-1,40
 449 319 449 319 449 323 c 0,41,42
 449 334 449 334 442.5 341.5 c 128,-1,43
 436 349 436 349 430 349 c 2,44,-1
 299 349 l 2,45,46
 288 349 288 349 280.5 341.5 c 128,-1,47
 273 334 273 334 273 323 c 0,48,49
 273 319 273 319 280.5 313 c 128,-1,50
 288 307 288 307 299 307 c 2,51,-1
 430 307 l 2,38,39
485 398 m 2,52,53
 496 398 496 398 503 404.5 c 128,-1,54
 510 411 510 411 510 419 c 0,55,56
 510 426 510 426 503 433 c 128,-1,57
 496 440 496 440 485 440 c 2,58,-1
 299 440 l 2,59,60
 288 440 288 440 280.5 433 c 128,-1,61
 273 426 273 426 273 419 c 0,62,63
 273 411 273 411 280.5 404.5 c 128,-1,64
 288 398 288 398 299 398 c 2,65,-1
 485 398 l 2,52,53
EndSplineSet
Validated: 33
EndChar

StartChar: darr1
Encoding: 310 310 60
Width: 875
Flags: W
LayerCount: 2
Fore
SplineSet
437 293 m 1,0,-1
 437 293 l 1,1,-1
 777 619 l 2,2,3
 793 635 793 635 809 619 c 2,4,-1
 869 561 l 2,5,6
 885 545 885 545 869 529 c 2,7,-1
 453 131 l 2,8,9
 447 125 447 125 437.5 125 c 128,-1,10
 428 125 428 125 422 131 c 2,11,-1
 6 529 l 2,12,13
 -10 545 -10 545 6 561 c 2,14,-1
 66 619 l 2,15,16
 82 635 82 635 98 619 c 2,17,-1
 437 293 l 1,0,-1
EndSplineSet
Validated: 37
EndChar

StartChar: larr1
Encoding: 311 311 61
Width: 500
Flags: W
LayerCount: 2
Fore
SplineSet
168 375 m 1,0,-1
 494 35 l 2,1,2
 510 20 510 20 494 4 c 2,3,-1
 436 -57 l 2,4,5
 420 -72 420 -72 404 -57 c 2,6,-1
 6 359 l 2,7,8
 0 365 0 365 0 375 c 128,-1,9
 0 385 0 385 6 391 c 2,10,-1
 404 807 l 2,11,12
 418 820 418 820 436 805 c 2,13,-1
 494 746 l 2,14,15
 510 730 510 730 494 715 c 2,16,-1
 168 375 l 1,0,-1
EndSplineSet
Validated: 33
EndChar

StartChar: rarr1
Encoding: 312 312 62
Width: 500
Flags: W
LayerCount: 2
Fore
SplineSet
332 375 m 1,0,-1
 332 375 l 1,1,-1
 6 715 l 2,2,3
 -10 730 -10 730 6 746 c 2,4,-1
 64 805 l 2,5,6
 82 820 82 820 96 807 c 2,7,-1
 494 391 l 2,8,9
 500 385 500 385 500 375 c 128,-1,10
 500 365 500 365 494 359 c 2,11,-1
 96 -57 l 2,12,13
 80 -72 80 -72 64 -57 c 2,14,-1
 6 4 l 2,15,16
 -10 20 -10 20 6 35 c 2,17,-1
 332 375 l 1,0,-1
EndSplineSet
Validated: 37
EndChar

StartChar: uarr1
Encoding: 313 313 63
Width: 875
Flags: W
LayerCount: 2
Fore
SplineSet
437 457 m 1,0,-1
 98 131 l 2,1,2
 82 115 82 115 66 131 c 2,3,-1
 6 189 l 2,4,5
 -10 205 -10 205 6 221 c 2,6,-1
 422 619 l 2,7,8
 428 625 428 625 437.5 625 c 128,-1,9
 447 625 447 625 453 619 c 2,10,-1
 869 221 l 2,11,12
 885 205 885 205 869 189 c 2,13,-1
 809 131 l 2,14,15
 793 115 793 115 777 131 c 2,16,-1
 437 457 l 1,0,-1
EndSplineSet
Validated: 33
EndChar

StartChar: video
Encoding: 320 320 68
Width: 816
Flags: W
LayerCount: 2
Fore
SplineSet
502 625 m 2,0,1
 529 625 529 625 547.5 606.5 c 128,-1,2
 566 588 566 588 566 561 c 2,3,-1
 566 193 l 2,4,5
 566 166 566 166 547.5 145.5 c 128,-1,6
 529 125 529 125 502 125 c 2,7,-1
 70 125 l 2,8,9
 43 125 43 125 21.5 145.5 c 128,-1,10
 0 166 0 166 0 193 c 2,11,-1
 0 561 l 2,12,13
 0 588 0 588 20.5 606.5 c 128,-1,14
 41 625 41 625 70 625 c 2,15,-1
 502 625 l 2,0,1
625 459 m 1,16,-1
 816 562 l 1,17,-1
 816 187 l 1,18,-1
 625 291 l 1,19,-1
 625 459 l 1,16,-1
EndSplineSet
Validated: 1
EndChar

StartChar: file
Encoding: 321 321 69
Width: 750
Flags: W
LayerCount: 2
Fore
SplineSet
94 750 m 1,0,-1
 750 750 l 1,1,-1
 750 61 l 2,2,3
 750 35 750 35 732.5 17.5 c 128,-1,4
 715 0 715 0 689 0 c 2,5,-1
 61 0 l 2,6,7
 35 0 35 0 17.5 17.5 c 128,-1,8
 0 35 0 35 0 61 c 2,9,-1
 0 656 l 1,10,-1
 62 656 l 1,11,-1
 62 625 l 1,12,-1
 31 625 l 1,13,-1
 31 61 l 2,14,15
 31 49 31 49 40 40 c 128,-1,16
 49 31 49 31 61 31 c 2,17,-1
 689 31 l 2,18,19
 701 31 701 31 710 40 c 128,-1,20
 719 49 719 49 719 61 c 2,21,-1
 719 719 l 1,22,-1
 125 719 l 1,23,-1
 125 94 l 1,24,-1
 94 94 l 1,25,-1
 94 719 l 1,26,-1
 94 750 l 1,0,-1
187 625 m 1,27,-1
 187 656 l 1,28,-1
 437 656 l 1,29,-1
 437 625 l 1,30,-1
 187 625 l 1,27,-1
187 469 m 1,31,-1
 187 500 l 1,32,-1
 656 500 l 1,33,-1
 656 469 l 1,34,-1
 187 469 l 1,31,-1
187 312 m 1,35,-1
 187 344 l 1,36,-1
 562 344 l 1,37,-1
 562 312 l 1,38,-1
 187 312 l 1,35,-1
187 156 m 1,39,-1
 187 187 l 1,40,-1
 656 187 l 1,41,-1
 656 156 l 1,42,-1
 187 156 l 1,39,-1
EndSplineSet
Validated: 1
EndChar

StartChar: uniF100
Encoding: 61696 61696 70
Width: 875
Flags: W
LayerCount: 2
Fore
SplineSet
869 51 m 2,0,1
 881 29 881 29 873 16 c 0,2,3
 863 0 863 0 846 0 c 2,4,-1
 29 0 l 2,5,6
 12 0 12 0 2 16 c 0,7,8
 -6 29 -6 29 6 51 c 2,9,-1
 410 732 l 2,10,11
 420 750 420 750 437.5 750 c 128,-1,12
 455 750 455 750 465 732 c 2,13,-1
 869 51 l 2,0,1
500 94 m 1,14,-1
 500 187 l 1,15,-1
 375 187 l 1,16,-1
 375 94 l 1,17,-1
 500 94 l 1,14,-1
500 250 m 1,18,-1
 500 531 l 1,19,-1
 375 531 l 1,20,-1
 375 250 l 1,21,-1
 500 250 l 1,18,-1
EndSplineSet
Validated: 33
EndChar

StartChar: uniF101
Encoding: 61697 61697 71
Width: 250
Flags: W
LayerCount: 2
Fore
SplineSet
250 -63 m 1,0,-1
 0 -63 l 1,1,-1
 0 125 l 1,2,-1
 250 125 l 1,3,-1
 250 -63 l 1,0,-1
219 250 m 1,4,-1
 31 250 l 1,5,-1
 0 812 l 1,6,-1
 250 812 l 1,7,-1
 219 250 l 1,4,-1
EndSplineSet
Validated: 1
EndChar

StartChar: uniF102
Encoding: 61698 61698 72
Width: 875
Flags: W
LayerCount: 2
Fore
SplineSet
437 273 m 1,0,-1
 187 500 l 1,1,-1
 344 500 l 1,2,-1
 344 687 l 1,3,-1
 531 687 l 1,4,-1
 531 500 l 1,5,-1
 687 500 l 1,6,-1
 437 273 l 1,0,-1
846 295 m 1,7,8
 881 275 881 275 875 232 c 2,9,-1
 857 102 l 2,10,11
 852 62 852 62 803 62 c 2,12,-1
 72 62 l 2,13,14
 23 62 23 62 18 102 c 2,15,-1
 0 232 l 2,16,17
 -6 275 -6 275 27 295 c 1,18,-1
 168 402 l 1,19,-1
 250 402 l 1,20,-1
 129 281 l 1,21,-1
 227 281 l 2,22,23
 234 281 234 281 238 275 c 2,24,-1
 273 187 l 1,25,-1
 602 187 l 1,26,-1
 637 275 l 2,27,28
 641 281 641 281 646 281 c 2,29,-1
 746 281 l 1,30,-1
 625 402 l 1,31,-1
 707 402 l 1,32,-1
 846 295 l 1,7,8
EndSplineSet
Validated: 33
EndChar

StartChar: uniF103
Encoding: 61699 61699 73
Width: 750
Flags: W
LayerCount: 2
Fore
SplineSet
375 0 m 1,0,-1
 0 375 l 1,1,-1
 219 375 l 1,2,-1
 219 750 l 1,3,-1
 531 750 l 1,4,-1
 531 375 l 1,5,-1
 750 375 l 1,6,-1
 375 0 l 1,0,-1
EndSplineSet
Validated: 1
EndChar

StartChar: uniF104
Encoding: 61700 61700 74
Width: 625
Flags: W
LayerCount: 2
Fore
SplineSet
6 514 m 2,0,1
 0 520 0 520 0 531 c 0,2,3
 0 545 0 545 10 553.5 c 128,-1,4
 20 562 20 562 33 562 c 2,5,-1
 592 562 l 2,6,7
 605 562 605 562 615 553.5 c 128,-1,8
 625 545 625 545 625 531 c 0,9,10
 625 521 625 521 619 516 c 2,11,-1
 615 510 l 1,12,-1
 350 205 l 2,13,14
 332 187 332 187 312.5 187 c 128,-1,15
 293 187 293 187 275 205 c 2,16,-1
 10 510 l 1,17,-1
 6 514 l 2,0,1
EndSplineSet
Validated: 1
EndChar

StartChar: uniF105
Encoding: 61701 61701 75
Width: 535
Flags: W
LayerCount: 2
Fore
SplineSet
518 244 m 2,0,-1
 312 49 l 2,1,2
 295 31 295 31 268 31 c 0,3,4
 242 31 242 31 225 49 c 2,5,-1
 18 244 l 2,6,7
 0 262 0 262 0 286.5 c 128,-1,8
 0 311 0 311 17.5 328.5 c 128,-1,9
 35 346 35 346 62.5 346 c 128,-1,10
 90 346 90 346 107 328 c 2,11,-1
 205 234 l 1,12,-1
 205 658 l 2,13,14
 205 684 205 684 223.5 701.5 c 128,-1,15
 242 719 242 719 267.5 719 c 128,-1,16
 293 719 293 719 311.5 701.5 c 128,-1,17
 330 684 330 684 330 658 c 2,18,-1
 330 234 l 1,19,-1
 428 328 l 2,20,21
 445 346 445 346 472.5 346 c 128,-1,22
 500 346 500 346 517.5 328.5 c 128,-1,23
 535 311 535 311 535 286.5 c 128,-1,24
 535 262 535 262 518 244 c 2,0,-1
EndSplineSet
Validated: 1
EndChar

StartChar: uniF106
Encoding: 61702 61702 76
Width: 750
Flags: W
LayerCount: 2
Fore
SplineSet
0 375 m 1,0,-1
 375 750 l 1,1,-1
 375 531 l 1,2,-1
 750 531 l 1,3,-1
 750 219 l 1,4,-1
 375 219 l 1,5,-1
 375 0 l 1,6,-1
 0 375 l 1,0,-1
EndSplineSet
Validated: 1
EndChar

StartChar: uniF107
Encoding: 61703 61703 77
Width: 375
Flags: W
LayerCount: 2
Fore
SplineSet
326 682 m 2,0,1
 332 687 332 687 344 687 c 0,2,3
 357 687 357 687 366 677.5 c 128,-1,4
 375 668 375 668 375 654 c 2,5,-1
 375 96 l 2,6,7
 375 82 375 82 366 72 c 128,-1,8
 357 62 357 62 344 62 c 0,9,10
 332 62 332 62 326 68 c 2,11,-1
 322 72 l 1,12,-1
 18 338 l 2,13,14
 0 355 0 355 0 375 c 128,-1,15
 0 395 0 395 18 412 c 2,16,-1
 322 678 l 1,17,-1
 326 682 l 2,0,1
EndSplineSet
Validated: 1
EndChar

StartChar: uniF108
Encoding: 61704 61704 78
Width: 687
Flags: W
LayerCount: 2
Fore
SplineSet
213 625 m 2,0,1
 230 643 230 643 255.5 643 c 128,-1,2
 281 643 281 643 298.5 625 c 128,-1,3
 316 607 316 607 316 580 c 128,-1,4
 316 553 316 553 299 535 c 2,5,-1
 203 437 l 1,6,-1
 627 437 l 2,7,8
 652 437 652 437 669.5 418.5 c 128,-1,9
 687 400 687 400 687 375 c 128,-1,10
 687 350 687 350 669.5 331 c 128,-1,11
 652 312 652 312 627 312 c 2,12,-1
 203 312 l 1,13,-1
 297 215 l 2,14,15
 314 197 314 197 314 170 c 128,-1,16
 314 143 314 143 296.5 125 c 128,-1,17
 279 107 279 107 254.5 107 c 128,-1,18
 230 107 230 107 213 125 c 2,19,-1
 18 332 l 2,20,21
 0 350 0 350 0 375 c 0,22,23
 0 402 0 402 18 420 c 2,24,-1
 213 625 l 2,0,1
EndSplineSet
Validated: 1
EndChar

StartChar: uniF109
Encoding: 61705 61705 79
Width: 750
Flags: W
LayerCount: 2
Fore
SplineSet
750 375 m 1,0,-1
 375 0 l 1,1,-1
 375 219 l 1,2,-1
 0 219 l 1,3,-1
 0 531 l 1,4,-1
 375 531 l 1,5,-1
 375 750 l 1,6,-1
 750 375 l 1,0,-1
EndSplineSet
Validated: 1
EndChar

StartChar: uniF10A
Encoding: 61706 61706 80
Width: 375
Flags: W
LayerCount: 2
Fore
SplineSet
49 68 m 2,0,1
 43 62 43 62 31 62 c 0,2,3
 18 62 18 62 9 72 c 128,-1,4
 0 82 0 82 0 96 c 2,5,-1
 0 654 l 2,6,7
 0 668 0 668 9 677.5 c 128,-1,8
 18 687 18 687 31 687 c 0,9,10
 41 687 41 687 47 682 c 2,11,-1
 53 678 l 1,12,-1
 357 412 l 2,13,14
 375 395 375 395 375 375 c 128,-1,15
 375 355 375 355 357 338 c 2,16,-1
 53 72 l 1,17,-1
 49 68 l 2,0,1
EndSplineSet
Validated: 1
EndChar

StartChar: uniF10B
Encoding: 61707 61707 81
Width: 687
Flags: W
LayerCount: 2
Fore
SplineSet
475 625 m 2,0,-1
 670 420 l 2,1,2
 687 402 687 402 687 375 c 0,3,4
 687 350 687 350 670 332 c 2,5,-1
 475 125 l 2,6,7
 457 107 457 107 432.5 107 c 128,-1,8
 408 107 408 107 390.5 125 c 128,-1,9
 373 143 373 143 373 170 c 128,-1,10
 373 197 373 197 391 215 c 2,11,-1
 484 312 l 1,12,-1
 61 312 l 2,13,14
 35 312 35 312 17.5 331 c 128,-1,15
 0 350 0 350 0 375 c 128,-1,16
 0 400 0 400 17.5 418.5 c 128,-1,17
 35 437 35 437 61 437 c 2,18,-1
 484 437 l 1,19,-1
 389 535 l 2,20,21
 371 553 371 553 371 580 c 128,-1,22
 371 607 371 607 388.5 625 c 128,-1,23
 406 643 406 643 431.5 643 c 128,-1,24
 457 643 457 643 475 625 c 2,0,-1
EndSplineSet
Validated: 1
EndChar

StartChar: uniF10C
Encoding: 61708 61708 82
Width: 750
Flags: W
LayerCount: 2
Fore
SplineSet
375 750 m 1,0,-1
 750 375 l 1,1,-1
 531 375 l 1,2,-1
 531 0 l 1,3,-1
 219 0 l 1,4,-1
 219 375 l 1,5,-1
 0 375 l 1,6,-1
 375 750 l 1,0,-1
EndSplineSet
Validated: 1
EndChar

StartChar: uniF10D
Encoding: 61709 61709 83
Width: 625
Flags: W
LayerCount: 2
Fore
SplineSet
619 236 m 2,0,1
 625 230 625 230 625 219 c 0,2,3
 625 205 625 205 615 196 c 128,-1,4
 605 187 605 187 592 187 c 2,5,-1
 33 187 l 2,6,7
 20 187 20 187 10 196 c 128,-1,8
 0 205 0 205 0 219 c 0,9,10
 0 229 0 229 6 234 c 2,11,-1
 10 240 l 1,12,-1
 275 545 l 2,13,14
 293 562 293 562 312.5 562 c 128,-1,15
 332 562 332 562 350 545 c 2,16,-1
 615 240 l 1,17,-1
 619 236 l 2,0,1
EndSplineSet
Validated: 1
EndChar

StartChar: uniF10E
Encoding: 61710 61710 84
Width: 535
Flags: W
LayerCount: 2
Fore
SplineSet
18 506 m 2,0,-1
 223 701 l 2,1,2
 240 719 240 719 268 719 c 0,3,4
 293 719 293 719 311 701 c 2,5,-1
 518 506 l 2,6,7
 535 488 535 488 535 463.5 c 128,-1,8
 535 439 535 439 517.5 421.5 c 128,-1,9
 500 404 500 404 472.5 404 c 128,-1,10
 445 404 445 404 428 422 c 2,11,-1
 330 516 l 1,12,-1
 330 92 l 2,13,14
 330 66 330 66 311.5 48.5 c 128,-1,15
 293 31 293 31 267.5 31 c 128,-1,16
 242 31 242 31 223.5 48.5 c 128,-1,17
 205 66 205 66 205 92 c 2,18,-1
 205 516 l 1,19,-1
 107 420 l 2,20,21
 90 402 90 402 62.5 402 c 128,-1,22
 35 402 35 402 17.5 419.5 c 128,-1,23
 0 437 0 437 0 462.5 c 128,-1,24
 0 488 0 488 18 506 c 2,0,-1
EndSplineSet
Validated: 1
EndChar

StartChar: uniF118
Encoding: 61720 61720 85
Width: 812
Flags: W
LayerCount: 2
Fore
SplineSet
746 588 m 2,0,1
 773 588 773 588 792.5 569.5 c 128,-1,2
 812 551 812 551 812 523 c 2,3,-1
 812 129 l 2,4,5
 812 102 812 102 792.5 82 c 128,-1,6
 773 62 773 62 746 62 c 2,7,-1
 66 62 l 2,8,9
 39 62 39 62 19.5 82 c 128,-1,10
 0 102 0 102 0 129 c 2,11,-1
 0 523 l 2,12,13
 0 551 0 551 19.5 569.5 c 128,-1,14
 39 588 39 588 66 588 c 2,15,-1
 201 588 l 1,16,-1
 277 666 l 2,17,18
 295 687 295 687 326 687 c 2,19,-1
 490 687 l 2,20,21
 516 687 516 687 535 668 c 1,22,-1
 535 668 l 1,23,-1
 615 588 l 1,24,-1
 746 588 l 2,0,1
279 213 m 0,25,26
 332 160 332 160 406 160 c 128,-1,27
 480 160 480 160 533 214 c 128,-1,28
 586 268 586 268 586 342 c 128,-1,29
 586 416 586 416 533 469.5 c 128,-1,30
 480 523 480 523 406 523 c 128,-1,31
 332 523 332 523 279.5 469.5 c 128,-1,32
 227 416 227 416 227 342 c 128,-1,33
 227 268 227 268 279 213 c 0,25,26
707 512 m 0,34,35
 707 484 707 484 734.5 484 c 128,-1,36
 762 484 762 484 762 511.5 c 128,-1,37
 762 539 762 539 734.5 539 c 128,-1,38
 707 539 707 539 707 512 c 0,34,35
309 437 m 0,39,40
 350 479 350 479 406.5 479 c 128,-1,41
 463 479 463 479 503 438.5 c 128,-1,42
 543 398 543 398 543 341.5 c 128,-1,43
 543 285 543 285 503 245 c 128,-1,44
 463 205 463 205 406.5 205 c 128,-1,45
 350 205 350 205 310 245 c 128,-1,46
 270 285 270 285 270 341.5 c 128,-1,47
 270 398 270 398 309 437 c 0,39,40
EndSplineSet
Validated: 5
EndChar

StartChar: uniF119
Encoding: 61721 61721 86
Width: 875
Flags: W
LayerCount: 2
Fore
SplineSet
820 687 m 2,0,1
 844 687 844 687 859.5 671.5 c 128,-1,2
 875 656 875 656 875 633 c 2,3,-1
 875 117 l 2,4,5
 875 94 875 94 859.5 78 c 128,-1,6
 844 62 844 62 820 62 c 2,7,-1
 55 62 l 2,8,9
 31 62 31 62 15.5 78 c 128,-1,10
 0 94 0 94 0 117 c 1,11,-1
 0 117 l 1,12,-1
 0 633 l 1,13,-1
 0 633 l 1,14,15
 0 656 0 656 15.5 671.5 c 128,-1,16
 31 687 31 687 55 687 c 2,17,-1
 820 687 l 2,0,1
88 625 m 2,18,19
 66 625 66 625 62 602 c 1,20,-1
 62 562 l 1,21,-1
 812 562 l 1,22,-1
 812 602 l 2,23,24
 809 625 809 625 787 625 c 2,25,-1
 88 625 l 2,18,19
787 125 m 2,26,27
 809 125 809 125 812 148 c 2,28,-1
 812 375 l 1,29,-1
 62 375 l 1,30,-1
 62 148 l 1,31,32
 66 125 66 125 88 125 c 2,33,-1
 787 125 l 2,26,27
125 250 m 1,34,-1
 125 281 l 1,35,-1
 500 281 l 1,36,-1
 500 250 l 1,37,-1
 125 250 l 1,34,-1
125 187 m 1,38,-1
 125 219 l 1,39,-1
 312 219 l 1,40,-1
 312 187 l 1,41,-1
 125 187 l 1,38,-1
625 187 m 1,42,-1
 625 281 l 1,43,-1
 750 281 l 1,44,-1
 750 187 l 1,45,-1
 625 187 l 1,42,-1
EndSplineSet
Validated: 5
EndChar

StartChar: uniF11A
Encoding: 61722 61722 87
Width: 812
Flags: W
LayerCount: 2
Fore
SplineSet
148 94 m 2,0,1
 86 94 86 94 43 134 c 128,-1,2
 0 174 0 174 0 232 c 2,3,-1
 0 641 l 2,4,5
 0 699 0 699 43 740 c 128,-1,6
 86 781 86 781 148 781 c 2,7,-1
 664 781 l 2,8,9
 727 781 727 781 769.5 740 c 128,-1,10
 812 699 812 699 812 641 c 2,11,-1
 812 232 l 2,12,13
 812 174 812 174 769.5 134 c 128,-1,14
 727 94 727 94 664 94 c 2,15,-1
 656 94 l 1,16,-1
 656 -31 l 1,17,18
 502 74 502 74 488.5 84 c 128,-1,19
 475 94 475 94 447 94 c 2,20,-1
 148 94 l 2,0,1
639 482 m 0,21,22
 621 500 621 500 593.5 500 c 128,-1,23
 566 500 566 500 548.5 482.5 c 128,-1,24
 531 465 531 465 531 437.5 c 128,-1,25
 531 410 531 410 548.5 392.5 c 128,-1,26
 566 375 566 375 593.5 375 c 128,-1,27
 621 375 621 375 638.5 392.5 c 128,-1,28
 656 410 656 410 656 437.5 c 128,-1,29
 656 465 656 465 639 482 c 0,21,22
451 482 m 0,30,31
 434 500 434 500 406.5 500 c 128,-1,32
 379 500 379 500 361.5 482.5 c 128,-1,33
 344 465 344 465 344 437.5 c 128,-1,34
 344 410 344 410 361.5 392.5 c 128,-1,35
 379 375 379 375 406.5 375 c 128,-1,36
 434 375 434 375 451.5 392.5 c 128,-1,37
 469 410 469 410 469 437.5 c 128,-1,38
 469 465 469 465 451 482 c 0,30,31
264 482 m 0,39,40
 246 500 246 500 218.5 500 c 128,-1,41
 191 500 191 500 173.5 482.5 c 128,-1,42
 156 465 156 465 156 437.5 c 128,-1,43
 156 410 156 410 173.5 392.5 c 128,-1,44
 191 375 191 375 218.5 375 c 128,-1,45
 246 375 246 375 263.5 392.5 c 128,-1,46
 281 410 281 410 281 437.5 c 128,-1,47
 281 465 281 465 264 482 c 0,39,40
EndSplineSet
Validated: 1
EndChar

StartChar: uniF11B
Encoding: 61723 61723 88
Width: 812
Flags: W
LayerCount: 2
Fore
SplineSet
148 94 m 2,0,1
 86 94 86 94 43 134 c 128,-1,2
 0 174 0 174 0 232 c 2,3,-1
 0 641 l 2,4,5
 0 699 0 699 43 740 c 128,-1,6
 86 781 86 781 148 781 c 2,7,-1
 664 781 l 2,8,9
 727 781 727 781 769.5 740 c 128,-1,10
 812 699 812 699 812 641 c 2,11,-1
 812 232 l 2,12,13
 812 174 812 174 769.5 134 c 128,-1,14
 727 94 727 94 664 94 c 2,15,-1
 656 94 l 1,16,-1
 656 -31 l 1,17,18
 502 74 502 74 488.5 84 c 128,-1,19
 475 94 475 94 447 94 c 2,20,-1
 148 94 l 2,0,1
EndSplineSet
Validated: 1
EndChar

StartChar: uniF11C
Encoding: 61724 61724 89
Width: 812
Flags: W
LayerCount: 2
Fore
SplineSet
480 160 m 2,0,-1
 531 125 l 1,1,2
 525 96 525 96 496 79 c 128,-1,3
 467 62 467 62 430 62 c 2,4,-1
 254 62 l 2,5,6
 240 62 240 62 229 57 c 2,7,-1
 125 -31 l 1,8,-1
 125 62 l 1,9,-1
 94 62 l 2,10,11
 55 62 55 62 27.5 84.5 c 128,-1,12
 0 107 0 107 0 143 c 2,13,-1
 0 395 l 2,14,15
 0 432 0 432 26.5 457 c 128,-1,16
 53 482 53 482 90 482 c 2,17,-1
 94 482 l 1,18,-1
 94 285 l 2,19,20
 94 236 94 236 131 203 c 128,-1,21
 168 170 168 170 219 170 c 2,22,-1
 447 170 l 2,23,24
 465 170 465 170 480 160 c 2,0,-1
689 781 m 2,25,26
 740 781 740 781 776 747 c 128,-1,27
 812 713 812 713 812 664 c 2,28,-1
 812 336 l 2,29,30
 812 287 812 287 776 253 c 128,-1,31
 740 219 740 219 689 219 c 2,32,-1
 656 219 l 1,33,-1
 656 94 l 1,34,-1
 510 211 l 2,35,36
 502 219 502 219 477 219 c 2,37,-1
 279 219 l 2,38,39
 229 219 229 219 192.5 253 c 128,-1,40
 156 287 156 287 156 336 c 2,41,-1
 156 527 l 1,42,-1
 156 664 l 2,43,44
 156 715 156 715 185.5 748 c 128,-1,45
 215 781 215 781 266 781 c 2,46,-1
 689 781 l 2,25,26
EndSplineSet
Validated: 1
EndChar

StartChar: uniF11D
Encoding: 61725 61725 90
Width: 812
Flags: W
LayerCount: 2
Fore
SplineSet
406 -2 m 0,0,1
 238 -2 238 -2 119 112.5 c 128,-1,2
 0 227 0 227 0 389 c 128,-1,3
 0 551 0 551 119 666 c 128,-1,4
 238 781 238 781 406 781 c 128,-1,5
 574 781 574 781 693 666 c 128,-1,6
 812 551 812 551 812 389 c 0,7,8
 812 273 812 273 748 178 c 0,9,10
 746 176 746 176 744 174 c 128,-1,11
 742 172 742 172 742 170 c 0,12,13
 734 154 734 154 734 141 c 2,14,-1
 777 -31 l 1,15,-1
 613 29 l 2,16,17
 605 33 605 33 590 33 c 0,18,19
 584 33 584 33 568 29 c 0,20,21
 566 29 566 29 566 28 c 128,-1,22
 566 27 566 27 564 27 c 0,23,24
 492 -2 492 -2 406 -2 c 0,0,1
639 420 m 0,25,26
 621 437 621 437 593.5 437 c 128,-1,27
 566 437 566 437 548.5 419.5 c 128,-1,28
 531 402 531 402 531 375 c 128,-1,29
 531 348 531 348 548.5 330 c 128,-1,30
 566 312 566 312 593.5 312 c 128,-1,31
 621 312 621 312 638.5 330 c 128,-1,32
 656 348 656 348 656 375 c 128,-1,33
 656 402 656 402 639 420 c 0,25,26
451 420 m 0,34,35
 434 437 434 437 406.5 437 c 128,-1,36
 379 437 379 437 361.5 419.5 c 128,-1,37
 344 402 344 402 344 375 c 128,-1,38
 344 348 344 348 361.5 330 c 128,-1,39
 379 312 379 312 406.5 312 c 128,-1,40
 434 312 434 312 451.5 330 c 128,-1,41
 469 348 469 348 469 375 c 128,-1,42
 469 402 469 402 451 420 c 0,34,35
264 420 m 0,43,44
 246 437 246 437 218.5 437 c 128,-1,45
 191 437 191 437 173.5 419.5 c 128,-1,46
 156 402 156 402 156 375 c 128,-1,47
 156 348 156 348 173.5 330 c 128,-1,48
 191 312 191 312 218.5 312 c 128,-1,49
 246 312 246 312 263.5 330 c 128,-1,50
 281 348 281 348 281 375 c 128,-1,51
 281 402 281 402 264 420 c 0,43,44
EndSplineSet
Validated: 1
EndChar

StartChar: uniF11E
Encoding: 61726 61726 91
Width: 812
Flags: W
LayerCount: 2
Fore
SplineSet
406 -2 m 0,0,1
 238 -2 238 -2 119 112.5 c 128,-1,2
 0 227 0 227 0 389 c 128,-1,3
 0 551 0 551 119 666 c 128,-1,4
 238 781 238 781 406 781 c 128,-1,5
 574 781 574 781 693 666 c 128,-1,6
 812 551 812 551 812 389 c 0,7,8
 812 273 812 273 748 178 c 0,9,10
 746 176 746 176 744 174 c 128,-1,11
 742 172 742 172 742 170 c 0,12,13
 734 154 734 154 734 141 c 2,14,-1
 777 -31 l 1,15,-1
 613 29 l 2,16,17
 605 33 605 33 590 33 c 0,18,19
 584 33 584 33 568 29 c 0,20,21
 566 29 566 29 566 28 c 128,-1,22
 566 27 566 27 564 27 c 0,23,24
 492 -2 492 -2 406 -2 c 0,0,1
EndSplineSet
Validated: 1
EndChar

StartChar: uniF11F
Encoding: 61727 61727 92
Width: 812
Flags: W
LayerCount: 2
Fore
SplineSet
49 111 m 0,0,1
 47 113 47 113 47 113 c 1,2,-1
 47 117 l 1,3,4
 0 186 0 186 0 268 c 0,5,6
 0 393 0 393 96 475 c 1,7,8
 88 432 88 432 88 408 c 0,9,10
 88 273 88 273 187.5 176.5 c 128,-1,11
 287 80 287 80 428 80 c 0,12,13
 473 80 473 80 514 92 c 1,14,15
 426 -12 426 -12 289 -12 c 0,16,17
 236 -12 236 -12 176 12 c 1,18,-1
 174 12 l 1,19,20
 166 16 166 16 158 16 c 0,21,22
 152 16 152 16 141 12 c 2,23,-1
 31 -31 l 1,24,-1
 55 92 l 2,25,26
 55 102 55 102 49 111 c 0,0,1
473 781 m 0,27,28
 613 781 613 781 712.5 684.5 c 128,-1,29
 812 588 812 588 812 453 c 0,30,31
 812 361 812 361 758 277 c 1,32,-1
 756 275 l 2,33,34
 754 273 754 273 754 271 c 0,35,36
 748 260 748 260 748 248 c 2,37,-1
 781 104 l 1,38,-1
 646 154 l 2,39,40
 635 158 635 158 627 158 c 0,41,42
 621 158 621 158 609 154 c 2,43,-1
 605 152 l 2,44,45
 590 146 590 146 559 139 c 0,46,47
 518 127 518 127 473 127 c 0,48,49
 332 127 332 127 233.5 222.5 c 128,-1,50
 135 318 135 318 135 453 c 0,51,52
 135 488 135 488 141 521 c 0,53,54
 164 633 164 633 258 707 c 128,-1,55
 352 781 352 781 473 781 c 0,27,28
EndSplineSet
Validated: 1
EndChar

StartChar: uniF120
Encoding: 61728 61728 93
Width: 875
Flags: W
LayerCount: 2
Fore
SplineSet
127 684 m 0,0,1
 256 812 256 812 437.5 812 c 128,-1,2
 619 812 619 812 747 684.5 c 128,-1,3
 875 557 875 557 875 375 c 128,-1,4
 875 193 875 193 747 65 c 128,-1,5
 619 -63 619 -63 437.5 -63 c 128,-1,6
 256 -63 256 -63 128 65 c 128,-1,7
 0 193 0 193 0 375 c 128,-1,8
 0 557 0 557 127 684 c 0,0,1
662 521 m 2,9,10
 664 523 664 523 664 527 c 0,11,12
 664 533 664 533 662 535 c 2,13,-1
 602 582 l 2,14,15
 600 584 600 584 594 584 c 0,16,17
 590 584 590 584 588 582 c 2,18,-1
 371 303 l 1,19,20
 285 385 285 385 283 387 c 0,21,22
 277 393 277 393 271 393 c 0,23,24
 270 393 270 393 264 387 c 2,25,-1
 215 338 l 1,26,-1
 213 336 l 2,27,28
 211 334 211 334 211 328 c 0,29,30
 211 324 211 324 213 322 c 2,31,-1
 217 320 l 1,32,33
 369 174 369 174 371 172 c 0,34,35
 377 166 377 166 381 166 c 128,-1,36
 385 166 385 166 391 172 c 2,37,-1
 662 521 l 2,9,10
EndSplineSet
Validated: 1
EndChar

StartChar: uniF121
Encoding: 61729 61729 94
Width: 812
Flags: W
LayerCount: 2
Fore
SplineSet
799 623 m 2,0,-1
 395 33 l 2,1,2
 375 8 375 8 344.5 2 c 128,-1,3
 314 -4 314 -4 289 16 c 0,4,5
 273 27 273 27 207 98.5 c 128,-1,6
 141 170 141 170 82 236 c 2,7,-1
 21 303 l 2,8,9
 0 326 0 326 0 359.5 c 128,-1,10
 0 393 0 393 23.5 416 c 128,-1,11
 47 439 47 439 78 438 c 128,-1,12
 109 437 109 437 131 412 c 2,13,-1
 324 203 l 1,14,-1
 676 717 l 2,15,16
 695 742 695 742 725.5 748 c 128,-1,17
 756 754 756 754 781.5 734.5 c 128,-1,18
 807 715 807 715 812.5 682.5 c 128,-1,19
 818 650 818 650 799 623 c 2,0,-1
EndSplineSet
Validated: 33
EndChar

StartChar: uniF122
Encoding: 61730 61730 95
Width: 812
Flags: W
LayerCount: 2
Fore
SplineSet
809 660 m 1,0,1
 812 652 812 652 812 648.5 c 128,-1,2
 812 645 812 645 809 637 c 2,3,-1
 322 12 l 2,4,5
 311 0 311 0 305 0 c 0,6,7
 295 0 295 0 285 10 c 2,8,-1
 10 275 l 1,9,-1
 4 281 l 2,10,11
 0 289 0 289 0 293 c 0,12,13
 0 295 0 295 4 303 c 2,14,-1
 8 307 l 2,15,16
 62 365 62 365 94 396 c 0,17,18
 105 408 105 408 109 408 c 0,19,20
 117 408 117 408 129 396 c 2,21,-1
 285 244 l 1,22,-1
 676 746 l 2,23,24
 680 750 680 750 687 750 c 0,25,26
 693 750 693 750 701 746 c 2,27,-1
 809 660 l 1,0,1
EndSplineSet
Validated: 1
EndChar

StartChar: uniF128
Encoding: 61736 61736 96
Width: 875
Flags: W
LayerCount: 2
Fore
SplineSet
127 682 m 0,0,1
 256 811 256 811 437.5 811 c 128,-1,2
 619 811 619 811 747 683 c 128,-1,3
 875 555 875 555 875 373 c 128,-1,4
 875 191 875 191 747 63.5 c 128,-1,5
 619 -64 619 -64 437.5 -64 c 128,-1,6
 256 -64 256 -64 128 63.5 c 128,-1,7
 0 191 0 191 0 373 c 128,-1,8
 0 555 0 555 127 682 c 0,0,1
648 227 m 2,9,-1
 502 373 l 1,10,-1
 650 520 l 2,11,12
 662 531 662 531 650 543 c 2,13,-1
 607 584 l 2,14,15
 602 590 602 590 596 590 c 0,16,17
 592 590 592 590 586 584 c 2,18,-1
 437 439 l 1,19,-1
 289 584 l 2,20,21
 283 590 283 590 279 590 c 0,22,23
 273 590 273 590 268 584 c 2,24,-1
 227 543 l 2,25,26
 215 531 215 531 227 520 c 2,27,-1
 375 373 l 1,28,-1
 227 225 l 2,29,30
 223 223 223 223 223 215 c 128,-1,31
 223 207 223 207 227 203 c 2,32,-1
 268 160 l 2,33,34
 271 156 271 156 279 156 c 128,-1,35
 287 156 287 156 291 160 c 2,36,-1
 437 309 l 1,37,-1
 586 162 l 2,38,39
 592 156 592 156 596 156 c 0,40,41
 602 156 602 156 607 162 c 2,42,-1
 648 203 l 2,43,44
 654 207 654 207 654 215 c 0,45,46
 654 221 654 221 648 227 c 2,9,-1
EndSplineSet
Validated: 1
EndChar

StartChar: uniF129
Encoding: 61737 61737 97
Width: 750
Flags: W
LayerCount: 2
Fore
SplineSet
730 119 m 2,0,1
 750 98 750 98 750 68.5 c 128,-1,2
 750 39 750 39 730.5 19.5 c 128,-1,3
 711 0 711 0 681.5 0 c 128,-1,4
 652 0 652 0 631 20 c 2,5,-1
 375 275 l 1,6,-1
 119 20 l 2,7,8
 98 0 98 0 70.5 0 c 128,-1,9
 43 0 43 0 21.5 19.5 c 128,-1,10
 0 39 0 39 0 68.5 c 128,-1,11
 0 98 0 98 21 119 c 2,12,-1
 275 375 l 1,13,-1
 21 631 l 2,14,15
 0 652 0 652 0 681.5 c 128,-1,16
 0 711 0 711 21.5 730.5 c 128,-1,17
 43 750 43 750 70.5 750 c 128,-1,18
 98 750 98 750 119 730 c 2,19,-1
 375 475 l 1,20,-1
 631 730 l 2,21,22
 652 750 652 750 681.5 750 c 128,-1,23
 711 750 711 750 730.5 730.5 c 128,-1,24
 750 711 750 711 750 681.5 c 128,-1,25
 750 652 750 652 730 631 c 2,26,-1
 475 375 l 1,27,-1
 730 119 l 2,0,1
EndSplineSet
Validated: 1
EndChar

StartChar: uniF12A
Encoding: 61738 61738 98
Width: 750
Flags: W
LayerCount: 2
Fore
SplineSet
742 119 m 2,0,1
 750 111 750 111 750 99.5 c 128,-1,2
 750 88 750 88 742 80 c 2,3,-1
 668 8 l 2,4,5
 660 0 660 0 650 0 c 0,6,7
 639 0 639 0 631 8 c 2,8,-1
 375 264 l 1,9,-1
 119 8 l 2,10,11
 111 0 111 0 102 0 c 0,12,13
 90 0 90 0 82 8 c 2,14,-1
 8 80 l 2,15,16
 0 88 0 88 0 99.5 c 128,-1,17
 0 111 0 111 8 119 c 2,18,-1
 266 375 l 1,19,-1
 8 629 l 2,20,21
 -12 648 -12 648 8 668 c 2,22,-1
 80 742 l 2,23,24
 92 750 92 750 100 750 c 0,25,26
 111 750 111 750 119 742 c 2,27,-1
 375 488 l 1,28,-1
 631 742 l 2,29,30
 643 750 643 750 650 750 c 0,31,32
 662 750 662 750 670 742 c 2,33,-1
 742 668 l 2,34,35
 762 648 762 648 742 631 c 2,36,-1
 484 377 l 1,37,-1
 742 119 l 2,0,1
EndSplineSet
Validated: 33
EndChar

StartChar: uniF12B
Encoding: 61739 61739 99
Width: 875
Flags: W
LayerCount: 2
Fore
SplineSet
715 420 m 1,0,1
 781 420 781 420 828 372 c 128,-1,2
 875 324 875 324 875 256 c 0,3,4
 875 189 875 189 828 141.5 c 128,-1,5
 781 94 781 94 715 94 c 2,6,-1
 176 94 l 2,7,8
 104 94 104 94 52 146.5 c 128,-1,9
 0 199 0 199 0 271 c 0,10,11
 0 330 0 330 33 376 c 128,-1,12
 66 422 66 422 119 439 c 1,13,14
 127 482 127 482 159 510.5 c 128,-1,15
 191 539 191 539 234 539 c 0,16,17
 258 539 258 539 285 525 c 1,18,19
 312 584 312 584 368 620 c 128,-1,20
 424 656 424 656 490 656 c 0,21,22
 584 656 584 656 649.5 588.5 c 128,-1,23
 715 521 715 521 715 426 c 2,24,-1
 715 420 l 1,0,1
EndSplineSet
Validated: 1
EndChar

StartChar: uniF12C
Encoding: 61740 61740 100
Width: 750
Flags: W
LayerCount: 2
Fore
SplineSet
740 680 m 2,0,1
 766 656 766 656 740 631 c 2,2,-1
 678 570 l 1,3,-1
 570 678 l 1,4,-1
 631 740 l 2,5,6
 656 766 656 766 680 740 c 2,7,-1
 740 680 l 2,0,1
551 660 m 1,8,-1
 658 553 l 1,9,-1
 312 215 l 1,10,-1
 187 187 l 1,11,-1
 215 312 l 1,12,-1
 551 660 l 1,8,-1
625 375 m 1,13,-1
 687 437 l 1,14,-1
 687 45 l 2,15,16
 687 25 687 25 674.5 12.5 c 128,-1,17
 662 0 662 0 643 0 c 2,18,-1
 45 0 l 2,19,20
 25 0 25 0 12.5 12.5 c 128,-1,21
 0 25 0 25 0 45 c 2,22,-1
 0 643 l 2,23,24
 0 662 0 662 12.5 674.5 c 128,-1,25
 25 687 25 687 45 687 c 2,26,-1
 437 687 l 1,27,-1
 375 625 l 1,28,-1
 84 625 l 2,29,30
 62 625 62 625 62 605 c 2,31,-1
 62 82 l 2,32,33
 62 62 62 62 82 62 c 2,34,-1
 607 62 l 2,35,36
 625 62 625 62 625 82 c 2,37,-1
 625 375 l 1,13,-1
EndSplineSet
Validated: 33
EndChar

StartChar: uniF12E
Encoding: 61742 61742 101
Width: 562
Flags: W
LayerCount: 2
Fore
SplineSet
559 545 m 2,0,1
 562 533 562 533 562 525 c 2,2,-1
 562 47 l 2,3,4
 562 27 562 27 549.5 13.5 c 128,-1,5
 537 0 537 0 520 0 c 2,6,-1
 45 0 l 2,7,8
 27 0 27 0 13.5 13.5 c 128,-1,9
 0 27 0 27 0 47 c 2,10,-1
 0 703 l 2,11,12
 0 723 0 723 13.5 736.5 c 128,-1,13
 27 750 27 750 45 750 c 2,14,-1
 357 750 l 2,15,16
 369 750 369 750 375 746 c 0,17,18
 383 742 383 742 389 736 c 2,19,-1
 553 557 l 1,20,-1
 559 545 l 2,0,1
94 525 m 2,21,-1
 94 506 l 2,22,23
 94 500 94 500 100 500 c 2,24,-1
 238 500 l 2,25,26
 244 500 244 500 244 506 c 2,27,-1
 244 525 l 2,28,29
 244 531 244 531 238 531 c 2,30,-1
 100 531 l 2,31,32
 94 531 94 531 94 525 c 2,21,-1
94 275 m 2,33,-1
 94 256 l 2,34,35
 94 250 94 250 100 250 c 2,36,-1
 340 250 l 2,37,38
 344 250 344 250 344 256 c 2,39,-1
 344 275 l 2,40,41
 344 281 344 281 340 281 c 2,42,-1
 100 281 l 2,43,44
 94 281 94 281 94 275 c 2,33,-1
406 131 m 2,45,-1
 406 150 l 2,46,47
 406 156 406 156 402 156 c 2,48,-1
 100 156 l 2,49,50
 94 156 94 156 94 150 c 2,51,-1
 94 131 l 2,52,53
 94 125 94 125 100 125 c 2,54,-1
 402 125 l 2,55,56
 406 125 406 125 406 131 c 2,45,-1
469 381 m 2,57,-1
 469 400 l 2,58,59
 469 406 469 406 465 406 c 2,60,-1
 100 406 l 2,61,62
 94 406 94 406 94 400 c 2,63,-1
 94 381 l 2,64,65
 94 375 94 375 100 375 c 2,66,-1
 465 375 l 2,67,68
 469 375 469 375 469 381 c 2,57,-1
377 527 m 2,69,-1
 494 527 l 1,70,-1
 355 680 l 1,71,-1
 355 551 l 2,72,73
 355 527 355 527 377 527 c 2,69,-1
EndSplineSet
Validated: 1
EndChar

StartChar: uniF12F
Encoding: 61743 61743 102
Width: 562
Flags: W
LayerCount: 2
Fore
SplineSet
561 545 m 0,0,1
 562 539 562 539 562 527 c 2,2,-1
 562 51 l 2,3,4
 562 31 562 31 550.5 15.5 c 128,-1,5
 539 0 539 0 521 0 c 2,6,-1
 47 0 l 2,7,8
 29 0 29 0 14.5 15.5 c 128,-1,9
 0 31 0 31 0 51 c 2,10,-1
 0 705 l 2,11,12
 0 723 0 723 14.5 736.5 c 128,-1,13
 29 750 29 750 47 750 c 2,14,-1
 359 750 l 2,15,16
 371 750 371 750 377 746 c 0,17,18
 389 740 389 740 391 738 c 2,19,-1
 553 559 l 2,20,21
 559 553 559 553 561 545 c 0,0,1
377 658 m 1,22,-1
 377 535 l 1,23,-1
 490 535 l 1,24,-1
 377 658 l 1,22,-1
62 62 m 1,25,-1
 500 62 l 1,26,-1
 500 473 l 1,27,-1
 369 473 l 2,28,29
 348 473 348 473 331 489.5 c 128,-1,30
 314 506 314 506 314 527 c 2,31,-1
 314 687 l 1,32,-1
 62 687 l 1,33,-1
 62 62 l 1,25,-1
EndSplineSet
Validated: 1
EndChar

StartChar: uniF130
Encoding: 61744 61744 103
Width: 1000
Flags: W
LayerCount: 2
Fore
SplineSet
0 531 m 1,0,-1
 0 594 l 1,1,-1
 1000 594 l 1,2,-1
 1000 531 l 1,3,-1
 0 531 l 1,0,-1
0 344 m 1,4,-1
 0 406 l 1,5,-1
 1000 406 l 1,6,-1
 1000 344 l 1,7,-1
 0 344 l 1,4,-1
0 156 m 1,8,-1
 0 219 l 1,9,-1
 1000 219 l 1,10,-1
 1000 156 l 1,11,-1
 0 156 l 1,8,-1
EndSplineSet
Validated: 1
EndChar

StartChar: uniF131
Encoding: 61745 61745 104
Width: 625
Flags: W
LayerCount: 2
Fore
SplineSet
592 250 m 2,0,-1
 33 250 l 2,1,2
 0 250 0 250 0 281 c 0,3,4
 0 289 0 289 6 297 c 2,5,-1
 275 670 l 1,6,7
 293 687 293 687 312.5 687 c 128,-1,8
 332 687 332 687 350 670 c 1,9,-1
 619 299 l 2,10,11
 625 289 625 289 625 281 c 0,12,13
 625 250 625 250 592 250 c 2,0,-1
602 187 m 2,14,15
 625 187 625 187 625 164 c 2,16,-1
 625 86 l 2,17,18
 625 62 625 62 602 62 c 2,19,-1
 23 62 l 2,20,21
 0 62 0 62 0 86 c 2,22,-1
 0 164 l 2,23,24
 0 187 0 187 23 187 c 2,25,-1
 602 187 l 2,14,15
EndSplineSet
Validated: 1
EndChar

StartChar: uniF132
Encoding: 61746 61746 105
Width: 812
Flags: W
LayerCount: 2
Fore
SplineSet
37 584 m 0,0,1
 18 594 18 594 12 605 c 0,2,3
 8 617 8 617 13 621 c 128,-1,4
 18 625 18 625 35 625 c 2,5,-1
 408 625 l 1,6,-1
 781 625 l 2,7,8
 799 625 799 625 804 621 c 128,-1,9
 809 617 809 617 805 605 c 0,10,11
 799 594 799 594 779 584 c 0,12,13
 457 408 457 408 449 404 c 0,14,15
 434 396 434 396 408.5 396 c 128,-1,16
 383 396 383 396 367 404 c 0,17,18
 359 408 359 408 37 584 c 0,0,1
797 576 m 0,19,20
 811 578 811 578 811.5 577 c 128,-1,21
 812 576 812 576 812 566 c 2,22,-1
 812 166 l 2,23,24
 812 152 812 152 797.5 138.5 c 128,-1,25
 783 125 783 125 770 125 c 2,26,-1
 408 125 l 1,27,-1
 47 125 l 2,28,29
 31 125 31 125 15.5 138.5 c 128,-1,30
 0 152 0 152 0 166 c 2,31,-1
 0 566 l 2,32,33
 0 584 0 584 18 576 c 0,34,35
 23 572 23 572 66 544 c 128,-1,36
 109 516 109 516 172.5 473 c 128,-1,37
 236 430 236 430 275 404 c 1,38,-1
 113 223 l 2,39,40
 107 217 107 217 111 213 c 0,41,42
 113 211 113 211 117 212 c 128,-1,43
 121 213 121 213 123 215 c 2,44,-1
 314 377 l 1,45,46
 355 350 355 350 367 344 c 0,47,48
 383 336 383 336 408.5 336 c 128,-1,49
 434 336 434 336 449 344 c 0,50,51
 461 350 461 350 502 377 c 1,52,-1
 693 215 l 2,53,54
 695 213 695 213 699 212 c 128,-1,55
 703 211 703 211 705 213 c 128,-1,56
 707 215 707 215 701 223 c 2,57,-1
 541 404 l 1,58,59
 580 430 580 430 642.5 473 c 128,-1,60
 705 516 705 516 748 544 c 128,-1,61
 791 572 791 572 797 576 c 0,19,20
EndSplineSet
Validated: 1
EndChar

StartChar: uniF133
Encoding: 61747 61747 106
Width: 875
Flags: W
LayerCount: 2
Fore
SplineSet
437 625 m 0,0,1
 652 625 652 625 875 373 c 1,2,3
 822 320 822 320 807.5 306.5 c 128,-1,4
 793 293 793 293 736.5 246 c 128,-1,5
 680 199 680 199 644.5 181.5 c 128,-1,6
 609 164 609 164 551.5 144.5 c 128,-1,7
 494 125 494 125 437 125 c 0,8,9
 367 125 367 125 308.5 142.5 c 128,-1,10
 250 160 250 160 191.5 203 c 128,-1,11
 133 246 133 246 99.5 276.5 c 128,-1,12
 66 307 66 307 0 375 c 1,13,14
 127 502 127 502 225.5 563.5 c 128,-1,15
 324 625 324 625 437 625 c 0,0,1
312 250 m 0,16,17
 365 197 365 197 437.5 197 c 128,-1,18
 510 197 510 197 561.5 250 c 128,-1,19
 613 303 613 303 613 375 c 128,-1,20
 613 447 613 447 561.5 500 c 128,-1,21
 510 553 510 553 437.5 553 c 128,-1,22
 365 553 365 553 313.5 500 c 128,-1,23
 262 447 262 447 262 375 c 128,-1,24
 262 303 262 303 312 250 c 0,16,17
437 437 m 0,25,26
 437 410 437 410 455 392.5 c 128,-1,27
 473 375 473 375 500 375 c 0,28,29
 520 375 520 375 539 389 c 1,30,-1
 539 375 l 2,31,32
 539 332 539 332 509.5 301.5 c 128,-1,33
 480 271 480 271 437.5 271 c 128,-1,34
 395 271 395 271 365.5 301.5 c 128,-1,35
 336 332 336 332 336 375 c 128,-1,36
 336 418 336 418 365.5 448.5 c 128,-1,37
 395 479 395 479 437 479 c 2,38,-1
 453 479 l 1,39,40
 437 459 437 459 437 437 c 0,25,26
EndSplineSet
Validated: 1
EndChar

StartChar: uniF134
Encoding: 61748 61748 107
Width: 750
Flags: W
LayerCount: 2
Fore
SplineSet
619 623 m 2,0,1
 633 623 633 623 639.5 622 c 128,-1,2
 646 621 646 621 651 612.5 c 128,-1,3
 656 604 656 604 656 584 c 2,4,-1
 656 529 l 1,5,-1
 94 529 l 1,6,-1
 94 584 l 2,7,8
 94 611 94 611 102.5 617 c 128,-1,9
 111 623 111 623 133 623 c 2,10,-1
 619 623 l 2,0,1
525 687 m 2,11,12
 547 687 547 687 554.5 681.5 c 128,-1,13
 562 676 562 676 562 650 c 1,14,-1
 187 650 l 1,15,16
 187 668 187 668 192 676 c 128,-1,17
 197 684 197 684 204 685.5 c 128,-1,18
 211 687 211 687 227 687 c 2,19,-1
 525 687 l 2,11,12
719 543 m 2,20,21
 754 521 754 521 748 463 c 2,22,-1
 715 104 l 1,23,24
 707 62 707 62 668 62 c 2,25,-1
 82 62 l 2,26,27
 43 62 43 62 35 104 c 1,28,-1
 2 465 l 2,29,30
 -2 502 -2 502 4 515.5 c 128,-1,31
 10 529 10 529 31 543 c 2,32,-1
 61 562 l 1,33,-1
 61 500 l 1,34,-1
 687 500 l 1,35,-1
 687 562 l 1,36,-1
 719 543 l 2,20,21
EndSplineSet
Validated: 33
EndChar

StartChar: uniF135
Encoding: 61749 61749 108
Width: 812
Flags: W
LayerCount: 2
Fore
SplineSet
781 469 m 2,0,1
 795 469 795 469 803.5 460 c 128,-1,2
 812 451 812 451 812 439 c 2,3,-1
 812 29 l 2,4,5
 812 18 812 18 803.5 9 c 128,-1,6
 795 0 795 0 781 0 c 2,7,-1
 31 0 l 2,8,9
 18 0 18 0 9 9 c 128,-1,10
 0 18 0 18 0 29 c 2,11,-1
 0 439 l 2,12,13
 0 465 0 465 25 469 c 1,14,15
 20 473 20 473 18 482 c 2,16,-1
 0 570 l 2,17,18
 -6 598 -6 598 25 605 c 2,19,-1
 748 750 l 2,20,21
 775 758 775 758 783 727 c 2,22,-1
 801 637 l 2,23,24
 809 609 809 609 777 602 c 2,25,-1
 109 469 l 1,26,-1
 781 469 l 2,0,1
502 90 m 1,27,-1
 463 203 l 1,28,-1
 562 273 l 1,29,-1
 441 273 l 1,30,-1
 402 387 l 1,31,-1
 365 273 l 1,32,-1
 242 273 l 1,33,-1
 342 203 l 1,34,-1
 305 90 l 1,35,-1
 402 160 l 1,36,-1
 502 90 l 1,27,-1
EndSplineSet
Validated: 33
EndChar

StartChar: uniF137
Encoding: 61751 61751 109
Width: 625
Flags: W
LayerCount: 2
Fore
SplineSet
0 312 m 1,0,-1
 437 812 l 1,1,-1
 338 437 l 1,2,-1
 625 437 l 1,3,-1
 187 -63 l 1,4,-1
 287 312 l 1,5,-1
 0 312 l 1,0,-1
EndSplineSet
Validated: 1
EndChar

StartChar: uniF138
Encoding: 61752 61752 110
Width: 750
Flags: W
LayerCount: 2
Fore
SplineSet
746 41 m 2,0,1
 754 25 754 25 746 14 c 0,2,3
 736 0 736 0 721 0 c 2,4,-1
 375 0 l 1,5,-1
 27 0 l 2,6,7
 14 0 14 0 4 14 c 0,8,9
 -4 25 -4 25 4 41 c 2,10,-1
 234 430 l 1,11,-1
 234 723 l 2,12,13
 234 750 234 750 262 750 c 0,14,15
 291 750 291 750 291 723 c 2,16,-1
 291 566 l 1,17,18
 305 576 305 576 322 576 c 0,19,20
 344 576 344 576 359.5 560.5 c 128,-1,21
 375 545 375 545 375 523.5 c 128,-1,22
 375 502 375 502 359.5 487.5 c 128,-1,23
 344 473 344 473 322 473 c 0,24,25
 305 473 305 473 291 482 c 1,26,-1
 291 422 l 2,27,28
 291 418 291 418 287 410 c 2,29,-1
 219 295 l 1,30,-1
 359 295 l 1,31,32
 309 314 309 314 309 367 c 0,33,34
 309 400 309 400 333 424.5 c 128,-1,35
 357 449 357 449 393 449 c 0,36,37
 434 449 434 449 461 412 c 1,38,39
 459 416 459 416 459 422 c 2,40,-1
 459 723 l 2,41,42
 459 750 459 750 486 750 c 0,43,44
 516 750 516 750 516 723 c 2,45,-1
 516 430 l 1,46,-1
 746 41 l 2,0,1
426 295 m 1,47,-1
 529 295 l 1,48,-1
 469 400 l 2,49,50
 475 387 475 387 475 367 c 0,51,52
 475 314 475 314 426 295 c 1,47,-1
422 635 m 0,53,54
 410 623 410 623 392.5 623 c 128,-1,55
 375 623 375 623 362.5 634.5 c 128,-1,56
 350 646 350 646 350 664 c 128,-1,57
 350 682 350 682 362.5 693.5 c 128,-1,58
 375 705 375 705 392.5 705 c 128,-1,59
 410 705 410 705 423 693.5 c 128,-1,60
 436 682 436 682 436 664 c 128,-1,61
 436 646 436 646 422 635 c 0,53,54
EndSplineSet
Validated: 1
EndChar

StartChar: uniF139
Encoding: 61753 61753 111
Width: 750
Flags: W
LayerCount: 2
Fore
SplineSet
715 500 m 2,0,1
 738 500 738 500 745 492 c 128,-1,2
 752 484 752 484 750 465 c 2,3,-1
 727 102 l 2,4,5
 725 88 725 88 723 81 c 128,-1,6
 721 74 721 74 711 68 c 128,-1,7
 701 62 701 62 686 62 c 2,8,-1
 66 62 l 2,9,10
 43 62 43 62 35 72 c 128,-1,11
 27 82 27 82 25 102 c 2,12,-1
 0 461 l 2,13,14
 -4 500 -4 500 35 500 c 2,15,-1
 715 500 l 2,0,1
707 596 m 2,16,-1
 711 531 l 1,17,-1
 39 531 l 1,18,19
 39 555 39 555 51 654 c 0,20,21
 53 672 53 672 58.5 679 c 128,-1,22
 64 686 64 686 71 686.5 c 128,-1,23
 78 687 78 687 100 687 c 2,24,-1
 246 687 l 2,25,26
 285 687 285 687 291 684.5 c 128,-1,27
 297 682 297 682 318 658 c 0,28,29
 340 633 340 633 351.5 629 c 128,-1,30
 363 625 363 625 398 625 c 2,31,-1
 678 625 l 2,32,33
 707 625 707 625 707 596 c 2,16,-1
EndSplineSet
Validated: 33
EndChar

StartChar: uniF13A
Encoding: 61754 61754 112
Width: 750
Flags: W
LayerCount: 2
Fore
SplineSet
437 293 m 1,0,1
 266 293 266 293 169 256 c 128,-1,2
 72 219 72 219 0 94 c 1,3,4
 4 109 4 109 11 137.5 c 128,-1,5
 18 166 18 166 50 235.5 c 128,-1,6
 82 305 82 305 126 358.5 c 128,-1,7
 170 412 170 412 253 456 c 128,-1,8
 336 500 336 500 437 500 c 1,9,-1
 437 656 l 1,10,-1
 750 375 l 1,11,-1
 437 113 l 1,12,-1
 437 293 l 1,0,1
EndSplineSet
Validated: 1
EndChar

StartChar: uniF13D
Encoding: 61757 61757 113
Width: 750
Flags: W
LayerCount: 2
Fore
SplineSet
750 266 m 1,0,1
 740 234 740 234 719 191 c 1,2,3
 652 207 652 207 598 152 c 0,4,5
 549 104 549 104 566 31 c 1,6,7
 523 10 523 10 492 0 c 1,8,9
 449 72 449 72 375 72 c 128,-1,10
 301 72 301 72 258 0 c 1,11,12
 223 12 223 12 182 31 c 1,13,14
 199 105 199 105 152 152 c 128,-1,15
 105 199 105 199 31 182 c 1,16,17
 12 223 12 223 0 258 c 1,18,19
 72 301 72 301 72 375 c 0,20,21
 72 441 72 441 0 484 c 1,22,23
 14 527 14 527 31 559 c 1,24,25
 98 543 98 543 152 598 c 0,26,27
 199 645 199 645 182 719 c 1,28,29
 223 738 223 738 258 750 c 1,30,31
 301 678 301 678 375 678 c 128,-1,32
 449 678 449 678 492 750 c 1,33,34
 527 738 527 738 568 719 c 1,35,36
 551 645 551 645 598 598 c 0,37,38
 652 543 652 543 719 559 c 1,39,40
 740 516 740 516 750 484 c 1,41,42
 678 441 678 441 678 375 c 128,-1,43
 678 309 678 309 750 266 c 1,0,1
240 240 m 0,44,45
 297 184 297 184 375 184 c 128,-1,46
 453 184 453 184 509.5 240.5 c 128,-1,47
 566 297 566 297 566 375 c 128,-1,48
 566 453 566 453 509.5 509.5 c 128,-1,49
 453 566 453 566 375 566 c 128,-1,50
 297 566 297 566 240.5 509.5 c 128,-1,51
 184 453 184 453 184 375 c 128,-1,52
 184 297 184 297 240 240 c 0,44,45
EndSplineSet
Validated: 33
EndChar

StartChar: uniF13E
Encoding: 61758 61758 114
Width: 750
Flags: W
LayerCount: 2
Fore
SplineSet
750 301 m 1,0,-1
 664 301 l 1,1,2
 652 264 652 264 631 225 c 1,3,-1
 693 162 l 1,4,-1
 588 57 l 1,5,-1
 523 119 l 1,6,7
 496 104 496 104 449 90 c 1,8,-1
 449 0 l 1,9,-1
 301 0 l 1,10,-1
 301 90 l 1,11,12
 250 105 250 105 227 119 c 1,13,-1
 162 57 l 1,14,-1
 57 162 l 1,15,-1
 119 225 l 1,16,17
 98 264 98 264 86 301 c 1,18,-1
 0 301 l 1,19,-1
 0 449 l 1,20,-1
 84 449 l 1,21,22
 100 502 100 502 115 529 c 1,23,-1
 57 588 l 1,24,-1
 162 693 l 1,25,-1
 219 637 l 1,26,27
 252 656 252 656 301 670 c 1,28,-1
 301 750 l 1,29,-1
 449 750 l 1,30,-1
 449 670 l 1,31,32
 498 656 498 656 531 637 c 1,33,-1
 588 693 l 1,34,-1
 693 588 l 1,35,-1
 635 529 l 1,36,37
 656 490 656 490 666 449 c 1,38,-1
 750 449 l 1,39,-1
 750 301 l 1,0,-1
301 301 m 256,40,41
 332 270 332 270 375 270 c 128,-1,42
 418 270 418 270 449 301 c 128,-1,43
 480 332 480 332 480 375 c 128,-1,44
 480 418 480 418 449 449 c 128,-1,45
 418 480 418 480 375 480 c 128,-1,46
 332 480 332 480 301 449 c 128,-1,47
 270 418 270 418 270 375 c 128,-1,48
 270 332 270 332 301 301 c 256,40,41
EndSplineSet
Validated: 1
EndChar

StartChar: uniF13F
Encoding: 61759 61759 115
Width: 625
Flags: W
LayerCount: 2
Fore
SplineSet
125 576 m 2,0,1
 125 562 125 562 111 562 c 2,2,-1
 14 562 l 2,3,4
 0 562 0 562 0 576 c 2,5,-1
 0 674 l 2,6,7
 0 687 0 687 14 687 c 2,8,-1
 111 687 l 2,9,10
 125 687 125 687 125 674 c 2,11,-1
 125 576 l 2,0,1
375 576 m 2,12,13
 375 562 375 562 361 562 c 2,14,-1
 264 562 l 2,15,16
 250 562 250 562 250 576 c 2,17,-1
 250 674 l 2,18,19
 250 687 250 687 264 687 c 2,20,-1
 361 687 l 2,21,22
 375 687 375 687 375 674 c 2,23,-1
 375 576 l 2,12,13
625 576 m 2,24,25
 625 562 625 562 611 562 c 2,26,-1
 514 562 l 2,27,28
 500 562 500 562 500 576 c 2,29,-1
 500 674 l 2,30,31
 500 687 500 687 514 687 c 2,32,-1
 611 687 l 2,33,34
 625 687 625 687 625 674 c 2,35,-1
 625 576 l 2,24,25
125 326 m 2,36,37
 125 312 125 312 111 312 c 2,38,-1
 14 312 l 2,39,40
 0 312 0 312 0 326 c 2,41,-1
 0 424 l 2,42,43
 0 437 0 437 14 437 c 2,44,-1
 111 437 l 2,45,46
 125 437 125 437 125 424 c 2,47,-1
 125 326 l 2,36,37
375 326 m 2,48,49
 375 312 375 312 361 312 c 2,50,-1
 264 312 l 2,51,52
 250 312 250 312 250 326 c 2,53,-1
 250 424 l 2,54,55
 250 437 250 437 264 437 c 2,56,-1
 361 437 l 2,57,58
 375 437 375 437 375 424 c 2,59,-1
 375 326 l 2,48,49
625 326 m 2,60,61
 625 312 625 312 611 312 c 2,62,-1
 514 312 l 2,63,64
 500 312 500 312 500 326 c 2,65,-1
 500 424 l 2,66,67
 500 437 500 437 514 437 c 2,68,-1
 611 437 l 2,69,70
 625 437 625 437 625 424 c 2,71,-1
 625 326 l 2,60,61
125 76 m 2,72,73
 125 62 125 62 111 62 c 2,74,-1
 14 62 l 2,75,76
 0 62 0 62 0 76 c 2,77,-1
 0 174 l 2,78,79
 0 187 0 187 14 187 c 2,80,-1
 111 187 l 2,81,82
 125 187 125 187 125 174 c 2,83,-1
 125 76 l 2,72,73
375 76 m 2,84,85
 375 62 375 62 361 62 c 2,86,-1
 264 62 l 2,87,88
 250 62 250 62 250 76 c 2,89,-1
 250 174 l 2,90,91
 250 187 250 187 264 187 c 2,92,-1
 361 187 l 2,93,94
 375 187 375 187 375 174 c 2,95,-1
 375 76 l 2,84,85
625 76 m 2,96,97
 625 62 625 62 611 62 c 2,98,-1
 514 62 l 2,99,100
 500 62 500 62 500 76 c 2,101,-1
 500 174 l 2,102,103
 500 187 500 187 514 187 c 2,104,-1
 611 187 l 2,105,106
 625 187 625 187 625 174 c 2,107,-1
 625 76 l 2,96,97
EndSplineSet
Validated: 1
EndChar

StartChar: uniF140
Encoding: 61760 61760 116
Width: 750
Flags: W
LayerCount: 2
Fore
SplineSet
748 410 m 0,0,1
 752 334 752 334 744 237.5 c 128,-1,2
 736 141 736 141 723 94 c 0,3,4
 695 0 695 0 664 -31.5 c 128,-1,5
 633 -63 633 -63 582 -63 c 0,6,7
 535 -63 535 -63 502 -28.5 c 128,-1,8
 469 6 469 6 469 53 c 2,9,-1
 469 260 l 2,10,11
 469 309 469 309 499 342 c 128,-1,12
 529 375 529 375 572 375 c 0,13,14
 627 375 627 375 658 328 c 1,15,16
 680 342 680 342 684 371 c 0,17,18
 691 436 691 436 674 496 c 0,19,20
 664 529 664 529 638.5 544 c 128,-1,21
 613 559 613 559 604 570 c 0,22,23
 596 582 596 582 588 590 c 2,24,-1
 568 609 l 2,25,26
 562 615 562 615 559 617 c 0,27,28
 520 650 520 650 492 662 c 0,29,30
 439 687 439 687 375 687 c 0,31,32
 309 687 309 687 256 662 c 0,33,34
 234 652 234 652 191 617 c 0,35,36
 187 615 187 615 182 609 c 2,37,-1
 162 590 l 2,38,39
 154 582 154 582 146 570 c 0,40,41
 137 559 137 559 111.5 544 c 128,-1,42
 86 529 86 529 76 496 c 0,43,44
 59 434 59 434 66 371 c 0,45,46
 68 357 68 357 74 346.5 c 128,-1,47
 80 336 80 336 86 332 c 2,48,-1
 92 328 l 1,49,50
 123 375 123 375 178 375 c 0,51,52
 221 375 221 375 251 341 c 128,-1,53
 281 307 281 307 281 260 c 2,54,-1
 281 53 l 2,55,56
 281 6 281 6 248 -28.5 c 128,-1,57
 215 -63 215 -63 168 -63 c 0,58,59
 117 -63 117 -63 86 -31.5 c 128,-1,60
 55 0 55 0 27 94 c 0,61,62
 14 141 14 141 6 237.5 c 128,-1,63
 -2 334 -2 334 2 410 c 0,64,65
 10 584 10 584 111 693 c 0,66,67
 148 732 148 732 158 738 c 0,68,69
 184 758 184 758 215 773 c 0,70,71
 289 812 289 812 375 812 c 128,-1,72
 461 812 461 812 535 773 c 0,73,74
 562 760 562 760 590 738 c 0,75,76
 607 725 607 725 639 693 c 0,77,78
 740 584 740 584 748 410 c 0,0,1
EndSplineSet
Validated: 33
EndChar

StartChar: uniF141
Encoding: 61761 61761 117
Width: 812
Flags: W
LayerCount: 2
Fore
SplineSet
746 687 m 0,0,1
 812 619 812 619 812 520.5 c 128,-1,2
 812 422 812 422 746 354 c 2,3,-1
 406 0 l 1,4,-1
 66 354 l 2,5,6
 0 422 0 422 0 520.5 c 128,-1,7
 0 619 0 619 66 687 c 0,8,9
 125 750 125 750 210 750 c 128,-1,10
 295 750 295 750 354 687 c 2,11,-1
 406 633 l 1,12,-1
 461 687 l 2,13,14
 520 750 520 750 603.5 750 c 128,-1,15
 687 750 687 750 746 687 c 0,0,1
EndSplineSet
Validated: 1
EndChar

StartChar: uniF142
Encoding: 61762 61762 118
Width: 875
Flags: W
LayerCount: 2
Fore
SplineSet
127 684 m 0,0,1
 256 812 256 812 437.5 812 c 128,-1,2
 619 812 619 812 747 684.5 c 128,-1,3
 875 557 875 557 875 375 c 128,-1,4
 875 193 875 193 747 65 c 128,-1,5
 619 -63 619 -63 437.5 -63 c 128,-1,6
 256 -63 256 -63 128 65 c 128,-1,7
 0 193 0 193 0 375 c 128,-1,8
 0 557 0 557 127 684 c 0,0,1
477 174 m 0,9,10
 479 199 479 199 462 216.5 c 128,-1,11
 445 234 445 234 420 234 c 0,12,13
 396 234 396 234 378.5 218.5 c 128,-1,14
 361 203 361 203 361 177.5 c 128,-1,15
 361 152 361 152 377 135.5 c 128,-1,16
 393 119 393 119 416 119 c 0,17,18
 441 119 441 119 459 133.5 c 128,-1,19
 477 148 477 148 477 174 c 0,9,10
572 424 m 0,20,21
 596 457 596 457 596 494 c 0,22,23
 596 559 596 559 547 596 c 0,24,25
 500 631 500 631 426 631 c 0,26,27
 371 631 371 631 334 605 c 0,28,29
 279 568 279 568 279 473 c 1,30,-1
 375 473 l 1,31,32
 375 514 375 514 383 525 c 0,33,34
 400 555 400 555 433.5 555 c 128,-1,35
 467 555 467 555 482.5 533.5 c 128,-1,36
 498 512 498 512 498 488 c 0,37,38
 498 473 498 473 482 449 c 0,39,40
 479 441 479 441 463 430 c 0,41,42
 412 400 412 400 395 371 c 0,43,44
 379 346 379 346 375 291 c 0,45,46
 375 283 375 283 383 283 c 2,47,-1
 459 283 l 2,48,49
 469 283 469 283 469 291 c 0,50,51
 469 312 469 312 473 328 c 0,52,53
 479 346 479 346 496 361 c 2,54,-1
 523 379 l 2,55,56
 561 406 561 406 572 424 c 0,20,21
EndSplineSet
Validated: 33
EndChar

StartChar: uniF143
Encoding: 61763 61763 119
Width: 500
Flags: W
LayerCount: 2
Fore
SplineSet
424 725 m 0,0,1
 500 666 500 666 500 562 c 0,2,3
 500 502 500 502 463 451 c 0,4,5
 445 430 445 430 385 381 c 1,6,-1
 344 354 l 2,7,8
 314 330 314 330 305 299 c 0,9,10
 299 281 299 281 299 242 c 0,11,12
 299 230 299 230 285 230 c 2,13,-1
 164 230 l 2,14,15
 150 230 150 230 150 240 c 0,16,17
 154 330 154 330 180 369 c 0,18,19
 193 389 193 389 220.5 412.5 c 128,-1,20
 248 436 248 436 270 449 c 2,21,-1
 291 463 l 2,22,23
 312 480 312 480 320 492 c 0,24,25
 344 525 344 525 344 555 c 0,26,27
 344 598 344 598 322 625 c 0,28,29
 293 660 293 660 242 660 c 0,30,31
 193 660 193 660 164 613 c 0,32,33
 150 592 150 592 150 529 c 1,34,-1
 0 529 l 1,35,36
 0 684 0 684 86 740 c 0,37,38
 143 779 143 779 232 779 c 0,39,40
 352 779 352 779 424 725 c 0,0,1
223 152 m 0,41,42
 264 150 264 150 289 125 c 128,-1,43
 314 100 314 100 312.5 59 c 128,-1,44
 311 18 311 18 283.5 -6.5 c 128,-1,45
 256 -31 256 -31 217 -29 c 128,-1,46
 178 -27 178 -27 152.5 -3 c 128,-1,47
 127 21 127 21 129 62.5 c 128,-1,48
 131 104 131 104 157.5 129 c 128,-1,49
 184 154 184 154 223 152 c 0,41,42
EndSplineSet
Validated: 33
EndChar

StartChar: uniF144
Encoding: 61764 61764 120
Width: 750
Flags: W
LayerCount: 2
Fore
SplineSet
750 312 m 1,0,-1
 656 312 l 1,1,-1
 656 0 l 1,2,-1
 469 0 l 1,3,-1
 469 250 l 1,4,-1
 281 250 l 1,5,-1
 281 0 l 1,6,-1
 94 0 l 1,7,-1
 94 312 l 1,8,-1
 0 312 l 1,9,-1
 375 750 l 1,10,-1
 750 312 l 1,0,-1
EndSplineSet
Validated: 1
EndChar

StartChar: uniF145
Encoding: 61765 61765 121
Width: 875
Flags: W
LayerCount: 2
Fore
SplineSet
375 715 m 1,0,1
 445 656 445 656 445 582 c 0,2,3
 445 506 445 506 361 441 c 1,4,5
 332 412 332 412 332 395 c 0,6,7
 332 369 332 369 359 352 c 2,8,-1
 395 324 l 2,9,10
 424 301 424 301 437.5 286 c 128,-1,11
 451 271 451 271 465 244 c 128,-1,12
 479 217 479 217 479 186 c 0,13,14
 479 111 479 111 407.5 55.5 c 128,-1,15
 336 0 336 0 215 0 c 0,16,17
 111 0 111 0 55.5 41 c 128,-1,18
 0 82 0 82 0 141 c 0,19,20
 0 215 0 215 78 262 c 0,21,22
 135 295 135 295 270 307 c 1,23,24
 238 348 238 348 238 373 c 0,25,26
 238 383 238 383 248 412 c 1,27,28
 242 412 242 412 231.5 411 c 128,-1,29
 221 410 221 410 217 410 c 0,30,31
 141 410 141 410 96 457 c 128,-1,32
 51 504 51 504 51 564 c 0,33,34
 51 641 51 641 113 695 c 0,35,36
 180 750 180 750 293 750 c 2,37,-1
 500 750 l 1,38,-1
 436 715 l 1,39,-1
 375 715 l 1,0,1
303 277 m 0,40,41
 299 277 299 277 292 278 c 128,-1,42
 285 279 285 279 279 279 c 0,43,44
 223 279 223 279 174 264 c 0,45,46
 88 232 88 232 88 162 c 0,47,48
 88 109 88 109 137 75 c 128,-1,49
 186 41 186 41 266 41 c 0,50,51
 336 41 336 41 374 71.5 c 128,-1,52
 412 102 412 102 412 148 c 0,53,54
 412 184 412 184 389.5 208 c 128,-1,55
 367 232 367 232 303 277 c 0,40,41
332 465 m 0,56,57
 357 490 357 490 357 537 c 0,58,59
 357 600 357 600 323 658.5 c 128,-1,60
 289 717 289 717 230 717 c 0,61,62
 186 717 186 717 160 686 c 0,63,64
 139 660 139 660 139 613 c 0,65,66
 139 553 139 553 172 495 c 128,-1,67
 205 437 205 437 264 437 c 0,68,69
 305 437 305 437 332 465 c 0,56,57
875 598 m 1,70,-1
 875 562 l 1,71,-1
 723 562 l 1,72,-1
 723 404 l 1,73,-1
 687 404 l 1,74,-1
 687 562 l 1,75,-1
 531 562 l 1,76,-1
 531 598 l 1,77,-1
 687 598 l 1,78,-1
 687 750 l 1,79,-1
 723 750 l 1,80,-1
 723 598 l 1,81,-1
 875 598 l 1,70,-1
EndSplineSet
Validated: 1
EndChar

StartChar: uniF146
Encoding: 61766 61766 122
Width: 875
Flags: W
LayerCount: 2
Fore
SplineSet
410 336 m 2,0,1
 439 312 439 312 454 298.5 c 128,-1,2
 469 285 469 285 483.5 256 c 128,-1,3
 498 227 498 227 498 193 c 0,4,5
 498 115 498 115 426 57.5 c 128,-1,6
 354 0 354 0 227 0 c 0,7,8
 117 0 117 0 58.5 45 c 128,-1,9
 0 90 0 90 0 150 c 0,10,11
 0 229 0 229 82 277 c 0,12,13
 143 314 143 314 248 322 c 1,14,15
 232 350 232 350 232 373 c 0,16,17
 232 387 232 387 234 393 c 1,18,-1
 227 393 l 2,19,20
 145 393 145 393 96 443 c 0,21,22
 49 490 49 490 49 555 c 0,23,24
 49 637 49 637 117 693 c 0,25,26
 189 750 189 750 301 750 c 2,27,-1
 562 750 l 1,28,-1
 445 686 l 1,29,-1
 420 686 l 1,30,31
 465 633 465 633 465 572 c 0,32,33
 465 535 465 535 449.5 505 c 128,-1,34
 434 475 434 475 419 461 c 128,-1,35
 404 447 404 447 377 428 c 1,36,-1
 377 426 l 1,37,38
 355 404 355 404 355 393 c 0,39,40
 355 379 355 379 375 363 c 2,41,-1
 410 336 l 2,0,1
166 602 m 0,42,43
 166 551 166 551 193 502 c 0,44,45
 225 449 225 449 273 449 c 0,46,47
 307 449 307 449 328 471 c 0,48,49
 348 490 348 490 348 529 c 0,50,51
 348 580 348 580 318 633 c 0,52,53
 285 687 285 687 240 687 c 0,54,55
 203 687 203 687 184 662 c 0,56,57
 166 641 166 641 166 602 c 0,42,43
402 156 m 0,58,59
 402 184 402 184 382.5 205.5 c 128,-1,60
 363 227 363 227 305 266 c 0,61,62
 303 266 303 266 298 267 c 128,-1,63
 293 268 293 268 289 268 c 0,64,65
 240 268 240 268 191 252 c 0,66,67
 117 225 117 225 117 170 c 0,68,69
 117 125 117 125 160 97.5 c 128,-1,70
 203 70 203 70 273 70 c 0,71,72
 334 70 334 70 368 93.5 c 128,-1,73
 402 117 402 117 402 156 c 0,58,59
723 598 m 1,74,-1
 875 598 l 1,75,-1
 875 531 l 1,76,-1
 723 531 l 1,77,-1
 723 373 l 1,78,-1
 656 373 l 1,79,-1
 656 531 l 1,80,-1
 500 531 l 1,81,-1
 500 598 l 1,82,-1
 656 598 l 1,83,-1
 656 750 l 1,84,-1
 723 750 l 1,85,-1
 723 598 l 1,74,-1
EndSplineSet
Validated: 1
EndChar

StartChar: uniF147
Encoding: 61767 61767 123
Width: 875
Flags: W
LayerCount: 2
Fore
SplineSet
723 465 m 0,0,1
 695 437 695 437 656 437 c 128,-1,2
 617 437 617 437 589.5 464.5 c 128,-1,3
 562 492 562 492 562 531 c 128,-1,4
 562 570 562 570 589.5 597.5 c 128,-1,5
 617 625 617 625 656 625 c 128,-1,6
 695 625 695 625 722.5 597.5 c 128,-1,7
 750 570 750 570 750 531 c 128,-1,8
 750 492 750 492 723 465 c 0,0,1
800 730 m 2,9,10
 824 730 824 730 839.5 714.5 c 128,-1,11
 855 699 855 699 855 675 c 2,12,-1
 855 75 l 2,13,14
 855 51 855 51 839.5 35.5 c 128,-1,15
 824 20 824 20 800 20 c 2,16,-1
 75 20 l 2,17,18
 51 20 51 20 35.5 35.5 c 128,-1,19
 20 51 20 51 20 75 c 2,20,-1
 20 675 l 2,21,22
 20 699 20 699 35.5 714.5 c 128,-1,23
 51 730 51 730 75 730 c 2,24,-1
 800 730 l 2,9,10
619 363 m 2,25,-1
 812 156 l 1,26,-1
 812 664 l 2,27,28
 812 687 812 687 787 687 c 2,29,-1
 88 687 l 2,30,31
 66 687 66 687 62 664 c 1,32,-1
 62 156 l 1,33,-1
 309 453 l 2,34,35
 324 469 324 469 342 469 c 0,36,37
 363 469 363 469 375 455 c 2,38,-1
 480 340 l 1,39,-1
 488 332 l 2,40,41
 500 324 500 324 510 324 c 128,-1,42
 520 324 520 324 533 334 c 2,43,-1
 568 365 l 2,44,45
 582 375 582 375 594 375 c 0,46,47
 609 375 609 375 619 363 c 2,25,-1
EndSplineSet
Validated: 1
EndChar

StartChar: uniF148
Encoding: 61768 61768 124
Width: 875
Flags: W
LayerCount: 2
Fore
SplineSet
812 582 m 2,0,1
 832 580 832 580 844.5 566 c 128,-1,2
 857 552 857 552 855 535 c 2,3,-1
 828 61 l 2,4,5
 826 41 826 41 812 29.5 c 128,-1,6
 798 18 798 18 779 20 c 2,7,-1
 174 51 l 2,8,9
 155 53 155 53 142 65 c 128,-1,10
 129 77 129 77 131 96 c 2,11,-1
 135 166 l 1,12,-1
 106 164 l 2,13,14
 88 162 88 162 75.5 173 c 128,-1,15
 63 184 63 184 61 199 c 2,16,-1
 20 640 l 2,17,18
 18 656 18 656 29 668.5 c 128,-1,19
 40 681 40 681 57 683 c 2,20,-1
 595 730 l 2,21,22
 613 732 613 732 625.5 721 c 128,-1,23
 638 710 638 710 640 695 c 2,24,-1
 650 589 l 1,25,-1
 812 582 l 2,0,1
157 570 m 2,26,27
 159 587 159 587 171.5 600 c 128,-1,28
 184 613 184 613 204 613 c 2,29,-1
 613 591 l 1,30,-1
 609 672 l 1,31,-1
 607 672 l 1,32,-1
 607 674 l 2,33,34
 604 689 604 689 588 689 c 2,35,-1
 78 646 l 2,36,37
 59 646 59 646 59 629 c 2,38,-1
 59 627 l 1,39,-1
 90 279 l 1,40,-1
 143 328 l 1,41,-1
 157 570 l 2,26,27
791 129 m 1,42,-1
 811 516 l 1,43,-1
 811 518 l 2,44,45
 811 537 811 537 789 537 c 2,46,-1
 676 543 l 1,47,-1
 619 547 l 1,48,-1
 221 564 l 2,49,50
 201 564 201 564 197 547 c 1,51,-1
 197 545 l 1,52,-1
 191 422 l 1,53,-1
 178 172 l 1,54,-1
 178 158 l 1,55,-1
 189 172 l 1,56,-1
 389 385 l 2,57,58
 400 396 400 396 416 396 c 0,59,60
 434 396 434 396 443 383 c 2,61,-1
 527 287 l 1,62,-1
 533 281 l 2,63,64
 541 273 541 273 553 273 c 0,65,66
 559 273 559 273 570 279 c 2,67,-1
 604 303 l 2,68,69
 613 311 613 311 625 311 c 0,70,71
 641 311 641 311 646 301 c 2,72,-1
 699 236 l 1,73,-1
 791 129 l 1,42,-1
666 363 m 0,74,75
 637 363 637 363 617.5 382.5 c 128,-1,76
 598 402 598 402 598 431.5 c 128,-1,77
 598 461 598 461 618.5 480.5 c 128,-1,78
 639 500 639 500 666 500 c 0,79,80
 695 500 695 500 714.5 479.5 c 128,-1,81
 734 459 734 459 734 431.5 c 128,-1,82
 734 404 734 404 713.5 383.5 c 128,-1,83
 693 363 693 363 666 363 c 0,74,75
EndSplineSet
Validated: 33
EndChar

StartChar: uniF149
Encoding: 61769 61769 125
Width: 875
Flags: W
LayerCount: 2
Fore
SplineSet
875 381 m 0,0,1
 877 199 877 199 751 70 c 128,-1,2
 625 -59 625 -59 443 -63 c 0,3,4
 262 -64 262 -64 133 61.5 c 128,-1,5
 4 187 4 187 0 369 c 0,6,7
 -2 551 -2 551 124 680 c 128,-1,8
 250 809 250 809 432 812 c 0,9,10
 613 814 613 814 742 688 c 128,-1,11
 871 562 871 562 875 381 c 0,0,1
482 639 m 0,12,13
 465 656 465 656 437.5 656 c 128,-1,14
 410 656 410 656 392.5 638.5 c 128,-1,15
 375 621 375 621 375 593.5 c 128,-1,16
 375 566 375 566 392.5 548.5 c 128,-1,17
 410 531 410 531 437.5 531 c 128,-1,18
 465 531 465 531 482.5 548.5 c 128,-1,19
 500 566 500 566 500 593.5 c 128,-1,20
 500 621 500 621 482 639 c 0,12,13
523 104 m 1,21,-1
 523 125 l 1,22,-1
 480 125 l 1,23,-1
 480 461 l 1,24,-1
 352 461 l 1,25,-1
 352 437 l 1,26,-1
 395 437 l 1,27,-1
 395 125 l 1,28,-1
 352 125 l 1,29,-1
 352 104 l 1,30,-1
 523 104 l 1,21,-1
EndSplineSet
Validated: 33
EndChar

StartChar: uniF14A
Encoding: 61770 61770 126
Width: 250
Flags: W
LayerCount: 2
Fore
SplineSet
187 0 m 1,0,-1
 250 0 l 1,1,-1
 250 -31 l 1,2,-1
 0 -31 l 1,3,-1
 0 0 l 1,4,-1
 62 0 l 1,5,-1
 62 469 l 1,6,-1
 0 469 l 1,7,-1
 0 500 l 1,8,-1
 187 500 l 1,9,-1
 187 0 l 1,0,-1
191 621 m 0,10,11
 164 594 164 594 125 594 c 128,-1,12
 86 594 86 594 58.5 621 c 128,-1,13
 31 648 31 648 31 687.5 c 128,-1,14
 31 727 31 727 58.5 754 c 128,-1,15
 86 781 86 781 125 781 c 128,-1,16
 164 781 164 781 191.5 754 c 128,-1,17
 219 727 219 727 219 687.5 c 128,-1,18
 219 648 219 648 191 621 c 0,10,11
EndSplineSet
Validated: 1
EndChar

StartChar: uniF14C
Encoding: 61772 61772 127
Width: 789
Flags: W
LayerCount: 2
Fore
SplineSet
750 500 m 1,0,-1
 645 602 l 1,1,-1
 627 584 l 1,2,3
 738 482 738 482 738 330 c 0,4,5
 738 203 738 203 654 107 c 1,6,-1
 725 20 l 1,7,-1
 701 0 l 1,8,-1
 633 84 l 1,9,10
 531 -12 531 -12 395 -12 c 1,11,-1
 395 -12 l 1,12,13
 258 -12 258 -12 156 84 c 1,14,-1
 88 0 l 1,15,-1
 64 20 l 1,16,-1
 135 107 l 1,17,18
 51 203 51 203 51 332 c 0,19,20
 51 482 51 482 162 584 c 1,21,-1
 145 602 l 1,22,-1
 39 500 l 1,23,24
 0 545 0 545 0 602 c 0,25,26
 0 666 0 666 45 713 c 128,-1,27
 90 760 90 760 156 762 c 2,28,-1
 166 762 l 2,29,30
 223 762 223 762 271 727 c 1,31,-1
 166 625 l 1,32,-1
 187 604 l 1,33,34
 270 664 270 664 363 672 c 1,35,36
 363 684 363 684 373 693.5 c 128,-1,37
 383 703 383 703 394.5 703 c 128,-1,38
 406 703 406 703 415 693.5 c 128,-1,39
 424 684 424 684 424 672 c 1,40,41
 520 664 520 664 602 604 c 1,42,-1
 623 625 l 1,43,-1
 518 727 l 1,44,45
 566 762 566 762 623 762 c 2,46,-1
 633 762 l 2,47,48
 699 760 699 760 744 713 c 128,-1,49
 789 666 789 666 789 602 c 0,50,51
 789 545 789 545 750 500 c 1,0,-1
43 547 m 1,52,-1
 221 721 l 1,53,54
 195 734 195 734 158 732 c 0,55,56
 104 730 104 730 67.5 691 c 128,-1,57
 31 652 31 652 31 602 c 0,58,59
 31 574 31 574 43 547 c 1,52,-1
615 117 m 256,60,61
 707 207 707 207 707 336 c 128,-1,62
 707 465 707 465 615 555 c 128,-1,63
 523 645 523 645 394.5 645 c 128,-1,64
 266 645 266 645 174 555 c 128,-1,65
 82 465 82 465 82 336 c 128,-1,66
 82 207 82 207 174 117 c 128,-1,67
 266 27 266 27 394.5 27 c 128,-1,68
 523 27 523 27 615 117 c 256,60,61
568 721 m 1,69,-1
 746 547 l 1,70,71
 758 574 758 574 758 602 c 0,72,73
 758 652 758 652 722 691 c 128,-1,74
 686 730 686 730 631 732 c 0,75,76
 594 734 594 734 568 721 c 1,69,-1
395 562 m 1,77,-1
 426 562 l 1,78,-1
 426 281 l 1,79,-1
 207 281 l 1,80,-1
 207 312 l 1,81,-1
 395 312 l 1,82,-1
 395 562 l 1,77,-1
EndSplineSet
Validated: 37
EndChar

StartChar: uniF14D
Encoding: 61773 61773 128
Width: 789
Flags: W
LayerCount: 2
Fore
SplineSet
752 500 m 1,0,-1
 645 602 l 1,1,-1
 627 584 l 1,2,3
 738 482 738 482 738 330 c 0,4,5
 738 203 738 203 654 107 c 1,6,-1
 727 20 l 1,7,-1
 701 0 l 1,8,-1
 633 84 l 1,9,10
 531 -12 531 -12 395 -12 c 1,11,-1
 395 -12 l 1,12,13
 258 -12 258 -12 156 84 c 1,14,-1
 88 0 l 1,15,-1
 64 20 l 1,16,-1
 135 107 l 1,17,18
 51 203 51 203 51 330 c 0,19,20
 51 482 51 482 162 584 c 1,21,-1
 145 602 l 1,22,-1
 39 500 l 1,23,24
 0 545 0 545 0 602 c 0,25,26
 0 666 0 666 45 713 c 128,-1,27
 90 760 90 760 156 762 c 2,28,-1
 166 762 l 2,29,30
 223 762 223 762 271 727 c 1,31,-1
 166 623 l 1,32,-1
 187 604 l 1,33,34
 270 664 270 664 363 672 c 1,35,36
 363 684 363 684 373 693.5 c 128,-1,37
 383 703 383 703 394.5 703 c 128,-1,38
 406 703 406 703 415 693.5 c 128,-1,39
 424 684 424 684 424 672 c 1,40,41
 520 664 520 664 602 604 c 1,42,-1
 623 625 l 1,43,-1
 518 727 l 1,44,45
 566 762 566 762 623 762 c 2,46,-1
 633 762 l 2,47,48
 699 760 699 760 744 713 c 128,-1,49
 789 666 789 666 789 602 c 0,50,51
 789 543 789 543 752 500 c 1,0,-1
426 281 m 1,52,-1
 426 562 l 1,53,-1
 395 562 l 1,54,-1
 395 312 l 1,55,-1
 207 312 l 1,56,-1
 207 281 l 1,57,-1
 426 281 l 1,52,-1
EndSplineSet
Validated: 5
EndChar

StartChar: uniF14E
Encoding: 61774 61774 129
Width: 875
Flags: W
LayerCount: 2
Fore
SplineSet
844 594 m 1,0,-1
 31 594 l 1,1,-1
 31 31 l 1,2,-1
 844 31 l 1,3,-1
 844 594 l 1,0,-1
875 625 m 1,4,-1
 875 0 l 1,5,-1
 0 0 l 1,6,-1
 0 625 l 1,7,-1
 875 625 l 1,4,-1
78 656 m 1,8,-1
 78 687 l 1,9,-1
 797 687 l 1,10,-1
 797 656 l 1,11,-1
 78 656 l 1,8,-1
141 719 m 1,12,-1
 141 750 l 1,13,-1
 734 750 l 1,14,-1
 734 719 l 1,15,-1
 141 719 l 1,12,-1
EndSplineSet
Validated: 1
EndChar

StartChar: uniF14F
Encoding: 61775 61775 130
Width: 875
Flags: W
LayerCount: 2
Fore
SplineSet
875 625 m 1,0,-1
 875 0 l 1,1,-1
 0 0 l 1,2,-1
 0 625 l 1,3,-1
 875 625 l 1,0,-1
78 656 m 1,4,-1
 78 687 l 1,5,-1
 797 687 l 1,6,-1
 797 656 l 1,7,-1
 78 656 l 1,4,-1
141 719 m 1,8,-1
 141 750 l 1,9,-1
 734 750 l 1,10,-1
 734 719 l 1,11,-1
 141 719 l 1,8,-1
EndSplineSet
Validated: 1
EndChar

StartChar: uniF150
Encoding: 61776 61776 131
Width: 375
Flags: W
LayerCount: 2
Fore
SplineSet
375 625 m 1,0,-1
 127 375 l 1,1,-1
 375 125 l 1,2,-1
 312 62 l 1,3,-1
 0 375 l 1,4,-1
 0 375 l 1,5,-1
 312 687 l 1,6,-1
 375 625 l 1,0,-1
EndSplineSet
Validated: 5
EndChar

StartChar: uniF151
Encoding: 61777 61777 132
Width: 625
Flags: W
LayerCount: 2
Fore
SplineSet
588 562 m 1,0,-1
 625 521 l 1,1,-1
 312 187 l 1,2,-1
 0 521 l 1,3,-1
 37 562 l 1,4,-1
 312 270 l 1,5,-1
 588 562 l 1,0,-1
EndSplineSet
Validated: 1
EndChar

StartChar: uniF152
Encoding: 61778 61778 133
Width: 375
Flags: W
LayerCount: 2
Fore
SplineSet
0 625 m 1,0,-1
 62 687 l 1,1,-1
 375 375 l 1,2,-1
 375 375 l 1,3,-1
 62 62 l 1,4,-1
 0 125 l 1,5,-1
 248 375 l 1,6,-1
 0 625 l 1,0,-1
EndSplineSet
Validated: 5
EndChar

StartChar: uniF153
Encoding: 61779 61779 134
Width: 375
Flags: W
LayerCount: 2
Fore
SplineSet
375 650 m 1,0,-1
 82 375 l 1,1,-1
 375 100 l 1,2,-1
 334 62 l 1,3,-1
 0 375 l 1,4,-1
 334 687 l 1,5,-1
 375 650 l 1,0,-1
EndSplineSet
Validated: 1
EndChar

StartChar: uniF154
Encoding: 61780 61780 135
Width: 375
Flags: W
LayerCount: 2
Fore
SplineSet
0 650 m 1,0,-1
 41 687 l 1,1,-1
 375 375 l 1,2,-1
 41 62 l 1,3,-1
 0 100 l 1,4,-1
 293 375 l 1,5,-1
 0 650 l 1,0,-1
EndSplineSet
Validated: 1
EndChar

StartChar: uniF155
Encoding: 61781 61781 136
Width: 625
Flags: W
LayerCount: 2
Fore
SplineSet
588 187 m 1,0,-1
 312 480 l 1,1,-1
 37 187 l 1,2,-1
 0 229 l 1,3,-1
 312 562 l 1,4,-1
 625 229 l 1,5,-1
 588 187 l 1,0,-1
EndSplineSet
Validated: 1
EndChar

StartChar: uniF160
Encoding: 61792 61792 137
Width: 750
Flags: W
LayerCount: 2
Fore
SplineSet
0 594 m 1,0,-1
 594 594 l 1,1,-1
 594 0 l 1,2,-1
 0 0 l 1,3,-1
 0 594 l 1,0,-1
562 31 m 1,4,-1
 562 562 l 1,5,-1
 31 562 l 1,6,-1
 31 31 l 1,7,-1
 562 31 l 1,4,-1
750 750 m 1,8,-1
 750 156 l 1,9,-1
 625 156 l 1,10,-1
 625 187 l 1,11,-1
 719 187 l 1,12,-1
 719 719 l 1,13,-1
 187 719 l 1,14,-1
 187 625 l 1,15,-1
 156 625 l 1,16,-1
 156 750 l 1,17,-1
 750 750 l 1,8,-1
EndSplineSet
Validated: 1
EndChar

StartChar: uniF161
Encoding: 61793 61793 138
Width: 750
Flags: W
LayerCount: 2
Fore
SplineSet
0 594 m 1,0,-1
 594 594 l 1,1,-1
 594 0 l 1,2,-1
 0 0 l 1,3,-1
 0 594 l 1,0,-1
156 750 m 1,4,-1
 750 750 l 1,5,-1
 750 156 l 1,6,-1
 625 156 l 1,7,-1
 625 625 l 1,8,-1
 156 625 l 1,9,-1
 156 750 l 1,4,-1
EndSplineSet
Validated: 1
EndChar

StartChar: uniF162
Encoding: 61794 61794 139
Width: 750
Flags: W
LayerCount: 2
Fore
SplineSet
31 656 m 1,0,-1
 31 531 l 1,1,-1
 719 531 l 1,2,-1
 719 656 l 1,3,-1
 31 656 l 1,0,-1
562 687 m 1,4,-1
 750 687 l 1,5,-1
 750 0 l 1,6,-1
 0 0 l 1,7,-1
 0 687 l 1,8,-1
 187 687 l 1,9,-1
 187 750 l 1,10,-1
 219 750 l 1,11,-1
 219 687 l 1,12,-1
 531 687 l 1,13,-1
 531 750 l 1,14,-1
 562 750 l 1,15,-1
 562 687 l 1,4,-1
719 31 m 1,16,-1
 719 500 l 1,17,-1
 31 500 l 1,18,-1
 31 31 l 1,19,-1
 719 31 l 1,16,-1
719 531 m 1,20,-1
 719 656 l 1,21,-1
 562 656 l 1,22,-1
 562 594 l 1,23,-1
 531 594 l 1,24,-1
 531 656 l 1,25,-1
 219 656 l 1,26,-1
 219 594 l 1,27,-1
 187 594 l 1,28,-1
 187 656 l 1,29,-1
 31 656 l 1,30,-1
 31 531 l 1,31,-1
 719 531 l 1,20,-1
EndSplineSet
Validated: 5
EndChar

StartChar: uniF163
Encoding: 61795 61795 140
Width: 750
Flags: W
LayerCount: 2
Fore
SplineSet
0 0 m 1,0,-1
 0 500 l 1,1,-1
 750 500 l 1,2,-1
 750 0 l 1,3,-1
 0 0 l 1,0,-1
750 687 m 1,4,-1
 750 531 l 1,5,-1
 0 531 l 1,6,-1
 0 687 l 1,7,-1
 187 687 l 1,8,-1
 187 594 l 1,9,-1
 219 594 l 1,10,-1
 219 687 l 1,11,-1
 531 687 l 1,12,-1
 531 594 l 1,13,-1
 562 594 l 1,14,-1
 562 687 l 1,15,-1
 750 687 l 1,4,-1
187 687 m 1,16,-1
 187 750 l 1,17,-1
 219 750 l 1,18,-1
 219 687 l 1,19,-1
 187 687 l 1,16,-1
531 687 m 1,20,-1
 531 750 l 1,21,-1
 562 750 l 1,22,-1
 562 687 l 1,23,-1
 531 687 l 1,20,-1
EndSplineSet
Validated: 5
EndChar

StartChar: uniF164
Encoding: 61796 61796 141
Width: 750
Flags: W
LayerCount: 2
Fore
SplineSet
691 562 m 2,0,1
 717 562 717 562 733.5 545.5 c 128,-1,2
 750 529 750 529 750 502 c 2,3,-1
 750 158 l 2,4,5
 750 131 750 131 733.5 112.5 c 128,-1,6
 717 94 717 94 691 94 c 2,7,-1
 66 94 l 2,8,9
 39 94 39 94 19.5 113.5 c 128,-1,10
 0 133 0 133 0 158 c 2,11,-1
 0 502 l 2,12,13
 0 527 0 527 19.5 544.5 c 128,-1,14
 39 562 39 562 66 562 c 2,15,-1
 92 562 l 1,16,-1
 92 594 l 1,17,-1
 158 594 l 1,18,-1
 158 562 l 1,19,-1
 184 562 l 1,20,21
 234 621 234 621 254.5 638.5 c 128,-1,22
 275 656 275 656 291 656 c 2,23,-1
 463 656 l 2,24,25
 479 656 479 656 499.5 638.5 c 128,-1,26
 520 621 520 621 570 562 c 1,27,-1
 691 562 l 2,0,1
719 158 m 2,28,-1
 719 502 l 2,29,30
 719 531 719 531 691 531 c 2,31,-1
 570 531 l 1,32,-1
 557 531 l 1,33,-1
 547 537 l 2,34,35
 541 545 541 545 527 559 c 0,36,37
 516 572 516 572 499 591.5 c 128,-1,38
 482 611 482 611 477 617 c 2,39,-1
 463 625 l 1,40,-1
 291 625 l 2,41,42
 287 625 287 625 277 617 c 0,43,44
 264 605 264 605 229 564 c 0,45,46
 211 541 211 541 207 537 c 2,47,-1
 197 531 l 1,48,-1
 184 531 l 1,49,-1
 66 531 l 2,50,51
 53 531 53 531 42 522.5 c 128,-1,52
 31 514 31 514 31 502 c 2,53,-1
 31 158 l 2,54,55
 31 145 31 145 42 135 c 128,-1,56
 53 125 53 125 66 125 c 2,57,-1
 691 125 l 2,58,59
 719 125 719 125 719 158 c 2,28,-1
256 455 m 0,60,61
 307 504 307 504 375 504 c 128,-1,62
 443 504 443 504 493 455 c 128,-1,63
 543 406 543 406 543 338 c 128,-1,64
 543 270 543 270 493 221 c 128,-1,65
 443 172 443 172 375 172 c 128,-1,66
 307 172 307 172 257 221 c 128,-1,67
 207 270 207 270 207 338 c 128,-1,68
 207 406 207 406 256 455 c 0,60,61
277 242 m 0,69,70
 318 203 318 203 375 203 c 128,-1,71
 432 203 432 203 472 243 c 128,-1,72
 512 283 512 283 512 338 c 128,-1,73
 512 393 512 393 472 433 c 128,-1,74
 432 473 432 473 375 473 c 128,-1,75
 318 473 318 473 278 433 c 128,-1,76
 238 393 238 393 238 338 c 128,-1,77
 238 283 238 283 277 242 c 0,69,70
562 467 m 1,78,-1
 562 500 l 1,79,-1
 596 500 l 1,80,-1
 596 467 l 1,81,-1
 562 467 l 1,78,-1
375 275 m 0,82,83
 312 275 312 275 312 337.5 c 128,-1,84
 312 400 312 400 374.5 400 c 128,-1,85
 437 400 437 400 437 337.5 c 128,-1,86
 437 275 437 275 375 275 c 0,82,83
EndSplineSet
Validated: 1
EndChar

StartChar: uniF165
Encoding: 61797 61797 142
Width: 750
Flags: W
LayerCount: 2
Fore
SplineSet
691 562 m 2,0,1
 717 562 717 562 733.5 545.5 c 128,-1,2
 750 529 750 529 750 502 c 2,3,-1
 750 158 l 2,4,5
 750 131 750 131 733.5 112.5 c 128,-1,6
 717 94 717 94 691 94 c 2,7,-1
 66 94 l 2,8,9
 39 94 39 94 19.5 113.5 c 128,-1,10
 0 133 0 133 0 158 c 2,11,-1
 0 502 l 2,12,13
 0 527 0 527 19.5 544.5 c 128,-1,14
 39 562 39 562 66 562 c 2,15,-1
 92 562 l 1,16,-1
 92 594 l 1,17,-1
 158 594 l 1,18,-1
 158 562 l 1,19,-1
 184 562 l 1,20,21
 234 621 234 621 254.5 638.5 c 128,-1,22
 275 656 275 656 291 656 c 2,23,-1
 463 656 l 2,24,25
 479 656 479 656 499.5 638.5 c 128,-1,26
 520 621 520 621 570 562 c 1,27,-1
 691 562 l 2,0,1
256 221 m 0,28,29
 307 172 307 172 375 172 c 128,-1,30
 443 172 443 172 493 221 c 128,-1,31
 543 270 543 270 543 338 c 128,-1,32
 543 406 543 406 493 455 c 128,-1,33
 443 504 443 504 375 504 c 128,-1,34
 307 504 307 504 257 455 c 128,-1,35
 207 406 207 406 207 338 c 128,-1,36
 207 270 207 270 256 221 c 0,28,29
596 467 m 1,37,-1
 596 500 l 1,38,-1
 562 500 l 1,39,-1
 562 467 l 1,40,-1
 596 467 l 1,37,-1
277 432 m 0,41,42
 318 473 318 473 375 473 c 128,-1,43
 432 473 432 473 472 433 c 128,-1,44
 512 393 512 393 512 338 c 128,-1,45
 512 283 512 283 472 243 c 128,-1,46
 432 203 432 203 375 203 c 128,-1,47
 318 203 318 203 278 243 c 128,-1,48
 238 283 238 283 238 338 c 128,-1,49
 238 393 238 393 277 432 c 0,41,42
330 293 m 0,50,51
 348 275 348 275 375 275 c 128,-1,52
 402 275 402 275 419.5 293.5 c 128,-1,53
 437 312 437 312 437 337.5 c 128,-1,54
 437 363 437 363 419.5 381.5 c 128,-1,55
 402 400 402 400 375 400 c 128,-1,56
 348 400 348 400 330 381.5 c 128,-1,57
 312 363 312 363 312 337.5 c 128,-1,58
 312 312 312 312 330 293 c 0,50,51
EndSplineSet
Validated: 1
EndChar

StartChar: uniF166
Encoding: 61798 61798 143
Width: 750
Flags: W
LayerCount: 2
Fore
SplineSet
721 96 m 0,0,1
 736 82 736 82 736 62.5 c 128,-1,2
 736 43 736 43 721.5 28.5 c 128,-1,3
 707 14 707 14 687.5 14 c 128,-1,4
 668 14 668 14 653.5 28.5 c 128,-1,5
 639 43 639 43 639 62.5 c 128,-1,6
 639 82 639 82 653.5 96.5 c 128,-1,7
 668 111 668 111 687.5 111 c 128,-1,8
 707 111 707 111 721 96 c 0,0,1
158 96 m 0,9,10
 174 82 174 82 174 62.5 c 128,-1,11
 174 43 174 43 159.5 28.5 c 128,-1,12
 145 14 145 14 125 14 c 128,-1,13
 105 14 105 14 90.5 28.5 c 128,-1,14
 76 43 76 43 76 62.5 c 128,-1,15
 76 82 76 82 90.5 96.5 c 128,-1,16
 105 111 105 111 125 111 c 128,-1,17
 145 111 145 111 158 96 c 0,9,10
125 687 m 1,18,-1
 750 687 l 1,19,-1
 721 346 l 1,20,21
 312 287 312 287 244 279 c 0,22,23
 191 273 191 273 149 239 c 128,-1,24
 107 205 107 205 100 158 c 1,25,-1
 750 158 l 1,26,-1
 750 125 l 1,27,-1
 62 125 l 1,28,29
 62 135 62 135 66 158 c 0,30,31
 82 262 82 262 193 301 c 1,32,-1
 82 717 l 1,33,-1
 0 717 l 1,34,-1
 0 750 l 1,35,-1
 104 750 l 1,36,-1
 125 687 l 1,18,-1
687 375 m 1,37,-1
 717 654 l 1,38,-1
 137 654 l 1,39,-1
 223 309 l 1,40,-1
 225 309 l 2,41,42
 227 311 227 311 229 311 c 2,43,-1
 687 375 l 1,37,-1
EndSplineSet
Validated: 1
EndChar

StartChar: uniF167
Encoding: 61799 61799 144
Width: 750
Flags: W
LayerCount: 2
Fore
SplineSet
721 96 m 0,0,1
 736 82 736 82 736 62.5 c 128,-1,2
 736 43 736 43 721.5 28.5 c 128,-1,3
 707 14 707 14 687.5 14 c 128,-1,4
 668 14 668 14 653.5 28.5 c 128,-1,5
 639 43 639 43 639 62.5 c 128,-1,6
 639 82 639 82 653.5 96.5 c 128,-1,7
 668 111 668 111 687.5 111 c 128,-1,8
 707 111 707 111 721 96 c 0,0,1
158 96 m 0,9,10
 174 82 174 82 174 62.5 c 128,-1,11
 174 43 174 43 159.5 28.5 c 128,-1,12
 145 14 145 14 125 14 c 128,-1,13
 105 14 105 14 90.5 28.5 c 128,-1,14
 76 43 76 43 76 62.5 c 128,-1,15
 76 82 76 82 90.5 96.5 c 128,-1,16
 105 111 105 111 125 111 c 128,-1,17
 145 111 145 111 158 96 c 0,9,10
125 687 m 1,18,-1
 750 687 l 1,19,-1
 721 346 l 1,20,21
 312 287 312 287 244 279 c 0,22,23
 191 273 191 273 149 239 c 128,-1,24
 107 205 107 205 100 158 c 1,25,-1
 750 158 l 1,26,-1
 750 125 l 1,27,-1
 62 125 l 1,28,29
 62 135 62 135 66 158 c 0,30,31
 82 262 82 262 193 301 c 1,32,-1
 82 717 l 1,33,-1
 0 717 l 1,34,-1
 0 750 l 1,35,-1
 104 750 l 1,36,-1
 125 687 l 1,18,-1
EndSplineSet
Validated: 1
EndChar

StartChar: uniF168
Encoding: 61800 61800 145
Width: 812
Flags: W
LayerCount: 2
Fore
SplineSet
31 750 m 1,0,-1
 31 375 l 1,1,-1
 219 375 l 1,2,-1
 219 344 l 1,3,-1
 0 344 l 1,4,-1
 0 781 l 1,5,-1
 562 781 l 1,6,-1
 562 562 l 1,7,-1
 531 562 l 1,8,-1
 531 750 l 1,9,-1
 31 750 l 1,0,-1
250 531 m 1,10,-1
 812 531 l 1,11,-1
 812 94 l 1,12,-1
 719 94 l 1,13,-1
 719 -31 l 1,14,-1
 693 -31 l 1,15,-1
 568 94 l 1,16,-1
 250 94 l 1,17,-1
 250 531 l 1,10,-1
781 125 m 1,18,-1
 781 500 l 1,19,-1
 281 500 l 1,20,-1
 281 125 l 1,21,-1
 580 125 l 1,22,-1
 687 18 l 1,23,-1
 687 125 l 1,24,-1
 781 125 l 1,18,-1
EndSplineSet
Validated: 1
EndChar

StartChar: uniF169
Encoding: 61801 61801 146
Width: 812
Flags: W
LayerCount: 2
Fore
SplineSet
562 781 m 1,0,-1
 562 562 l 1,1,-1
 219 562 l 1,2,-1
 219 344 l 1,3,-1
 0 344 l 1,4,-1
 0 781 l 1,5,-1
 562 781 l 1,0,-1
250 531 m 1,6,-1
 812 531 l 1,7,-1
 812 94 l 1,8,-1
 719 94 l 1,9,-1
 719 -31 l 1,10,-1
 693 -31 l 1,11,-1
 568 94 l 1,12,-1
 250 94 l 1,13,-1
 250 531 l 1,6,-1
EndSplineSet
Validated: 1
EndChar

StartChar: uniF16A
Encoding: 61802 61802 147
Width: 750
Flags: W
LayerCount: 2
Fore
SplineSet
31 387 m 0,0,1
 31 312 31 312 84 244 c 0,2,3
 84 240 84 240 86 238 c 2,4,-1
 90 234 l 2,5,6
 102 217 102 217 102 195 c 0,7,8
 102 184 102 184 76 104 c 1,9,-1
 152 137 l 2,10,11
 168 145 168 145 174 145 c 2,12,-1
 176 145 l 1,13,14
 191 150 191 150 207 150 c 0,15,16
 215 150 215 150 234 146 c 1,17,-1
 236 145 l 1,18,-1
 240 145 l 1,19,20
 303 125 303 125 377 125 c 0,21,22
 518 125 518 125 621 203 c 0,23,24
 719 279 719 279 719 387 c 0,25,26
 719 498 719 498 618.5 577 c 128,-1,27
 518 656 518 656 375 656 c 128,-1,28
 232 656 232 656 131.5 577 c 128,-1,29
 31 498 31 498 31 387 c 0,0,1
750 387 m 0,30,31
 750 264 750 264 641.5 179 c 128,-1,32
 533 94 533 94 377 94 c 0,33,34
 293 94 293 94 230 115 c 1,35,-1
 227 115 l 1,36,37
 215 119 215 119 207 119 c 0,38,39
 195 119 195 119 184 115 c 1,40,-1
 186 115 l 1,41,-1
 184 115 l 2,42,43
 182 115 182 115 172 111 c 2,44,-1
 164 107 l 1,45,-1
 66 64 l 1,46,-1
 62 62 l 1,47,-1
 57 62 l 1,48,-1
 51 62 l 1,49,50
 33 66 33 66 37 82 c 0,51,52
 70 193 70 193 70 195 c 0,53,54
 70 207 70 207 64 217 c 1,55,-1
 64 217 l 1,56,-1
 66 215 l 1,57,-1
 59 223 l 1,58,59
 0 297 0 297 0 387 c 0,60,61
 0 512 0 512 110.5 599.5 c 128,-1,62
 221 687 221 687 375 687 c 128,-1,63
 529 687 529 687 639.5 599.5 c 128,-1,64
 750 512 750 512 750 387 c 0,30,31
EndSplineSet
Validated: 5
EndChar

StartChar: uniF16B
Encoding: 61803 61803 148
Width: 750
Flags: W
LayerCount: 2
Fore
SplineSet
750 387 m 0,0,1
 750 264 750 264 641.5 179 c 128,-1,2
 533 94 533 94 377 94 c 0,3,4
 293 94 293 94 230 115 c 1,5,-1
 227 115 l 1,6,7
 215 119 215 119 207 119 c 0,8,9
 195 119 195 119 184 115 c 1,10,-1
 186 115 l 1,11,-1
 184 115 l 2,12,13
 182 115 182 115 172 111 c 2,14,-1
 164 107 l 1,15,-1
 66 64 l 1,16,-1
 62 62 l 1,17,-1
 57 62 l 1,18,-1
 51 62 l 1,19,20
 33 66 33 66 37 82 c 0,21,22
 70 193 70 193 70 195 c 0,23,24
 70 207 70 207 64 217 c 1,25,-1
 64 217 l 1,26,-1
 66 215 l 1,27,-1
 59 223 l 1,28,29
 0 297 0 297 0 387 c 0,30,31
 0 512 0 512 110.5 599.5 c 128,-1,32
 221 687 221 687 375 687 c 128,-1,33
 529 687 529 687 639.5 599.5 c 128,-1,34
 750 512 750 512 750 387 c 0,0,1
EndSplineSet
Validated: 5
EndChar

StartChar: uniF16C
Encoding: 61804 61804 149
Width: 404
Flags: W
LayerCount: 2
Fore
SplineSet
145 230 m 2,0,1
 137 223 137 223 127 223 c 128,-1,2
 117 223 117 223 109 230 c 2,3,-1
 0 340 l 1,4,-1
 35 375 l 1,5,-1
 127 283 l 1,6,-1
 371 529 l 1,7,-1
 404 494 l 1,8,-1
 145 230 l 2,0,1
EndSplineSet
Validated: 1
EndChar

StartChar: uniF16D
Encoding: 61805 61805 150
Width: 812
Flags: W
LayerCount: 2
Fore
SplineSet
570 529 m 1,0,-1
 605 494 l 1,1,-1
 344 230 l 2,2,3
 336 223 336 223 326 223 c 128,-1,4
 316 223 316 223 309 230 c 2,5,-1
 199 340 l 1,6,-1
 234 375 l 1,7,-1
 326 283 l 1,8,-1
 570 529 l 1,0,-1
119 662 m 256,9,10
 238 781 238 781 406 781 c 128,-1,11
 574 781 574 781 693 662 c 128,-1,12
 812 543 812 543 812 375 c 128,-1,13
 812 207 812 207 693 88 c 128,-1,14
 574 -31 574 -31 406 -31 c 128,-1,15
 238 -31 238 -31 119 88 c 128,-1,16
 0 207 0 207 0 375 c 128,-1,17
 0 543 0 543 119 662 c 256,9,10
143 111 m 0,18,19
 252 2 252 2 406.5 2 c 128,-1,20
 561 2 561 2 670 111.5 c 128,-1,21
 779 221 779 221 779 375 c 128,-1,22
 779 529 779 529 670 638.5 c 128,-1,23
 561 748 561 748 406.5 748 c 128,-1,24
 252 748 252 748 142.5 638.5 c 128,-1,25
 33 529 33 529 33 375 c 128,-1,26
 33 221 33 221 143 111 c 0,18,19
EndSplineSet
Validated: 1
EndChar

StartChar: uniF16E
Encoding: 61806 61806 151
Width: 812
Flags: W
LayerCount: 2
Fore
SplineSet
119 662 m 256,0,1
 238 781 238 781 406 781 c 128,-1,2
 574 781 574 781 693 662 c 128,-1,3
 812 543 812 543 812 375 c 128,-1,4
 812 207 812 207 693 88 c 128,-1,5
 574 -31 574 -31 406 -31 c 128,-1,6
 238 -31 238 -31 119 88 c 128,-1,7
 0 207 0 207 0 375 c 128,-1,8
 0 543 0 543 119 662 c 256,0,1
344 230 m 2,9,-1
 605 494 l 1,10,-1
 570 529 l 1,11,-1
 326 283 l 1,12,-1
 234 375 l 1,13,-1
 199 340 l 1,14,-1
 309 230 l 2,15,16
 316 223 316 223 326 223 c 128,-1,17
 336 223 336 223 344 230 c 2,9,-1
EndSplineSet
Validated: 1
EndChar

StartChar: uniF170
Encoding: 61808 61808 152
Width: 812
Flags: W
LayerCount: 2
Fore
SplineSet
119 662 m 256,0,1
 238 781 238 781 406 781 c 128,-1,2
 574 781 574 781 693 662 c 128,-1,3
 812 543 812 543 812 375 c 128,-1,4
 812 207 812 207 693 88 c 128,-1,5
 574 -31 574 -31 406 -31 c 128,-1,6
 238 -31 238 -31 119 88 c 128,-1,7
 0 207 0 207 0 375 c 128,-1,8
 0 543 0 543 119 662 c 256,0,1
143 111 m 0,9,10
 252 2 252 2 406.5 2 c 128,-1,11
 561 2 561 2 670 111.5 c 128,-1,12
 779 221 779 221 779 375 c 128,-1,13
 779 529 779 529 670 638.5 c 128,-1,14
 561 748 561 748 406.5 748 c 128,-1,15
 252 748 252 748 142.5 638.5 c 128,-1,16
 33 529 33 529 33 375 c 128,-1,17
 33 221 33 221 143 111 c 0,9,10
EndSplineSet
Validated: 1
EndChar

StartChar: uniF171
Encoding: 61809 61809 153
Width: 812
Flags: W
LayerCount: 2
Fore
SplineSet
119 662 m 256,0,1
 238 781 238 781 406 781 c 128,-1,2
 574 781 574 781 693 662 c 128,-1,3
 812 543 812 543 812 375 c 128,-1,4
 812 207 812 207 693 88 c 128,-1,5
 574 -31 574 -31 406 -31 c 128,-1,6
 238 -31 238 -31 119 88 c 128,-1,7
 0 207 0 207 0 375 c 128,-1,8
 0 543 0 543 119 662 c 256,0,1
143 111 m 0,9,10
 252 2 252 2 406.5 2 c 128,-1,11
 561 2 561 2 670 111.5 c 128,-1,12
 779 221 779 221 779 375 c 128,-1,13
 779 529 779 529 670 638.5 c 128,-1,14
 561 748 561 748 406.5 748 c 128,-1,15
 252 748 252 748 142.5 638.5 c 128,-1,16
 33 529 33 529 33 375 c 128,-1,17
 33 221 33 221 143 111 c 0,9,10
406 375 m 1,18,-1
 406 625 l 1,19,-1
 439 625 l 1,20,-1
 439 342 l 1,21,-1
 219 342 l 1,22,-1
 219 375 l 1,23,-1
 406 375 l 1,18,-1
EndSplineSet
Validated: 1
EndChar

StartChar: uniF172
Encoding: 61810 61810 154
Width: 812
Flags: W
LayerCount: 2
Fore
SplineSet
119 662 m 256,0,1
 238 781 238 781 406 781 c 128,-1,2
 574 781 574 781 693 662 c 128,-1,3
 812 543 812 543 812 375 c 128,-1,4
 812 207 812 207 693 88 c 128,-1,5
 574 -31 574 -31 406 -31 c 128,-1,6
 238 -31 238 -31 119 88 c 128,-1,7
 0 207 0 207 0 375 c 128,-1,8
 0 543 0 543 119 662 c 256,0,1
439 342 m 1,9,-1
 439 625 l 1,10,-1
 406 625 l 1,11,-1
 406 375 l 1,12,-1
 219 375 l 1,13,-1
 219 342 l 1,14,-1
 439 342 l 1,9,-1
EndSplineSet
Validated: 1
EndChar

StartChar: uniF173
Encoding: 61811 61811 155
Width: 875
Flags: W
LayerCount: 2
Fore
SplineSet
314 131 m 1,0,-1
 422 25 l 1,1,-1
 422 498 l 1,2,-1
 453 498 l 1,3,-1
 453 25 l 1,4,-1
 561 131 l 1,5,-1
 584 107 l 1,6,-1
 437 -35 l 1,7,-1
 293 107 l 1,8,-1
 314 131 l 1,0,-1
717 555 m 1,9,10
 783 555 783 555 829 508 c 128,-1,11
 875 461 875 461 875 394.5 c 128,-1,12
 875 328 875 328 828 281 c 128,-1,13
 781 234 781 234 715 234 c 2,14,-1
 518 234 l 1,15,-1
 518 266 l 1,16,-1
 707 266 l 1,17,-1
 715 266 l 2,18,19
 770 266 770 266 807 304 c 128,-1,20
 844 342 844 342 844 394.5 c 128,-1,21
 844 447 844 447 806 486 c 128,-1,22
 768 525 768 525 715 525 c 2,23,-1
 686 525 l 1,24,-1
 686 564 l 2,25,26
 686 645 686 645 628 699.5 c 128,-1,27
 570 754 570 754 488 754 c 0,28,29
 434 754 434 754 386 724.5 c 128,-1,30
 338 695 338 695 312 645 c 1,31,-1
 301 617 l 1,32,-1
 273 631 l 2,33,34
 254 641 254 641 234 641 c 0,35,36
 203 641 203 641 178.5 618.5 c 128,-1,37
 154 596 154 596 148 564 c 2,38,-1
 146 547 l 1,39,-1
 129 541 l 2,40,41
 84 525 84 525 57.5 490 c 128,-1,42
 31 455 31 455 31 410 c 0,43,44
 31 352 31 352 73 309 c 128,-1,45
 115 266 115 266 176 266 c 2,46,-1
 354 266 l 1,47,-1
 354 234 l 1,48,-1
 176 234 l 2,49,50
 104 234 104 234 52 285 c 128,-1,51
 0 336 0 336 0 408 c 0,52,53
 0 465 0 465 33 509 c 128,-1,54
 66 553 66 553 119 570 c 1,55,56
 127 611 127 611 159 640.5 c 128,-1,57
 191 670 191 670 234 670 c 0,58,59
 262 670 262 670 285 658 c 1,60,61
 312 717 312 717 368 751 c 128,-1,62
 424 785 424 785 490 785 c 0,63,64
 584 785 584 785 651.5 719.5 c 128,-1,65
 719 654 719 654 719 561 c 0,66,67
 719 559 719 559 719 559 c 1,68,-1
 717 555 l 1,9,10
EndSplineSet
Validated: 1
EndChar

StartChar: uniF174
Encoding: 61812 61812 156
Width: 875
Flags: W
LayerCount: 2
Fore
SplineSet
422 25 m 1,0,-1
 422 234 l 1,1,-1
 453 234 l 1,2,-1
 453 25 l 1,3,-1
 561 131 l 1,4,-1
 584 107 l 1,5,-1
 437 -35 l 1,6,-1
 293 107 l 1,7,-1
 314 131 l 1,8,-1
 422 25 l 1,0,-1
717 555 m 1,9,10
 783 555 783 555 829 508 c 128,-1,11
 875 461 875 461 875 394.5 c 128,-1,12
 875 328 875 328 828 281 c 128,-1,13
 781 234 781 234 715 234 c 2,14,-1
 453 234 l 1,15,-1
 453 498 l 1,16,-1
 422 498 l 1,17,-1
 422 234 l 1,18,-1
 354 234 l 1,19,-1
 312 234 l 1,20,-1
 176 234 l 2,21,22
 104 234 104 234 52 285 c 128,-1,23
 0 336 0 336 0 408 c 0,24,25
 0 465 0 465 33 509 c 128,-1,26
 66 553 66 553 119 570 c 1,27,28
 127 611 127 611 159 640.5 c 128,-1,29
 191 670 191 670 234 670 c 0,30,31
 262 670 262 670 285 658 c 1,32,33
 312 717 312 717 368 751 c 128,-1,34
 424 785 424 785 490 785 c 0,35,36
 584 785 584 785 651.5 719.5 c 128,-1,37
 719 654 719 654 719 561 c 0,38,39
 719 559 719 559 719 559 c 1,40,-1
 717 555 l 1,9,10
EndSplineSet
Validated: 5
EndChar

StartChar: uniF175
Encoding: 61813 61813 157
Width: 875
Flags: W
LayerCount: 2
Fore
SplineSet
717 420 m 1,0,1
 783 420 783 420 829 373 c 128,-1,2
 875 326 875 326 875 258 c 0,3,4
 875 191 875 191 828 142.5 c 128,-1,5
 781 94 781 94 715 94 c 2,6,-1
 176 94 l 2,7,8
 104 94 104 94 52 146.5 c 128,-1,9
 0 199 0 199 0 273 c 0,10,11
 0 330 0 330 33 374 c 128,-1,12
 66 418 66 418 119 436 c 1,13,14
 127 479 127 479 159 508 c 128,-1,15
 191 537 191 537 234 537 c 0,16,17
 262 537 262 537 285 525 c 1,18,19
 314 584 314 584 369 620 c 128,-1,20
 424 656 424 656 490 656 c 0,21,22
 584 656 584 656 651.5 588.5 c 128,-1,23
 719 521 719 521 719 428 c 0,24,25
 719 426 719 426 718 424 c 128,-1,26
 717 422 717 422 717 420 c 1,0,1
715 125 m 2,27,28
 768 125 768 125 806 165 c 128,-1,29
 844 205 844 205 844 259.5 c 128,-1,30
 844 314 844 314 807 352.5 c 128,-1,31
 770 391 770 391 715 391 c 2,32,-1
 686 391 l 1,33,-1
 686 432 l 2,34,35
 686 514 686 514 628 569.5 c 128,-1,36
 570 625 570 625 488 625 c 0,37,38
 434 625 434 625 386 593.5 c 128,-1,39
 338 562 338 562 312 512 c 1,40,-1
 301 484 l 1,41,-1
 273 498 l 2,42,43
 254 508 254 508 234 508 c 0,44,45
 203 508 203 508 178.5 486.5 c 128,-1,46
 154 465 154 465 148 432 c 2,47,-1
 146 414 l 1,48,-1
 129 408 l 2,49,50
 84 393 84 393 57.5 356.5 c 128,-1,51
 31 320 31 320 31 273 c 0,52,53
 31 213 31 213 73 169 c 128,-1,54
 115 125 115 125 176 125 c 2,55,-1
 707 125 l 1,56,-1
 715 125 l 2,27,28
EndSplineSet
Validated: 1
EndChar

StartChar: uniF178
Encoding: 61816 61816 158
Width: 875
Flags: W
LayerCount: 2
Fore
SplineSet
717 420 m 1,0,1
 783 420 783 420 829 373 c 128,-1,2
 875 326 875 326 875 258 c 0,3,4
 875 191 875 191 828 142.5 c 128,-1,5
 781 94 781 94 715 94 c 2,6,-1
 176 94 l 2,7,8
 104 94 104 94 52 146.5 c 128,-1,9
 0 199 0 199 0 273 c 0,10,11
 0 330 0 330 33 374 c 128,-1,12
 66 418 66 418 119 436 c 1,13,14
 127 479 127 479 159 508 c 128,-1,15
 191 537 191 537 234 537 c 0,16,17
 262 537 262 537 285 525 c 1,18,19
 314 584 314 584 369 620 c 128,-1,20
 424 656 424 656 490 656 c 0,21,22
 584 656 584 656 651.5 588.5 c 128,-1,23
 719 521 719 521 719 428 c 0,24,25
 719 426 719 426 718 424 c 128,-1,26
 717 422 717 422 717 420 c 1,0,1
EndSplineSet
Validated: 1
EndChar

StartChar: uniF17D
Encoding: 61821 61821 159
Width: 719
Flags: W
LayerCount: 2
Fore
SplineSet
562 94 m 1,0,-1
 562 469 l 1,1,-1
 594 500 l 1,2,-1
 594 62 l 1,3,-1
 0 62 l 1,4,-1
 0 625 l 1,5,-1
 469 625 l 1,6,-1
 437 594 l 1,7,-1
 31 594 l 1,8,-1
 31 94 l 1,9,-1
 562 94 l 1,0,-1
309 320 m 1,10,-1
 643 654 l 1,11,-1
 664 633 l 1,12,-1
 312 281 l 1,13,-1
 250 281 l 1,14,-1
 250 344 l 1,15,-1
 602 695 l 1,16,-1
 623 674 l 1,17,-1
 289 340 l 1,18,-1
 309 320 l 1,10,-1
711 719 m 2,19,20
 719 707 719 707 719 699 c 128,-1,21
 719 691 719 691 711 680 c 2,22,-1
 687 656 l 1,23,-1
 646 697 l 1,24,-1
 625 719 l 1,25,-1
 648 742 l 2,26,27
 660 750 660 750 668 750 c 128,-1,28
 676 750 676 750 687 742 c 2,29,-1
 711 719 l 2,19,20
EndSplineSet
Validated: 1
EndChar

StartChar: uniF17E
Encoding: 61822 61822 160
Width: 719
Flags: W
LayerCount: 2
Fore
SplineSet
250 344 m 1,0,-1
 602 695 l 1,1,-1
 664 633 l 1,2,-1
 312 281 l 1,3,-1
 250 281 l 1,4,-1
 250 344 l 1,0,-1
711 719 m 2,5,6
 719 707 719 707 719 699 c 128,-1,7
 719 691 719 691 711 680 c 2,8,-1
 687 656 l 1,9,-1
 646 697 l 1,10,-1
 625 719 l 1,11,-1
 648 742 l 2,12,13
 660 750 660 750 668 750 c 128,-1,14
 676 750 676 750 687 742 c 2,15,-1
 711 719 l 2,5,6
344 250 m 1,16,-1
 594 502 l 1,17,-1
 594 496 l 1,18,-1
 594 62 l 1,19,-1
 0 62 l 1,20,-1
 0 625 l 1,21,-1
 469 625 l 1,22,-1
 469 625 l 1,23,-1
 219 375 l 1,24,-1
 219 250 l 1,25,-1
 344 250 l 1,16,-1
EndSplineSet
Validated: 5
EndChar

StartChar: uniF181
Encoding: 61825 61825 161
Width: 562
Flags: W
LayerCount: 2
Fore
SplineSet
375 687 m 1,0,-1
 375 562 l 1,1,-1
 500 562 l 1,2,-1
 500 531 l 1,3,-1
 344 531 l 1,4,-1
 344 687 l 1,5,-1
 375 687 l 1,0,-1
416 750 m 1,6,-1
 562 604 l 1,7,-1
 562 94 l 1,8,-1
 469 94 l 1,9,-1
 469 0 l 1,10,-1
 0 0 l 1,11,-1
 0 656 l 1,12,-1
 94 656 l 1,13,-1
 94 750 l 1,14,-1
 416 750 l 1,6,-1
437 31 m 1,15,-1
 437 94 l 1,16,-1
 94 94 l 1,17,-1
 94 625 l 1,18,-1
 31 625 l 1,19,-1
 31 31 l 1,20,-1
 437 31 l 1,15,-1
531 125 m 1,21,-1
 531 590 l 1,22,-1
 404 719 l 1,23,-1
 125 719 l 1,24,-1
 125 125 l 1,25,-1
 531 125 l 1,21,-1
EndSplineSet
Validated: 1
EndChar

StartChar: uniF182
Encoding: 61826 61826 162
Width: 562
Flags: W
LayerCount: 2
Fore
SplineSet
62 62 m 1,0,-1
 94 62 l 1,1,-1
 469 62 l 1,2,-1
 469 0 l 1,3,-1
 0 0 l 1,4,-1
 0 656 l 1,5,-1
 62 656 l 1,6,-1
 62 94 l 1,7,-1
 62 62 l 1,0,-1
416 750 m 1,8,-1
 562 604 l 1,9,-1
 562 94 l 1,10,-1
 469 94 l 1,11,-1
 94 94 l 1,12,-1
 94 656 l 1,13,-1
 94 750 l 1,14,-1
 416 750 l 1,8,-1
500 531 m 1,15,-1
 500 562 l 1,16,-1
 375 562 l 1,17,-1
 375 687 l 1,18,-1
 344 687 l 1,19,-1
 344 531 l 1,20,-1
 500 531 l 1,15,-1
EndSplineSet
Validated: 1
EndChar

StartChar: uniF184
Encoding: 61828 61828 163
Width: 625
Flags: W
LayerCount: 2
Fore
SplineSet
328 594 m 1,0,-1
 625 594 l 1,1,-1
 625 0 l 1,2,-1
 0 0 l 1,3,-1
 0 594 l 1,4,-1
 297 594 l 1,5,-1
 297 275 l 1,6,-1
 189 383 l 1,7,-1
 168 359 l 1,8,-1
 312 215 l 1,9,-1
 457 359 l 1,10,-1
 436 383 l 1,11,-1
 328 275 l 1,12,-1
 328 594 l 1,0,-1
297 594 m 1,13,-1
 297 750 l 1,14,-1
 328 750 l 1,15,-1
 328 594 l 1,16,-1
 297 594 l 1,13,-1
EndSplineSet
Validated: 5
EndChar

StartChar: uniF186
Encoding: 61830 61830 164
Width: 750
Flags: W
LayerCount: 2
Fore
SplineSet
0 625 m 1,0,-1
 750 625 l 1,1,-1
 750 125 l 1,2,-1
 0 125 l 1,3,-1
 0 625 l 1,0,-1
375 352 m 1,4,-1
 693 594 l 1,5,-1
 57 594 l 1,6,-1
 375 352 l 1,4,-1
31 156 m 1,7,-1
 719 156 l 1,8,-1
 719 574 l 1,9,-1
 494 402 l 1,10,-1
 627 252 l 1,11,-1
 623 248 l 1,12,-1
 469 385 l 1,13,-1
 375 312 l 1,14,-1
 281 385 l 1,15,-1
 127 248 l 1,16,-1
 123 252 l 1,17,-1
 256 402 l 1,18,-1
 31 574 l 1,19,-1
 31 156 l 1,7,-1
EndSplineSet
Validated: 1
EndChar

StartChar: uniF187
Encoding: 61831 61831 165
Width: 750
Flags: W
LayerCount: 2
Fore
SplineSet
750 125 m 1,0,-1
 0 125 l 1,1,-1
 0 598 l 1,2,-1
 256 402 l 1,3,-1
 123 252 l 1,4,-1
 127 248 l 1,5,-1
 281 385 l 1,6,-1
 375 312 l 1,7,-1
 469 385 l 1,8,-1
 623 248 l 1,9,-1
 627 252 l 1,10,-1
 494 402 l 1,11,-1
 750 598 l 1,12,-1
 750 125 l 1,0,-1
734 625 m 1,13,-1
 375 352 l 1,14,-1
 16 625 l 1,15,-1
 734 625 l 1,13,-1
EndSplineSet
Validated: 1
EndChar

StartChar: uniF18A
Encoding: 61834 61834 166
Width: 875
Flags: W
LayerCount: 2
Fore
SplineSet
31 572 m 1,0,-1
 31 178 l 1,1,-1
 391 375 l 1,2,-1
 31 572 l 1,0,-1
469 570 m 1,3,-1
 469 418 l 1,4,-1
 469 365 l 1,5,-1
 469 180 l 1,6,-1
 812 375 l 1,7,-1
 469 570 l 1,3,-1
437 625 m 1,8,-1
 875 375 l 1,9,-1
 437 125 l 1,10,-1
 437 365 l 1,11,-1
 0 125 l 1,12,-1
 0 625 l 1,13,-1
 437 385 l 1,14,-1
 437 625 l 1,8,-1
EndSplineSet
Validated: 1
EndChar

StartChar: uniF18B
Encoding: 61835 61835 167
Width: 875
Flags: W
LayerCount: 2
Fore
SplineSet
437 625 m 1,0,-1
 875 375 l 1,1,-1
 437 125 l 1,2,-1
 437 365 l 1,3,-1
 0 125 l 1,4,-1
 0 625 l 1,5,-1
 437 385 l 1,6,-1
 437 625 l 1,0,-1
EndSplineSet
Validated: 1
EndChar

StartChar: uniF194
Encoding: 61844 61844 168
Width: 750
Flags: W
LayerCount: 2
Fore
SplineSet
244 508 m 0,0,1
 299 562 299 562 377 562 c 128,-1,2
 455 562 455 562 509.5 507.5 c 128,-1,3
 564 453 564 453 564 375 c 128,-1,4
 564 297 564 297 509.5 242 c 128,-1,5
 455 187 455 187 377 187 c 128,-1,6
 299 187 299 187 244 242 c 128,-1,7
 189 297 189 297 189 375 c 128,-1,8
 189 453 189 453 244 508 c 0,0,1
266 264 m 0,9,10
 312 219 312 219 376.5 219 c 128,-1,11
 441 219 441 219 487 265 c 128,-1,12
 533 311 533 311 533 375 c 128,-1,13
 533 439 533 439 487 485 c 128,-1,14
 441 531 441 531 376.5 531 c 128,-1,15
 312 531 312 531 266.5 485 c 128,-1,16
 221 439 221 439 221 375 c 128,-1,17
 221 311 221 311 266 264 c 0,9,10
703 453 m 2,18,19
 723 453 723 453 736.5 439.5 c 128,-1,20
 750 426 750 426 750 404 c 2,21,-1
 750 375 l 1,22,-1
 750 346 l 2,23,24
 750 324 750 324 736.5 311.5 c 128,-1,25
 723 299 723 299 703 299 c 2,26,-1
 674 299 l 2,27,28
 656 299 656 299 642.5 285 c 128,-1,29
 629 271 629 271 629 252 c 0,30,31
 629 230 629 230 645 219 c 2,32,-1
 664 201 l 2,33,34
 680 187 680 187 680 167.5 c 128,-1,35
 680 148 680 148 664 133 c 2,36,-1
 621 90 l 2,37,38
 607 76 607 76 585.5 76 c 128,-1,39
 564 76 564 76 551 90 c 2,40,-1
 533 107 l 2,41,42
 518 123 518 123 500 123 c 0,43,44
 480 123 480 123 467.5 109.5 c 128,-1,45
 455 96 455 96 455 78 c 2,46,-1
 455 49 l 2,47,48
 455 27 455 27 440.5 13.5 c 128,-1,49
 426 0 426 0 406 0 c 2,50,-1
 348 0 l 2,51,52
 328 0 328 0 313.5 13.5 c 128,-1,53
 299 27 299 27 299 49 c 2,54,-1
 299 78 l 2,55,56
 299 96 299 96 286 109.5 c 128,-1,57
 273 123 273 123 254 123 c 0,58,59
 232 123 232 123 221 107 c 1,60,-1
 201 90 l 2,61,62
 187 76 187 76 168 76 c 0,63,64
 146 76 146 76 133 90 c 2,65,-1
 90 133 l 2,66,67
 74 148 74 148 74 167.5 c 128,-1,68
 74 187 74 187 90 201 c 2,69,-1
 107 219 l 1,70,71
 123 230 123 230 123 252 c 0,72,73
 123 271 123 271 109.5 284 c 128,-1,74
 96 297 96 297 78 297 c 2,75,-1
 49 297 l 2,76,77
 27 297 27 297 13.5 310.5 c 128,-1,78
 0 324 0 324 0 346 c 2,79,-1
 0 375 l 1,80,-1
 0 404 l 2,81,82
 0 426 0 426 13.5 439.5 c 128,-1,83
 27 453 27 453 49 453 c 2,84,-1
 78 453 l 2,85,86
 96 453 96 453 109.5 466 c 128,-1,87
 123 479 123 479 123 498 c 0,88,89
 123 520 123 520 107 531 c 1,90,-1
 90 549 l 2,91,92
 74 562 74 562 74 582 c 128,-1,93
 74 602 74 602 90 617 c 2,94,-1
 133 660 l 2,95,96
 146 674 146 674 168 674 c 0,97,98
 187 674 187 674 201 660 c 2,99,-1
 221 641 l 2,100,101
 232 627 232 627 254 627 c 0,102,103
 273 627 273 627 286 640.5 c 128,-1,104
 299 654 299 654 299 672 c 2,105,-1
 299 701 l 2,106,107
 299 723 299 723 313.5 736.5 c 128,-1,108
 328 750 328 750 348 750 c 2,109,-1
 406 750 l 2,110,111
 426 750 426 750 439.5 736.5 c 128,-1,112
 453 723 453 723 453 701 c 2,113,-1
 453 672 l 2,114,115
 453 654 453 654 466.5 640.5 c 128,-1,116
 480 627 480 627 500 627 c 0,117,118
 521 627 521 627 533 643 c 2,119,-1
 551 660 l 2,120,121
 564 674 564 674 585.5 674 c 128,-1,122
 607 674 607 674 621 660 c 2,123,-1
 664 617 l 2,124,125
 680 602 680 602 680 582 c 128,-1,126
 680 562 680 562 664 549 c 2,127,-1
 645 531 l 2,128,129
 629 520 629 520 629 498 c 0,130,131
 629 479 629 479 642.5 466 c 128,-1,132
 656 453 656 453 674 453 c 2,133,-1
 703 453 l 2,18,19
719 375 m 1,134,-1
 719 404 l 2,135,136
 719 422 719 422 703 422 c 2,137,-1
 674 422 l 2,138,139
 641 422 641 422 621 445 c 0,140,141
 598 473 598 473 598 498 c 0,142,143
 598 531 598 531 623 553 c 2,144,-1
 641 570 l 2,145,146
 646 576 646 576 646 584 c 0,147,148
 646 590 646 590 641 596 c 2,149,-1
 598 639 l 2,150,151
 590 643 590 643 586 643 c 0,152,153
 578 643 578 643 574 639 c 2,154,-1
 555 621 l 2,155,156
 529 596 529 596 500 596 c 128,-1,157
 471 596 471 596 445 617 c 0,158,159
 422 637 422 637 422 672 c 2,160,-1
 422 701 l 2,161,162
 422 719 422 719 406 719 c 2,163,-1
 348 719 l 2,164,165
 330 719 330 719 330 701 c 2,166,-1
 330 672 l 2,167,168
 330 637 330 637 307 617 c 0,169,170
 281 596 281 596 254 596 c 0,171,172
 219 596 219 596 199 619 c 2,173,-1
 180 639 l 1,174,-1
 180 639 l 1,175,176
 176 643 176 643 168 643 c 128,-1,177
 160 643 160 643 156 639 c 2,178,-1
 111 596 l 2,179,180
 107 592 107 592 107 584 c 0,181,182
 107 574 107 574 111 570 c 2,183,-1
 129 553 l 2,184,185
 154 527 154 527 154 498 c 0,186,187
 154 471 154 471 133 445 c 0,188,189
 113 422 113 422 78 422 c 2,190,-1
 49 422 l 2,191,192
 31 422 31 422 31 404 c 2,193,-1
 31 375 l 1,194,-1
 31 346 l 2,195,196
 31 328 31 328 49 328 c 2,197,-1
 78 328 l 2,198,199
 113 328 113 328 133 305 c 0,200,201
 154 279 154 279 154 252 c 0,202,203
 154 219 154 219 131 195 c 2,204,-1
 113 180 l 2,205,206
 102 168 102 168 113 154 c 2,207,-1
 156 111 l 1,208,-1
 156 111 l 1,209,210
 160 107 160 107 168 107 c 128,-1,211
 176 107 176 107 180 111 c 2,212,-1
 199 129 l 2,213,214
 221 154 221 154 254 154 c 0,215,216
 281 154 281 154 307 133 c 0,217,218
 330 113 330 113 330 78 c 2,219,-1
 330 49 l 2,220,221
 330 31 330 31 348 31 c 2,222,-1
 406 31 l 2,223,224
 424 31 424 31 424 49 c 2,225,-1
 424 78 l 2,226,227
 424 113 424 113 447 133 c 0,228,229
 473 154 473 154 500 154 c 0,230,231
 531 154 531 154 557 129 c 2,232,-1
 574 111 l 2,233,234
 578 107 578 107 586 107 c 128,-1,235
 594 107 594 107 598 111 c 2,236,-1
 643 154 l 2,237,238
 646 158 646 158 646 167 c 128,-1,239
 646 176 646 176 643 180 c 2,240,-1
 623 197 l 2,241,242
 600 219 600 219 600 252 c 0,243,244
 600 281 600 281 621 307 c 0,245,246
 641 330 641 330 676 330 c 2,247,-1
 705 330 l 2,248,249
 719 330 719 330 719 346 c 2,250,-1
 719 375 l 1,134,-1
EndSplineSet
Validated: 5
EndChar

StartChar: uniF195
Encoding: 61845 61845 169
Width: 750
Flags: W
LayerCount: 2
Fore
SplineSet
703 453 m 2,0,1
 723 453 723 453 736.5 439.5 c 128,-1,2
 750 426 750 426 750 404 c 2,3,-1
 750 375 l 1,4,-1
 750 346 l 2,5,6
 750 324 750 324 736.5 310.5 c 128,-1,7
 723 297 723 297 703 297 c 2,8,-1
 674 297 l 2,9,10
 656 297 656 297 642.5 284 c 128,-1,11
 629 271 629 271 629 252 c 0,12,13
 629 230 629 230 645 219 c 2,14,-1
 664 201 l 2,15,16
 680 187 680 187 680 167.5 c 128,-1,17
 680 148 680 148 664 133 c 2,18,-1
 619 90 l 2,19,20
 605 76 605 76 586 76 c 0,21,22
 564 76 564 76 551 90 c 2,23,-1
 533 107 l 2,24,25
 518 123 518 123 500 123 c 0,26,27
 480 123 480 123 466.5 109.5 c 128,-1,28
 453 96 453 96 453 78 c 2,29,-1
 453 49 l 2,30,31
 453 27 453 27 439.5 13.5 c 128,-1,32
 426 0 426 0 406 0 c 2,33,-1
 348 0 l 2,34,35
 328 0 328 0 313.5 13.5 c 128,-1,36
 299 27 299 27 299 49 c 2,37,-1
 299 78 l 2,38,39
 299 96 299 96 286 109.5 c 128,-1,40
 273 123 273 123 254 123 c 0,41,42
 232 123 232 123 221 109 c 2,43,-1
 201 90 l 2,44,45
 187 76 187 76 168 76 c 0,46,47
 146 76 146 76 133 90 c 2,48,-1
 90 133 l 2,49,50
 74 148 74 148 74 167.5 c 128,-1,51
 74 187 74 187 90 201 c 2,52,-1
 107 219 l 1,53,54
 123 230 123 230 123 252 c 0,55,56
 123 271 123 271 109.5 284 c 128,-1,57
 96 297 96 297 78 297 c 2,58,-1
 49 297 l 2,59,60
 27 297 27 297 13.5 310.5 c 128,-1,61
 0 324 0 324 0 346 c 2,62,-1
 0 375 l 1,63,-1
 0 404 l 2,64,65
 0 426 0 426 13.5 439.5 c 128,-1,66
 27 453 27 453 49 453 c 2,67,-1
 78 453 l 2,68,69
 96 453 96 453 109.5 466 c 128,-1,70
 123 479 123 479 123 498 c 0,71,72
 123 520 123 520 107 531 c 1,73,-1
 90 549 l 2,74,75
 74 562 74 562 74 582 c 128,-1,76
 74 602 74 602 90 617 c 2,77,-1
 133 660 l 2,78,79
 146 674 146 674 167.5 674 c 128,-1,80
 189 674 189 674 203 660 c 2,81,-1
 221 641 l 2,82,83
 232 627 232 627 254 627 c 0,84,85
 273 627 273 627 286 640.5 c 128,-1,86
 299 654 299 654 299 672 c 2,87,-1
 299 701 l 2,88,89
 299 723 299 723 313.5 736.5 c 128,-1,90
 328 750 328 750 348 750 c 2,91,-1
 406 750 l 2,92,93
 426 750 426 750 440.5 736.5 c 128,-1,94
 455 723 455 723 455 701 c 2,95,-1
 455 672 l 2,96,97
 455 654 455 654 467.5 640.5 c 128,-1,98
 480 627 480 627 500 627 c 0,99,100
 521 627 521 627 533 643 c 2,101,-1
 551 660 l 2,102,103
 564 674 564 674 585.5 674 c 128,-1,104
 607 674 607 674 621 660 c 2,105,-1
 664 617 l 2,106,107
 680 602 680 602 680 582 c 128,-1,108
 680 562 680 562 664 549 c 2,109,-1
 645 529 l 1,110,111
 629 518 629 518 629 498.5 c 128,-1,112
 629 479 629 479 642.5 466 c 128,-1,113
 656 453 656 453 674 453 c 2,114,-1
 703 453 l 2,0,1
221 375 m 1,115,-1
 221 375 l 1,116,117
 221 311 221 311 266.5 265 c 128,-1,118
 312 219 312 219 376.5 219 c 128,-1,119
 441 219 441 219 487 265 c 128,-1,120
 533 311 533 311 533 375 c 128,-1,121
 533 439 533 439 487 485 c 128,-1,122
 441 531 441 531 376.5 531 c 128,-1,123
 312 531 312 531 266.5 485 c 128,-1,124
 221 439 221 439 221 375 c 1,115,-1
EndSplineSet
Validated: 5
EndChar

StartChar: uniF198
Encoding: 61848 61848 170
Width: 750
Flags: W
LayerCount: 2
Fore
SplineSet
541 684 m 0,0,1
 486 684 486 684 441 652.5 c 128,-1,2
 396 621 396 621 375 572 c 1,3,4
 354 621 354 621 309 652.5 c 128,-1,5
 264 684 264 684 209 684 c 0,6,7
 135 684 135 684 82 630 c 128,-1,8
 29 576 29 576 29 502 c 0,9,10
 29 432 29 432 80 377 c 2,11,-1
 375 80 l 1,12,-1
 664 373 l 2,13,14
 721 430 721 430 721 502 c 0,15,16
 721 576 721 576 668 630 c 128,-1,17
 615 684 615 684 541 684 c 0,0,1
541 713 m 0,18,19
 627 713 627 713 688.5 650.5 c 128,-1,20
 750 588 750 588 750 502 c 0,21,22
 750 412 750 412 686 352 c 2,23,-1
 396 59 l 1,24,-1
 375 37 l 1,25,-1
 354 59 l 1,26,-1
 59 357 l 2,27,28
 0 420 0 420 0 502 c 0,29,30
 0 588 0 588 61.5 650.5 c 128,-1,31
 123 713 123 713 209 713 c 0,32,33
 312 713 312 713 375 631 c 1,34,35
 437 713 437 713 541 713 c 0,18,19
EndSplineSet
Validated: 1
EndChar

StartChar: uniF199
Encoding: 61849 61849 171
Width: 750
Flags: W
LayerCount: 2
Fore
SplineSet
541 713 m 0,0,1
 627 713 627 713 688.5 650.5 c 128,-1,2
 750 588 750 588 750 502 c 0,3,4
 750 412 750 412 686 352 c 2,5,-1
 396 59 l 1,6,-1
 375 37 l 1,7,-1
 354 59 l 1,8,-1
 59 357 l 2,9,10
 0 420 0 420 0 502 c 0,11,12
 0 588 0 588 61.5 650.5 c 128,-1,13
 123 713 123 713 209 713 c 0,14,15
 312 713 312 713 375 631 c 1,16,17
 437 713 437 713 541 713 c 0,0,1
EndSplineSet
Validated: 1
EndChar

StartChar: uniF19B
Encoding: 61851 61851 172
Width: 812
Flags: W
LayerCount: 2
Fore
SplineSet
119 662 m 256,0,1
 238 781 238 781 406 781 c 128,-1,2
 574 781 574 781 693 662 c 128,-1,3
 812 543 812 543 812 375 c 128,-1,4
 812 207 812 207 693 88 c 128,-1,5
 574 -31 574 -31 406 -31 c 128,-1,6
 238 -31 238 -31 119 88 c 128,-1,7
 0 207 0 207 0 375 c 128,-1,8
 0 543 0 543 119 662 c 256,0,1
143 111 m 0,9,10
 252 2 252 2 406.5 2 c 128,-1,11
 561 2 561 2 670 111.5 c 128,-1,12
 779 221 779 221 779 375 c 128,-1,13
 779 529 779 529 670 638.5 c 128,-1,14
 561 748 561 748 406.5 748 c 128,-1,15
 252 748 252 748 142.5 638.5 c 128,-1,16
 33 529 33 529 33 375 c 128,-1,17
 33 221 33 221 143 111 c 0,9,10
414 590 m 0,18,19
 463 590 463 590 497 560.5 c 128,-1,20
 531 531 531 531 531 482 c 0,21,22
 531 432 531 432 480 385 c 0,23,24
 449 354 449 354 443 338 c 128,-1,25
 437 322 437 322 436 281 c 1,26,-1
 398 281 l 1,27,28
 400 355 400 355 457 406 c 0,29,30
 494 439 494 439 494 480 c 0,31,32
 494 516 494 516 470.5 537.5 c 128,-1,33
 447 559 447 559 412 559 c 0,34,35
 365 559 365 559 340.5 535.5 c 128,-1,36
 316 512 316 512 318 469 c 1,37,-1
 281 469 l 1,38,39
 281 590 281 590 414 590 c 0,18,19
391 217 m 0,40,41
 400 227 400 227 414 227 c 128,-1,42
 428 227 428 227 437.5 217 c 128,-1,43
 447 207 447 207 447 193.5 c 128,-1,44
 447 180 447 180 437.5 170 c 128,-1,45
 428 160 428 160 414 160 c 128,-1,46
 400 160 400 160 390.5 170 c 128,-1,47
 381 180 381 180 381 193.5 c 128,-1,48
 381 207 381 207 391 217 c 0,40,41
EndSplineSet
Validated: 33
EndChar

StartChar: uniF19C
Encoding: 61852 61852 173
Width: 812
Flags: W
LayerCount: 2
Fore
SplineSet
119 662 m 256,0,1
 238 781 238 781 406 781 c 128,-1,2
 574 781 574 781 693 662 c 128,-1,3
 812 543 812 543 812 375 c 128,-1,4
 812 207 812 207 693 88 c 128,-1,5
 574 -31 574 -31 406 -31 c 128,-1,6
 238 -31 238 -31 119 88 c 128,-1,7
 0 207 0 207 0 375 c 128,-1,8
 0 543 0 543 119 662 c 256,0,1
391 170 m 0,9,10
 400 160 400 160 414 160 c 128,-1,11
 428 160 428 160 437.5 170 c 128,-1,12
 447 180 447 180 447 193.5 c 128,-1,13
 447 207 447 207 437.5 217 c 128,-1,14
 428 227 428 227 414 227 c 128,-1,15
 400 227 400 227 390.5 217 c 128,-1,16
 381 207 381 207 381 193.5 c 128,-1,17
 381 180 381 180 391 170 c 0,9,10
480 385 m 0,18,19
 531 432 531 432 531 484 c 0,20,21
 531 533 531 533 498 561.5 c 128,-1,22
 465 590 465 590 414 590 c 0,23,24
 281 590 281 590 281 469 c 1,25,-1
 318 469 l 1,26,27
 316 512 316 512 340.5 535.5 c 128,-1,28
 365 559 365 559 412 559 c 0,29,30
 447 559 447 559 470.5 538.5 c 128,-1,31
 494 518 494 518 494 482 c 0,32,33
 494 439 494 439 457 406 c 0,34,35
 400 355 400 355 398 281 c 1,36,-1
 436 281 l 1,37,38
 437 307 437 307 437 313.5 c 128,-1,39
 437 320 437 320 441 335 c 128,-1,40
 445 350 445 350 454 359.5 c 128,-1,41
 463 369 463 369 480 385 c 0,18,19
EndSplineSet
Validated: 33
EndChar

StartChar: uniF1A3
Encoding: 61859 61859 174
Width: 750
Flags: W
LayerCount: 2
Fore
SplineSet
646 209 m 0,0,1
 689 209 689 209 719.5 178.5 c 128,-1,2
 750 148 750 148 750 103.5 c 128,-1,3
 750 59 750 59 720.5 29.5 c 128,-1,4
 691 0 691 0 646.5 0 c 128,-1,5
 602 0 602 0 571.5 30.5 c 128,-1,6
 541 61 541 61 541 104 c 0,7,8
 541 148 541 148 571.5 178.5 c 128,-1,9
 602 209 602 209 646 209 c 0,0,1
594 51 m 0,10,11
 615 31 615 31 646.5 31 c 128,-1,12
 678 31 678 31 698.5 51.5 c 128,-1,13
 719 72 719 72 719 103.5 c 128,-1,14
 719 135 719 135 698.5 156.5 c 128,-1,15
 678 178 678 178 646.5 178 c 128,-1,16
 615 178 615 178 593.5 156.5 c 128,-1,17
 572 135 572 135 572 103.5 c 128,-1,18
 572 72 572 72 594 51 c 0,10,11
301 178 m 0,19,20
 332 209 332 209 375 209 c 128,-1,21
 418 209 418 209 448.5 178.5 c 128,-1,22
 479 148 479 148 479 103.5 c 128,-1,23
 479 59 479 59 448.5 29.5 c 128,-1,24
 418 0 418 0 375 0 c 128,-1,25
 332 0 332 0 301.5 29.5 c 128,-1,26
 271 59 271 59 271 103.5 c 128,-1,27
 271 148 271 148 301 178 c 0,19,20
322 51 m 0,28,29
 344 31 344 31 375 31 c 128,-1,30
 406 31 406 31 426.5 51.5 c 128,-1,31
 447 72 447 72 447 103.5 c 128,-1,32
 447 135 447 135 426.5 156.5 c 128,-1,33
 406 178 406 178 375 178 c 128,-1,34
 344 178 344 178 323.5 156.5 c 128,-1,35
 303 135 303 135 303 103.5 c 128,-1,36
 303 72 303 72 322 51 c 0,28,29
104 209 m 0,37,38
 148 209 148 209 178.5 178.5 c 128,-1,39
 209 148 209 148 209 104 c 0,40,41
 209 61 209 61 178.5 30.5 c 128,-1,42
 148 0 148 0 103.5 0 c 128,-1,43
 59 0 59 0 29.5 29.5 c 128,-1,44
 0 59 0 59 0 103.5 c 128,-1,45
 0 148 0 148 30.5 178.5 c 128,-1,46
 61 209 61 209 104 209 c 0,37,38
51 51 m 0,47,48
 72 31 72 31 103.5 31 c 128,-1,49
 135 31 135 31 156.5 51.5 c 128,-1,50
 178 72 178 72 178 103.5 c 128,-1,51
 178 135 178 135 156.5 156.5 c 128,-1,52
 135 178 135 178 103.5 178 c 128,-1,53
 72 178 72 178 51.5 156.5 c 128,-1,54
 31 135 31 135 31 103.5 c 128,-1,55
 31 72 31 72 51 51 c 0,47,48
570 447 m 0,56,57
 602 479 602 479 646.5 479 c 128,-1,58
 691 479 691 479 720.5 448.5 c 128,-1,59
 750 418 750 418 750 375 c 128,-1,60
 750 332 750 332 720.5 301.5 c 128,-1,61
 691 271 691 271 646.5 271 c 128,-1,62
 602 271 602 271 571.5 301.5 c 128,-1,63
 541 332 541 332 541 375 c 128,-1,64
 541 418 541 418 570 447 c 0,56,57
594 322 m 0,65,66
 615 303 615 303 646.5 303 c 128,-1,67
 678 303 678 303 698.5 323.5 c 128,-1,68
 719 344 719 344 719 375 c 128,-1,69
 719 406 719 406 698.5 426.5 c 128,-1,70
 678 447 678 447 646.5 447 c 128,-1,71
 615 447 615 447 593.5 426.5 c 128,-1,72
 572 406 572 406 572 375 c 128,-1,73
 572 344 572 344 594 322 c 0,65,66
301 447 m 0,74,75
 332 479 332 479 375 479 c 128,-1,76
 418 479 418 479 448.5 448.5 c 128,-1,77
 479 418 479 418 479 375 c 128,-1,78
 479 332 479 332 448.5 301.5 c 128,-1,79
 418 271 418 271 375 271 c 128,-1,80
 332 271 332 271 301.5 301.5 c 128,-1,81
 271 332 271 332 271 375 c 128,-1,82
 271 418 271 418 301 447 c 0,74,75
322 322 m 1,83,84
 344 303 344 303 375 303 c 128,-1,85
 406 303 406 303 426.5 323.5 c 128,-1,86
 447 344 447 344 447 375 c 128,-1,87
 447 406 447 406 426.5 426.5 c 128,-1,88
 406 447 406 447 375 447 c 128,-1,89
 344 447 344 447 323.5 426.5 c 128,-1,90
 303 406 303 406 303 375 c 128,-1,91
 303 344 303 344 322 322 c 1,83,84
29 447 m 0,92,93
 59 479 59 479 103.5 479 c 128,-1,94
 148 479 148 479 178.5 448.5 c 128,-1,95
 209 418 209 418 209 375 c 128,-1,96
 209 332 209 332 178.5 301.5 c 128,-1,97
 148 271 148 271 103.5 271 c 128,-1,98
 59 271 59 271 29.5 301.5 c 128,-1,99
 0 332 0 332 0 375 c 128,-1,100
 0 418 0 418 29 447 c 0,92,93
51 322 m 0,101,102
 72 303 72 303 103.5 303 c 128,-1,103
 135 303 135 303 156.5 323.5 c 128,-1,104
 178 344 178 344 178 375 c 128,-1,105
 178 406 178 406 156.5 426.5 c 128,-1,106
 135 447 135 447 103.5 447 c 128,-1,107
 72 447 72 447 51.5 426.5 c 128,-1,108
 31 406 31 406 31 375 c 128,-1,109
 31 344 31 344 51 322 c 0,101,102
646 541 m 0,110,111
 602 541 602 541 571.5 571.5 c 128,-1,112
 541 602 541 602 541 646 c 0,113,114
 541 689 541 689 571.5 719.5 c 128,-1,115
 602 750 602 750 646.5 750 c 128,-1,116
 691 750 691 750 720.5 720.5 c 128,-1,117
 750 691 750 691 750 646.5 c 128,-1,118
 750 602 750 602 719.5 571.5 c 128,-1,119
 689 541 689 541 646 541 c 0,110,111
697 697 m 1,120,121
 678 719 678 719 646.5 719 c 128,-1,122
 615 719 615 719 593.5 698.5 c 128,-1,123
 572 678 572 678 572 646.5 c 128,-1,124
 572 615 572 615 593.5 593.5 c 128,-1,125
 615 572 615 572 646.5 572 c 128,-1,126
 678 572 678 572 698.5 593.5 c 128,-1,127
 719 615 719 615 719 646.5 c 128,-1,128
 719 678 719 678 697 697 c 1,120,121
301 721 m 0,129,130
 332 750 332 750 375 750 c 128,-1,131
 418 750 418 750 448.5 720.5 c 128,-1,132
 479 691 479 691 479 646.5 c 128,-1,133
 479 602 479 602 448.5 571.5 c 128,-1,134
 418 541 418 541 375 541 c 128,-1,135
 332 541 332 541 301.5 571.5 c 128,-1,136
 271 602 271 602 271 646.5 c 128,-1,137
 271 691 271 691 301 721 c 0,129,130
322 594 m 0,138,139
 344 572 344 572 375 572 c 128,-1,140
 406 572 406 572 426.5 593.5 c 128,-1,141
 447 615 447 615 447 646.5 c 128,-1,142
 447 678 447 678 426.5 698.5 c 128,-1,143
 406 719 406 719 375 719 c 128,-1,144
 344 719 344 719 323.5 698.5 c 128,-1,145
 303 678 303 678 303 646.5 c 128,-1,146
 303 615 303 615 322 594 c 0,138,139
209 646 m 0,147,148
 209 602 209 602 178.5 571.5 c 128,-1,149
 148 541 148 541 104 541 c 0,150,151
 61 541 61 541 30.5 571.5 c 128,-1,152
 0 602 0 602 0 646.5 c 128,-1,153
 0 691 0 691 29.5 720.5 c 128,-1,154
 59 750 59 750 103.5 750 c 128,-1,155
 148 750 148 750 178.5 719.5 c 128,-1,156
 209 689 209 689 209 646 c 0,147,148
51 594 m 0,157,158
 72 572 72 572 103.5 572 c 128,-1,159
 135 572 135 572 156.5 593.5 c 128,-1,160
 178 615 178 615 178 646.5 c 128,-1,161
 178 678 178 678 156.5 698.5 c 128,-1,162
 135 719 135 719 103.5 719 c 128,-1,163
 72 719 72 719 51.5 698.5 c 128,-1,164
 31 678 31 678 31 646.5 c 128,-1,165
 31 615 31 615 51 594 c 0,157,158
EndSplineSet
Validated: 1
EndChar

StartChar: uniF1A4
Encoding: 61860 61860 175
Width: 750
Flags: W
LayerCount: 2
Fore
SplineSet
646 209 m 0,0,1
 689 209 689 209 719.5 178.5 c 128,-1,2
 750 148 750 148 750 103.5 c 128,-1,3
 750 59 750 59 720.5 29.5 c 128,-1,4
 691 0 691 0 646.5 0 c 128,-1,5
 602 0 602 0 571.5 30.5 c 128,-1,6
 541 61 541 61 541 104 c 0,7,8
 541 148 541 148 571.5 178.5 c 128,-1,9
 602 209 602 209 646 209 c 0,0,1
301 178 m 0,10,11
 332 209 332 209 375 209 c 128,-1,12
 418 209 418 209 448.5 178.5 c 128,-1,13
 479 148 479 148 479 103.5 c 128,-1,14
 479 59 479 59 448.5 29.5 c 128,-1,15
 418 0 418 0 375 0 c 128,-1,16
 332 0 332 0 301.5 29.5 c 128,-1,17
 271 59 271 59 271 103.5 c 128,-1,18
 271 148 271 148 301 178 c 0,10,11
104 209 m 0,19,20
 148 209 148 209 178.5 178.5 c 128,-1,21
 209 148 209 148 209 104 c 0,22,23
 209 61 209 61 178.5 30.5 c 128,-1,24
 148 0 148 0 103.5 0 c 128,-1,25
 59 0 59 0 29.5 29.5 c 128,-1,26
 0 59 0 59 0 103.5 c 128,-1,27
 0 148 0 148 30.5 178.5 c 128,-1,28
 61 209 61 209 104 209 c 0,19,20
570 447 m 0,29,30
 602 479 602 479 646.5 479 c 128,-1,31
 691 479 691 479 720.5 448.5 c 128,-1,32
 750 418 750 418 750 375 c 128,-1,33
 750 332 750 332 720.5 301.5 c 128,-1,34
 691 271 691 271 646.5 271 c 128,-1,35
 602 271 602 271 571.5 301.5 c 128,-1,36
 541 332 541 332 541 375 c 128,-1,37
 541 418 541 418 570 447 c 0,29,30
301 447 m 0,38,39
 332 479 332 479 375 479 c 128,-1,40
 418 479 418 479 448.5 448.5 c 128,-1,41
 479 418 479 418 479 375 c 128,-1,42
 479 332 479 332 448.5 301.5 c 128,-1,43
 418 271 418 271 375 271 c 128,-1,44
 332 271 332 271 301.5 301.5 c 128,-1,45
 271 332 271 332 271 375 c 128,-1,46
 271 418 271 418 301 447 c 0,38,39
29 447 m 0,47,48
 59 479 59 479 103.5 479 c 128,-1,49
 148 479 148 479 178.5 448.5 c 128,-1,50
 209 418 209 418 209 375 c 128,-1,51
 209 332 209 332 178.5 301.5 c 128,-1,52
 148 271 148 271 103.5 271 c 128,-1,53
 59 271 59 271 29.5 301.5 c 128,-1,54
 0 332 0 332 0 375 c 128,-1,55
 0 418 0 418 29 447 c 0,47,48
646 541 m 0,56,57
 602 541 602 541 571.5 571.5 c 128,-1,58
 541 602 541 602 541 646 c 0,59,60
 541 689 541 689 571.5 719.5 c 128,-1,61
 602 750 602 750 646.5 750 c 128,-1,62
 691 750 691 750 720.5 720.5 c 128,-1,63
 750 691 750 691 750 646.5 c 128,-1,64
 750 602 750 602 719.5 571.5 c 128,-1,65
 689 541 689 541 646 541 c 0,56,57
301 721 m 0,66,67
 332 750 332 750 375 750 c 128,-1,68
 418 750 418 750 448.5 720.5 c 128,-1,69
 479 691 479 691 479 646.5 c 128,-1,70
 479 602 479 602 448.5 571.5 c 128,-1,71
 418 541 418 541 375 541 c 128,-1,72
 332 541 332 541 301.5 571.5 c 128,-1,73
 271 602 271 602 271 646.5 c 128,-1,74
 271 691 271 691 301 721 c 0,66,67
209 646 m 0,75,76
 209 602 209 602 178.5 571.5 c 128,-1,77
 148 541 148 541 104 541 c 0,78,79
 61 541 61 541 30.5 571.5 c 128,-1,80
 0 602 0 602 0 646.5 c 128,-1,81
 0 691 0 691 29.5 720.5 c 128,-1,82
 59 750 59 750 103.5 750 c 128,-1,83
 148 750 148 750 178.5 719.5 c 128,-1,84
 209 689 209 689 209 646 c 0,75,76
EndSplineSet
Validated: 1
EndChar

StartChar: uniF1A5
Encoding: 61861 61861 176
Width: 523
Flags: W
LayerCount: 2
Fore
SplineSet
523 553 m 0,0,1
 523 502 523 502 506 455 c 1,2,-1
 504 453 l 2,3,4
 504 451 504 451 504 449 c 2,5,-1
 502 445 l 1,6,-1
 500 443 l 1,7,-1
 262 -63 l 1,8,-1
 23 445 l 1,9,-1
 21 449 l 2,10,11
 20 451 20 451 20 453 c 2,12,-1
 20 455 l 1,13,14
 0 508 0 508 0 553 c 0,15,16
 0 660 0 660 76 736 c 128,-1,17
 152 812 152 812 261.5 812 c 128,-1,18
 371 812 371 812 447 736 c 128,-1,19
 523 660 523 660 523 553 c 0,0,1
475 467 m 1,20,21
 492 508 492 508 492 553 c 0,22,23
 492 648 492 648 424.5 714.5 c 128,-1,24
 357 781 357 781 261.5 781 c 128,-1,25
 166 781 166 781 98.5 714.5 c 128,-1,26
 31 648 31 648 31 553 c 0,27,28
 31 506 31 506 49 465 c 1,29,-1
 51 463 l 1,30,-1
 51 461 l 1,31,-1
 53 457 l 1,32,-1
 262 14 l 1,33,-1
 471 457 l 1,34,-1
 473 461 l 1,35,-1
 473 463 l 1,36,-1
 475 465 l 1,37,-1
 475 467 l 1,20,21
174 650 m 256,38,39
 211 687 211 687 261.5 687 c 128,-1,40
 312 687 312 687 349.5 650 c 128,-1,41
 387 613 387 613 387 562.5 c 128,-1,42
 387 512 387 512 349.5 474.5 c 128,-1,43
 312 437 312 437 261.5 437 c 128,-1,44
 211 437 211 437 174 474.5 c 128,-1,45
 137 512 137 512 137 562.5 c 128,-1,46
 137 613 137 613 174 650 c 256,38,39
195 496 m 0,47,48
 223 471 223 471 262 471 c 128,-1,49
 301 471 301 471 327.5 497 c 128,-1,50
 354 523 354 523 354 562.5 c 128,-1,51
 354 602 354 602 327.5 628 c 128,-1,52
 301 654 301 654 262 654 c 128,-1,53
 223 654 223 654 196.5 628 c 128,-1,54
 170 602 170 602 170 562.5 c 128,-1,55
 170 523 170 523 195 496 c 0,47,48
EndSplineSet
Validated: 1
EndChar

StartChar: uniF1A6
Encoding: 61862 61862 177
Width: 523
Flags: W
LayerCount: 2
Fore
SplineSet
523 553 m 0,0,1
 523 502 523 502 506 455 c 1,2,-1
 504 453 l 2,3,4
 504 451 504 451 504 449 c 2,5,-1
 502 445 l 1,6,-1
 500 443 l 1,7,-1
 262 -63 l 1,8,-1
 23 445 l 1,9,-1
 21 449 l 2,10,11
 20 451 20 451 20 453 c 2,12,-1
 20 455 l 1,13,14
 0 508 0 508 0 553 c 0,15,16
 0 660 0 660 76 736 c 128,-1,17
 152 812 152 812 261.5 812 c 128,-1,18
 371 812 371 812 447 736 c 128,-1,19
 523 660 523 660 523 553 c 0,0,1
195 496 m 0,20,21
 223 471 223 471 262 471 c 128,-1,22
 301 471 301 471 327.5 497 c 128,-1,23
 354 523 354 523 354 562.5 c 128,-1,24
 354 602 354 602 327.5 628 c 128,-1,25
 301 654 301 654 262 654 c 128,-1,26
 223 654 223 654 196.5 628 c 128,-1,27
 170 602 170 602 170 562.5 c 128,-1,28
 170 523 170 523 195 496 c 0,20,21
EndSplineSet
Validated: 1
EndChar

StartChar: uniF1A7
Encoding: 61863 61863 178
Width: 625
Flags: W
LayerCount: 2
Fore
SplineSet
516 437 m 1,0,-1
 625 437 l 1,1,-1
 625 -31 l 1,2,-1
 0 -31 l 1,3,-1
 0 437 l 1,4,-1
 109 437 l 1,5,-1
 109 578 l 2,6,7
 109 662 109 662 169 721.5 c 128,-1,8
 229 781 229 781 312.5 781 c 128,-1,9
 396 781 396 781 456 721.5 c 128,-1,10
 516 662 516 662 516 578 c 2,11,-1
 516 437 l 1,0,-1
141 578 m 2,12,-1
 141 437 l 1,13,-1
 484 437 l 1,14,-1
 484 578 l 2,15,16
 484 648 484 648 433.5 699 c 128,-1,17
 383 750 383 750 312.5 750 c 128,-1,18
 242 750 242 750 191.5 699 c 128,-1,19
 141 648 141 648 141 578 c 2,12,-1
594 0 m 1,20,-1
 594 406 l 1,21,-1
 31 406 l 1,22,-1
 31 0 l 1,23,-1
 594 0 l 1,20,-1
375 250 m 0,24,25
 375 203 375 203 328 189 c 1,26,-1
 328 109 l 2,27,28
 328 94 328 94 312.5 94 c 128,-1,29
 297 94 297 94 297 109 c 2,30,-1
 297 189 l 1,31,32
 250 203 250 203 250 250 c 0,33,34
 250 277 250 277 267.5 294.5 c 128,-1,35
 285 312 285 312 312.5 312 c 128,-1,36
 340 312 340 312 357.5 294.5 c 128,-1,37
 375 277 375 277 375 250 c 0,24,25
281 250 m 256,38,39
 281 219 281 219 312.5 219 c 128,-1,40
 344 219 344 219 344 250 c 128,-1,41
 344 281 344 281 312.5 281 c 128,-1,42
 281 281 281 281 281 250 c 256,38,39
EndSplineSet
Validated: 1
EndChar

StartChar: uniF1A8
Encoding: 61864 61864 179
Width: 625
Flags: W
LayerCount: 2
Fore
SplineSet
281 250 m 256,0,1
 281 281 281 281 312.5 281 c 128,-1,2
 344 281 344 281 344 250 c 128,-1,3
 344 219 344 219 312.5 219 c 128,-1,4
 281 219 281 219 281 250 c 256,0,1
516 437 m 1,5,-1
 625 437 l 1,6,-1
 625 -31 l 1,7,-1
 0 -31 l 1,8,-1
 0 437 l 1,9,-1
 109 437 l 1,10,-1
 109 578 l 2,11,12
 109 662 109 662 169 721.5 c 128,-1,13
 229 781 229 781 312.5 781 c 128,-1,14
 396 781 396 781 456 721.5 c 128,-1,15
 516 662 516 662 516 578 c 2,16,-1
 516 437 l 1,5,-1
328 189 m 1,17,18
 375 203 375 203 375 250 c 0,19,20
 375 277 375 277 357.5 294.5 c 128,-1,21
 340 312 340 312 312.5 312 c 128,-1,22
 285 312 285 312 267.5 294.5 c 128,-1,23
 250 277 250 277 250 250 c 0,24,25
 250 203 250 203 297 189 c 1,26,-1
 297 109 l 2,27,28
 297 94 297 94 312.5 94 c 128,-1,29
 328 94 328 94 328 109 c 2,30,-1
 328 189 l 1,17,18
484 437 m 1,31,-1
 484 578 l 2,32,33
 484 648 484 648 433.5 699 c 128,-1,34
 383 750 383 750 312.5 750 c 128,-1,35
 242 750 242 750 191.5 699 c 128,-1,36
 141 648 141 648 141 578 c 2,37,-1
 141 437 l 1,38,-1
 484 437 l 1,31,-1
EndSplineSet
Validated: 1
EndChar

StartChar: uniF1A9
Encoding: 61865 61865 180
Width: 547
Flags: W
LayerCount: 2
Fore
SplineSet
520 -63 m 1,0,-1
 16 797 l 1,1,-1
 43 812 l 1,2,-1
 547 -47 l 1,3,-1
 520 -63 l 1,0,-1
250 186 m 0,4,5
 186 186 186 186 141 232.5 c 128,-1,6
 96 279 96 279 96 348 c 2,7,-1
 96 578 l 1,8,-1
 316 201 l 1,9,10
 285 186 285 186 250 186 c 0,4,5
404 348 m 2,11,12
 404 322 404 322 395 293 c 1,13,-1
 129 750 l 1,14,15
 172 812 172 812 250 812 c 0,16,17
 314 812 314 812 359 764.5 c 128,-1,18
 404 717 404 717 404 648 c 2,19,-1
 404 348 l 2,11,12
500 344 m 2,20,21
 500 264 500 264 453 197 c 1,22,-1
 434 230 l 1,23,24
 467 281 467 281 467 344 c 2,25,-1
 467 500 l 1,26,-1
 500 500 l 1,27,-1
 500 344 l 2,20,21
271 96 m 1,28,-1
 271 -27 l 1,29,-1
 406 -27 l 1,30,-1
 406 -63 l 1,31,-1
 92 -63 l 1,32,-1
 92 -27 l 1,33,-1
 234 -27 l 1,34,-1
 234 96 l 1,35,36
 137 104 137 104 68.5 175 c 128,-1,37
 0 246 0 246 0 344 c 2,38,-1
 0 500 l 1,39,-1
 37 500 l 1,40,-1
 37 344 l 2,41,42
 37 256 37 256 100.5 193.5 c 128,-1,43
 164 131 164 131 252 131 c 0,44,45
 303 131 303 131 346 152 c 1,46,-1
 363 121 l 1,47,48
 318 98 318 98 271 96 c 1,28,-1
EndSplineSet
Validated: 1
EndChar

StartChar: uniF1AA
Encoding: 61866 61866 181
Width: 500
Flags: W
LayerCount: 2
Fore
SplineSet
404 648 m 2,0,-1
 404 348 l 2,1,2
 404 279 404 279 359 231.5 c 128,-1,3
 314 184 314 184 250 184 c 128,-1,4
 186 184 186 184 141 231.5 c 128,-1,5
 96 279 96 279 96 348 c 2,6,-1
 96 648 l 2,7,8
 96 717 96 717 141 764.5 c 128,-1,9
 186 812 186 812 250 812 c 128,-1,10
 314 812 314 812 359 764.5 c 128,-1,11
 404 717 404 717 404 648 c 2,0,-1
373 348 m 2,12,-1
 373 648 l 2,13,14
 373 703 373 703 337 742 c 128,-1,15
 301 781 301 781 250 781 c 128,-1,16
 199 781 199 781 163 742 c 128,-1,17
 127 703 127 703 127 648 c 2,18,-1
 127 348 l 2,19,20
 127 293 127 293 163 254 c 128,-1,21
 199 215 199 215 250 215 c 128,-1,22
 301 215 301 215 337 254 c 128,-1,23
 373 293 373 293 373 348 c 2,12,-1
467 500 m 1,24,-1
 500 500 l 1,25,-1
 500 344 l 2,26,27
 500 246 500 246 434.5 175 c 128,-1,28
 369 104 369 104 271 96 c 1,29,-1
 271 -27 l 1,30,-1
 406 -27 l 1,31,-1
 406 -63 l 1,32,-1
 92 -63 l 1,33,-1
 92 -27 l 1,34,-1
 234 -27 l 1,35,-1
 234 96 l 1,36,37
 137 104 137 104 68.5 175 c 128,-1,38
 0 246 0 246 0 344 c 2,39,-1
 0 500 l 1,40,-1
 37 500 l 1,41,-1
 37 344 l 2,42,43
 37 256 37 256 100.5 193.5 c 128,-1,44
 164 131 164 131 252 131 c 128,-1,45
 340 131 340 131 403.5 193.5 c 128,-1,46
 467 256 467 256 467 344 c 2,47,-1
 467 500 l 1,24,-1
EndSplineSet
Validated: 1
EndChar

StartChar: uniF1AB
Encoding: 61867 61867 182
Width: 500
Flags: W
LayerCount: 2
Fore
SplineSet
96 348 m 2,0,-1
 96 648 l 2,1,2
 96 717 96 717 141 764.5 c 128,-1,3
 186 812 186 812 250 812 c 128,-1,4
 314 812 314 812 359 764.5 c 128,-1,5
 404 717 404 717 404 648 c 2,6,-1
 404 348 l 2,7,8
 404 279 404 279 359 231.5 c 128,-1,9
 314 184 314 184 250 184 c 128,-1,10
 186 184 186 184 141 231.5 c 128,-1,11
 96 279 96 279 96 348 c 2,0,-1
467 500 m 1,12,-1
 500 500 l 1,13,-1
 500 344 l 2,14,15
 500 246 500 246 434.5 175 c 128,-1,16
 369 104 369 104 271 96 c 1,17,-1
 271 -27 l 1,18,-1
 406 -27 l 1,19,-1
 406 -63 l 1,20,-1
 92 -63 l 1,21,-1
 92 -27 l 1,22,-1
 234 -27 l 1,23,-1
 234 96 l 1,24,25
 137 104 137 104 68.5 175 c 128,-1,26
 0 246 0 246 0 344 c 2,27,-1
 0 500 l 1,28,-1
 37 500 l 1,29,-1
 37 344 l 2,30,31
 37 256 37 256 100.5 193.5 c 128,-1,32
 164 131 164 131 252 131 c 128,-1,33
 340 131 340 131 403.5 193.5 c 128,-1,34
 467 256 467 256 467 344 c 2,35,-1
 467 500 l 1,12,-1
EndSplineSet
Validated: 1
EndChar

StartChar: uniF1B4
Encoding: 61876 61876 183
Width: 625
Flags: W
LayerCount: 2
Fore
SplineSet
268 420 m 0,0,1
 285 437 285 437 312.5 437 c 128,-1,2
 340 437 340 437 357.5 419.5 c 128,-1,3
 375 402 375 402 375 375 c 128,-1,4
 375 348 375 348 357.5 330 c 128,-1,5
 340 312 340 312 312.5 312 c 128,-1,6
 285 312 285 312 267.5 330 c 128,-1,7
 250 348 250 348 250 375 c 128,-1,8
 250 402 250 402 268 420 c 0,0,1
18 420 m 0,9,10
 35 437 35 437 62.5 437 c 128,-1,11
 90 437 90 437 107.5 419.5 c 128,-1,12
 125 402 125 402 125 375 c 128,-1,13
 125 348 125 348 107.5 330 c 128,-1,14
 90 312 90 312 62.5 312 c 128,-1,15
 35 312 35 312 17.5 330 c 128,-1,16
 0 348 0 348 0 375 c 128,-1,17
 0 402 0 402 18 420 c 0,9,10
518 420 m 0,18,19
 535 437 535 437 562.5 437 c 128,-1,20
 590 437 590 437 607.5 419.5 c 128,-1,21
 625 402 625 402 625 375 c 128,-1,22
 625 348 625 348 607.5 330 c 128,-1,23
 590 312 590 312 562.5 312 c 128,-1,24
 535 312 535 312 517.5 330 c 128,-1,25
 500 348 500 348 500 375 c 128,-1,26
 500 402 500 402 518 420 c 0,18,19
EndSplineSet
Validated: 1
EndChar

StartChar: uniF1BD
Encoding: 61885 61885 184
Width: 500
Flags: W
LayerCount: 2
Fore
SplineSet
123 656 m 1,0,-1
 31 656 l 1,1,-1
 31 94 l 1,2,-1
 123 94 l 1,3,-1
 123 656 l 1,0,-1
154 687 m 1,4,-1
 154 62 l 1,5,-1
 0 62 l 1,6,-1
 0 687 l 1,7,-1
 154 687 l 1,4,-1
469 656 m 1,8,-1
 377 656 l 1,9,-1
 377 94 l 1,10,-1
 469 94 l 1,11,-1
 469 656 l 1,8,-1
500 687 m 1,12,-1
 500 62 l 1,13,-1
 346 62 l 1,14,-1
 346 687 l 1,15,-1
 500 687 l 1,12,-1
EndSplineSet
Validated: 1
EndChar

StartChar: uniF1BE
Encoding: 61886 61886 185
Width: 500
Flags: W
LayerCount: 2
Fore
SplineSet
0 62 m 1,0,-1
 0 687 l 1,1,-1
 154 687 l 1,2,-1
 154 62 l 1,3,-1
 0 62 l 1,0,-1
346 62 m 1,4,-1
 346 687 l 1,5,-1
 500 687 l 1,6,-1
 500 62 l 1,7,-1
 346 62 l 1,4,-1
EndSplineSet
Validated: 1
EndChar

